<?xml version="1.0" encoding="utf-8"?>
<!-- Generator: Adobe Illustrator 25.4.1, SVG Export Plug-In . SVG Version: 6.00 Build 0)  -->
<svg version="1.1" id="Layer_1" xmlns="http://www.w3.org/2000/svg" xmlns:xlink="http://www.w3.org/1999/xlink" x="0px" y="0px"
	 viewBox="0 0 60 59" style="enable-background:new 0 0 60 59;" xml:space="preserve">
<style type="text/css">
	.st0{fill:#FEE000;}
	.st1{fill:#070707;}
	.st2{fill:#BDC3FE;}
	.st3{fill:#E7EBFE;}
	.st4{fill:#6880CF;}
	.st5{fill:#6B82D0;}
	.st6{fill:#D4475B;}
	.st7{fill:#5966D4;}
	.st8{fill:#C9CEFE;}
	.st9{fill:#FCC9C6;}
	.st10{fill:#BFC5FE;}
	.st11{fill:#B1B8DE;}
	.st12{fill:#FEFEFE;}
	.st13{fill:#4559AD;}
	.st14{fill:#D3D6FD;}
	.st15{fill:#CACFFE;}
	.st16{fill:#CACEFE;}
	.st17{fill:#C8CDFE;}
	.st18{fill:#C6CBFE;}
	.st19{fill:#CACEFD;}
	.st20{fill:#8692FE;}
	.st21{fill:#7E8BFE;}
	.st22{fill:#7C89FE;}
	.st23{fill:#707EFE;}
	.st24{fill:#6C7AFE;}
	.st25{fill:#C5CAFE;}
	.st26{fill:#C3C8FE;}
	.st27{fill:#C2C7FE;}
	.st28{fill:#C4C9FE;}
	.st29{fill:#C2C8FE;}
	.st30{fill:#CED2FE;}
	.st31{fill:#CFD3FE;}
	.st32{fill:#CDD1FD;}
	.st33{fill:#C1C6FE;}
	.st34{fill:#B4BBFE;}
	.st35{fill:#A8B0FE;}
	.st36{fill:#8DA5EB;}
	.st37{fill:#AFB7FE;}
	.st38{fill:#B2B9FE;}
	.st39{fill:#AAB2FE;}
	.st40{fill:#B9BFFE;}
	.st41{fill:#B7BEFE;}
	.st42{fill:#A9B2FE;}
	.st43{fill:#BCC2FE;}
	.st44{fill:#FBC8C6;}
	.st45{fill:#EEC1C2;}
	.st46{fill:#FEFDFC;}
	.st47{fill:#FDCCC9;}
	.st48{fill:#8490FE;}
	.st49{fill:#7F8BFE;}
	.st50{fill:#7A88FE;}
	.st51{fill:#818DFE;}
	.st52{fill:#7F8CFE;}
	.st53{fill:#7986FE;}
	.st54{fill:#7684FE;}
	.st55{fill:#AEB7FE;}
	.st56{fill:#A8B2FE;}
	.st57{fill:#A2ACFE;}
	.st58{fill:#ADB6FE;}
	.st59{fill:#A1ABFE;}
	.st60{fill:#A4AEFE;}
	.st61{fill:#9FA9FE;}
	.st62{fill:#9EA9FE;}
	.st63{fill:#9BA6FE;}
	.st64{fill:#99A3FE;}
	.st65{fill:#919CFE;}
	.st66{fill:#95A0FE;}
	.st67{fill:#FECBC6;}
	.st68{fill:#BEC4FE;}
	.st69{fill:#A0AAFE;}
	.st70{fill:#ABB4FE;}
	.st71{fill:#A4ADFE;}
	.st72{fill:#A3ACFE;}
	.st73{fill:#9AA4FE;}
	.st74{fill:#9CA6FE;}
	.st75{fill:#9CA7FE;}
	.st76{fill:#E0A465;}
	.st77{fill:#E1A466;}
	.st78{fill:#E0A466;}
	.st79{fill:#475BAE;}
	.st80{fill:#A8B1FE;}
	.st81{fill:#97A2FE;}
	.st82{fill:#9EA8FE;}
	.st83{fill:#99A4FE;}
	.st84{fill:#5965DB;}
	.st85{fill:#FDCAC6;}
	.st86{fill:#F9BE82;}
	.st87{fill:#E5E9FC;}
	.st88{fill:#F8D1A8;}
	.st89{fill:#CEBCCF;}
	.st90{fill:#E2C4CA;}
	.st91{fill:#E5E9FD;}
	.st92{fill:#BEC3FE;}
	.st93{fill:#EDC2C7;}
	.st94{fill:#6E79DB;}
	.st95{fill:#CACFFD;}
</style>
<g>
	<path class="st0" d="M42.5,41.9c0.2,0,0.1-0.2,0.1-0.3c-0.8-1.6,0.1-3.4,1.8-3.7c0.2,0,0.2-0.1,0.3-0.3c0-0.8,0.3-1,1.1-1.2
		c0.6-0.1,1.2-0.2,1.8-0.2c1,0,2,0,3,0.5c0.2,0.1,0.4,0.3,0.4,0.6c0,0.8,0,1.5,0,2.3c0,0.2,0.1,0.3,0.3,0.3c0.7,0,1.5,0,2.2,0
		c0.4,0.1,0.9,0.2,1.3,0.3c0.5,0.2,0.7,0.3,0.7,0.9c0,1.4,0,2.8,0,4.3c0,0-0.1,0-0.1,0c-0.1-0.2-0.1-0.4-0.1-0.6c0-1,0-2,0-3
		c0-0.1,0-0.3,0-0.4c-0.5,0.1-0.6,0.3-0.6,0.7c0,0.9,0,1.8,0,2.7c0,0.6-0.1,0.7-0.7,0.7c-0.4,0-0.9-0.1-1.3,0.1
		c-0.8,0.1-1.7,0-2.5,0c-1.2,0-2.4,0-3.5,0c-0.2,0-0.4,0-0.6,0c-0.3-0.1-0.3-0.3-0.3-0.6c0-0.4,0-0.8,0-1.2c0-0.2,0.1-0.3-0.1-0.4
		c-0.2-0.1-0.5,0.2-0.6,0.4c-0.1,0.2,0,0.4,0,0.7c0,1.2,0,1.1-1.1,1.1c-0.6,0-1.3,0-1.9,0c-0.2,0-0.4,0-0.5-0.2
		c-0.1-0.2,0-0.3,0.1-0.4c0.1-0.1,0.2-0.2,0.3-0.2c0.5-0.4,0.8-0.8,0.7-1.4c0.2-0.2,0.6-0.2,0.9-0.4c-0.3-0.1-0.6-0.2-0.7-0.6
		c0-0.1-0.1,0-0.2,0c-0.2,0.1-0.3,0.1-0.5,0.1c-0.2,0-0.3-0.1-0.4-0.2c0-0.2,0.1-0.3,0.3-0.3C42,41.9,42.3,42,42.5,41.9z"/>
	<path class="st1" d="M42.5,43.4c0.2,0.3,0.1,0.7-0.1,1c-0.3,0.4-0.6,0.6-1,0.9c-0.1,0.3,0.1,0.2,0.3,0.2c0.6,0,1.3,0,1.9,0
		c0.5,0,1,0,1.5-0.1c0.3-0.1,0.6,0,0.9,0.1c2.3,0,4.5,0,6.8,0c0.2-0.1,0.4,0,0.6,0c0.4,0,0.9,0,1.3-0.1c0.2-0.1,0.5-0.1,0.7,0.1
		c0,0,0.1,0,0.1,0c0.9,0,1.7,0,2.6,0c0.2,0,0.4,0,0.4,0.2c0,0.3-0.2,0.2-0.4,0.2c-0.1,0-0.1,0-0.2,0c-18.5,0-36.9,0-55.4,0
		c-0.2,0-0.3,0-0.5,0c-0.1,0-0.3,0-0.3-0.2c0-0.2,0.1-0.2,0.3-0.2c0.7,0,1.3,0,2,0c0.1,0,0.2,0,0.2,0c0.1,0,0.1-0.1,0.2-0.1
		c0.8,0,1.5-0.1,2.2,0c0.2-0.1,0.5-0.1,0.7-0.1c3.5,0,6.9,0,10.4,0c1.2,0,2.3,0,3.5,0c-0.2-0.1-0.4-0.1-0.5-0.2
		c-0.3-0.1-0.6-0.2-0.9-0.4c-0.3-0.1-0.4-0.3-0.3-0.6c0.3-0.9,0.6-1,1.4-0.5c0.4,0.2,0.7,0.5,1,0.8c0.2,0.2,0.4,0.3,0.4,0.6
		c0.1,0.3,0.3,0.3,0.5,0.3c0.4,0,0.8,0,1.2,0c0.3,0,0.5-0.1,0.5-0.4c0-0.1,0.1-0.2,0.1-0.3c0.3-0.3,0.6-0.2,0.9-0.2
		c0.2,0,0.3,0,0.5,0.1c0.5,0.2,1.1,0.3,1.5,0.7c0.1,0.1,0.3,0.1,0.5,0.1c1.6,0,3.2,0,4.7,0c0.2,0,0.4-0.1,0.6-0.2
		c0.1-0.1,0.2-0.2,0.3-0.2c0.1,0,0.1,0,0.2,0c0.9,0.5,1.6,0.2,2.3-0.4c0.1-0.1,0.3-0.3,0.5-0.1c0.2,0.2,0.2,0.4,0.2,0.6
		c-0.1,0.3,0.1,0.3,0.3,0.3c0.7,0,1.5,0,2.2,0c0.1,0,0.2,0,0.4,0c0.2,0,0.2-0.2,0.2-0.3c0.1-0.1,0.2-0.3,0.4-0.3
		c0.7,0,1.2-0.5,1.5-1.3c0-0.1,0-0.3,0.2-0.3C42.3,43.2,42.4,43.2,42.5,43.4z"/>
	<path class="st0" d="M27.4,25.9c0.3,0.2,0.5,0.3,0.7,0.5c0.3,0.2,0.5,0.1,0.7-0.2c0.1-0.3,0.3-0.5,0.4-0.8c0.1-0.2,0.2-0.4,0.5-0.3
		c0.5,0,0.5,0.2,0.4,0.8c-0.1,0.7-0.3,1.4-0.7,2c-0.2,0.3-0.5,0.5-0.8,0.6c-0.3,0.1-0.6,0-0.9-0.1c-0.2,0-0.4-0.1-0.6-0.2
		c-0.1,0-0.3-0.2-0.3,0c-0.1,0.2,0,0.4,0.2,0.5c0.3,0.1,0.7,0.2,1,0.3c0.2,0.1,0.5,0.1,0.6,0.3c0.2,0.2,0.1,0.4,0.1,0.7
		c0,0.3-0.2,0.4-0.5,0.4c-0.4,0-0.7,0.1-1.1,0.1c-0.4,0-0.5,0.1-0.4,0.5c0,0.2,0,0.4,0,0.7c0,0.2-0.1,0.5-0.3,0.6
		c-0.1,0-0.1,0-0.1-0.1c0.1-0.4,0.1-0.8,0.1-1.2c0-0.2-0.1-0.3-0.3-0.3c-1.6-0.1-2.5-1-3.3-2.3c-0.3-0.4-0.4-0.9-0.2-1.4
		c0.2-0.7,0.8-1,1.4-0.6c0.7,0.4,1.1,1.1,1.5,1.7c0.1,0.2,0.2,0.3,0.4,0.5c0.3,0.2,0.5,0.1,0.5-0.3c0-1-0.1-2-0.9-2.8
		c-0.1-0.1-0.1-0.2-0.1-0.3C26.2,25.3,26.8,25.6,27.4,25.9z"/>
	<path class="st0" d="M25.6,25c0.9,0.9,1.1,2,1.1,3.1c0,0.2,0.1,0.4-0.1,0.5c-0.2,0.1-0.5,0.1-0.6-0.1c-0.3-0.4-0.6-0.8-0.9-1.2
		c-0.3-0.3-0.5-0.6-0.9-0.9c-0.3-0.2-0.6-0.3-0.9-0.1c-0.4,0.2-0.4,0.6-0.4,1c0.1,1.1,0.9,1.9,1.8,2.5c0.6,0.4,1.2,0.6,1.9,0.6
		c0.2,0,0.3,0.1,0.3,0.3c-0.1,0.4,0.2,0.9-0.2,1.3c-0.3,0.3-0.7,0.2-1,0.3c-0.9,0.1-1.8,0-2.7-0.2c0,0-0.1-0.1-0.1-0.1
		c-0.1-0.2-0.1-0.4-0.2-0.6c-0.1-0.1-0.1-0.3-0.1-0.4c0-0.4,0-0.8-0.2-1.1c-0.1-0.1-0.1-0.2,0-0.3c0-0.4,0-0.8-0.1-1.2
		c-0.1-0.1-0.1-0.2,0-0.3c0-0.4,0-0.7,0-1.1c-0.1-0.1-0.1-0.2,0-0.3c0-0.6,0.4-1.1,0.8-1.6c0.2-0.3,0.5-0.3,0.7-0.4
		c0.1,0,0.2,0,0.2,0c0.2,0.1,0.5,0.2,0.7,0c0.1-0.1,0.2,0,0.3,0C25.2,24.8,25.4,24.9,25.6,25z"/>
	<path class="st2" d="M54.6,22.1c0.1-0.2,0.1-0.4-0.2-0.3c-1.1,0.2-2.2-0.1-3.2,0.2c0,0-0.1,0-0.1,0c-2.4,0-4.7,0.2-7.1,0.3
		c-0.1,0-0.2,0-0.3,0c0.4-0.1,0.9-0.2,1.3-0.1c1.8,0,3.6-0.2,5.3-0.2c0.1,0,0.2,0,0.2,0c0.7-0.1,0.7-0.1,0.7-0.8
		c0-0.2,0-0.5,0.3-0.5c0.3-0.1,0.4,0.2,0.5,0.3c0.1,0.1,0.1,0.2,0.2,0.4c0.1-0.3,0.1-0.6,0.3-0.8c0.2-0.3,0.4-0.3,0.6,0
		c0,0.1,0,0.2,0.1,0.2c0.1,0,0.1-0.1,0.1-0.2c0-0.1,0-0.2,0-0.3c0-0.2-0.1-0.4,0.2-0.5c0.3-0.1,0.4,0,0.6,0.1
		c0.1,0.1,0.2,0.4,0.4,0.2c0.2-0.1,0.1-0.3,0.1-0.5c0-0.4,0-0.8,0-1.2c0-0.4,0.3-0.7,0.7-0.7c0.4,0,0.7,0.2,0.7,0.7
		c0,0.5-0.1,0.9-0.4,1.3c0,0.1-0.1,0.1-0.1,0.2c0,0.1,0.1,0.1,0.2,0.1c0.3-0.1,0.6-0.1,0.7,0.2c0.1,0.4,0,0.7-0.3,0.9
		c-0.2,0.2-0.4,0.3-0.7,0.4c0.6,0.2,0.8,0.4,0.7,0.9c0,0.3-0.5,0.8-0.8,0.8c-0.3,0-0.5,0.2-0.8,0c-0.1,0-0.2,0-0.2,0.1
		c-0.1,0.1,0,0.2,0.1,0.2c0.2,0.2,0.6,0.4,0.4,0.7c-0.1,0.3-0.5,0.4-0.8,0.4c-0.3,0-0.2,0.3-0.4,0.3c-0.1-0.1,0-0.3,0-0.4
		c0.2-0.7,0.5-1.4,0.7-2.1C54.4,22.2,54.5,22.1,54.6,22.1z"/>
	<path class="st3" d="M18.1,40.4c-0.5,0.6-1.1,1.1-1.6,1.7c-0.1,0.1-0.3,0.2-0.4,0.1c-0.8,0-1.6,0-2.4,0c-0.1,0-0.1-0.1-0.1-0.2
		c0.1-0.4,0.1-0.9,0.2-1.3c0.1-0.4,0-0.5-0.3-0.5c-0.1,0-0.1,0-0.2-0.1c-0.1-0.4,0.2-1,0.5-1.2c0.2-0.1,0.4,0,0.6,0.1
		c0.2,0.1,0.5,0.3,0.8,0.2c0.1,0,0.3,0,0.2-0.1c-0.1-0.4,0.1-0.4,0.4-0.4c0.1,0,0.2-0.2,0.2-0.3c0-0.3,0.1-0.4,0.3-0.6
		c0.2-0.1,0.2-0.4,0.2-0.6c0-0.1,0-0.3,0-0.4c0.2,0,0.2,0.1,0.2,0.2c0,0.4,0,0.8-0.3,1.1c-0.2,0.2-0.2,0.5-0.1,0.7
		c0.3,0.6,0.6,1.3,0.9,1.9c0.1,0.4,0.3,0.4,0.6,0.1C17.7,40.6,17.9,40.4,18.1,40.4C18.1,40.3,18.1,40.3,18.1,40.4
		C18.1,40.4,18.1,40.4,18.1,40.4z"/>
	<path class="st4" d="M10.3,39c0-0.3,0-0.5-0.4-0.6c-0.1,0-0.1-0.2-0.1-0.2c-0.3-0.2,0.3-0.5,0-0.6c-0.3-0.1-0.2-0.4-0.3-0.7
		c-0.1-0.4,0.1-0.6,0.5-0.6c0.4,0,0.2-0.2,0.1-0.3c0.2-0.1,0.3,0,0.4,0.1c0.3,0.2,0.5,0.6,0.9,0.7c0,0,0.1,0.1,0.1,0.1
		c0.1,0.4,0.4,0.4,0.7,0.4c0,0.1,0,0.1,0,0.2c0,0.3,0.1,0.6-0.1,0.9c-0.2,0.4-0.4,0.6-0.8,0.7c-0.1,0-0.2,0.1-0.3,0.1
		C10.8,39.3,10.6,39.1,10.3,39z"/>
	<path class="st2" d="M11.3,26.4c-0.1,0-0.3,0.2-0.4,0c-0.1-0.1,0-0.3,0.1-0.4c0.4-0.9,0.7-1.8,1-2.8c0.1-0.2,0.2-0.5,0.3-0.7
		c0.3,0.2,0.3,0.5,0.4,0.7c0.3,0.6,0.5,1.1,0.8,1.7c0.1,0.3,0.1,0.4-0.2,0.6C12.6,25.7,11.9,26.1,11.3,26.4z"/>
	<path class="st5" d="M16.4,36.7c0.2,0.5,0.1,1-0.3,1.3C16,38,15.9,38,15.9,38.1c0,0.5-0.1,0.7-0.6,0.6c0.1,0.4,0,0.5-0.4,0.5
		c-0.2,0-0.4-0.1-0.6-0.2c-0.2-0.2-0.5-0.2-0.6-0.6c0-0.2,0.1-0.4,0.3-0.5c0.2-0.1,0.4-0.3,0.2-0.5c-0.1-0.1,0-0.2,0.1-0.3
		c0.2-0.1,0.2-0.2,0.3-0.4c0.1-0.1,0.2-0.1,0.2-0.1c0.5-0.1,0.5-0.1,0.4-0.6c-0.1-0.3,0.1-0.4,0.4-0.4c-0.2,0.3-0.1,0.7,0.3,0.8
		C16,36.5,16.2,36.6,16.4,36.7z"/>
	<path class="st6" d="M13.2,40c0.1,0,0.2,0,0.4,0c0.4,0,0.4,0.1,0.3,0.5c-0.1,0.5-0.1,1.1-0.2,1.7c-0.6,0.1-1.2,0.1-1.7,0
		c-0.1-0.3-0.1-0.7-0.1-1c0-0.1,0-0.2,0-0.4c0,0,0-0.1,0-0.1c-0.2-0.6-0.2-0.6,0.5-0.6c0,0,0.1,0,0.1,0C12.6,39.9,12.9,39.8,13.2,40
		z"/>
	<path class="st7" d="M54.6,22.1c-0.3,0.9-0.6,1.8-0.9,2.7c-0.2,0.6-0.4,1.2-0.6,1.7c-0.7,2.2-1.5,4.4-2.2,6.6
		c0,0.1-0.1,0.5-0.3,0.2c0-0.5,0.3-1,0.4-1.4c0.3-0.9,0.6-1.9,0.9-2.8c0.3-0.8,0.5-1.5,0.8-2.3c0.4-1.1,0.8-2.2,1.1-3.3
		c0.1-0.5,0.3-1,0.5-1.5c0-0.1,0.1-0.2,0.2-0.1C54.6,21.9,54.6,22,54.6,22.1z"/>
	<path class="st8" d="M23.2,23.3c-0.9,0.4-1.9,0.8-2.8,1.2c-1.5,0.7-3,1.3-4.6,2c-0.8,0.3-1.5,0.7-2.3,1c-0.1,0.1-0.3,0.2-0.4,0
		c-0.1-0.2,0.1-0.2,0.2-0.3c1.2-0.6,2.5-1.1,3.7-1.7c1.5-0.7,3-1.3,4.5-2c0.3-0.2,0.7-0.3,1-0.4c0.2-0.1,0.4-0.2,0.2-0.4
		c-0.1-0.1,0-0.3,0.1-0.3C23.2,22.7,23.3,23,23.2,23.3z"/>
	<path class="st9" d="M24.9,24.7c-0.4,0.3-0.8,0.2-1.2,0c-0.1-0.2,0-0.3,0.1-0.4c0-0.2,0-0.4-0.2-0.6c0.1-0.2,0-0.3,0-0.4
		c-0.1-0.2,0-0.4,0.3-0.5c0.1,0,0.2,0,0.3-0.1c0.3-0.3,0.7-0.4,1.1-0.3c0,0.3,0,0.6,0,0.9c0,0.3-0.1,0.5-0.3,0.7
		C24.7,24.2,24.7,24.5,24.9,24.7z"/>
	<path class="st10" d="M19,15.2c0.1,0.5,0.1,0.7-0.5,1.1c0.3-0.1,0.6-0.2,0.7,0.2c0.1,0.3,0,0.6-0.4,0.6c-0.3,0-0.5,0-0.8,0
		c-0.3,0-0.6,0-0.5-0.4c0-0.3,0.2-0.4,0.5-0.4c0,0,0,0,0.1-0.1c-0.3-0.2-0.6-0.5-0.5-0.9C18,14.7,18.6,14.6,19,15.2z"/>
	<path class="st11" d="M13.2,40c-0.3,0-0.6,0-0.9,0c0-0.1,0-0.3,0-0.4c-0.2-0.6-0.3-0.7-1.1-0.5c0-0.1,0.1-0.1,0.2-0.2
		c0.4-0.1,0.6-0.3,0.7-0.7c0.2-0.3-0.1-0.6,0.1-0.9c0.2-0.1,0.3,0.1,0.3,0.2c0.1,0.2,0.3,0.3,0.3,0.6c0.3-0.1,0.5-0.3,0.8,0
		c-0.3,0.2-0.3,0.2-0.4,1c0.2-0.3,0.3-0.6,0.4-0.9c0.2,0,0.1,0.2,0.2,0.2c0,0.3,0.4,0.4,0.5,0.6c-0.6-0.2-0.7-0.1-0.9,0.6
		C13.3,39.7,13.2,39.9,13.2,40z"/>
	<path class="st8" d="M22.2,28c0,0.1,0,0.2,0,0.3c-1.3,0.5-2.6,1.1-3.9,1.7c-1,0.4-2,0.9-3,1.4c-0.1,0.1-0.3,0.1-0.4-0.1
		c-0.1-0.2,0.1-0.2,0.2-0.2c1.7-0.8,3.4-1.5,5.1-2.3C20.9,28.6,21.6,28.3,22.2,28z"/>
	<path class="st12" d="M25.6,22.2c0.5,1.1,0.9,2.1,1.4,3.1c-0.6-0.1-1-0.3-1.4-0.6c-0.3-0.2-0.6-0.4-0.2-0.9
		c0.2-0.3,0.1-0.9,0.1-1.3C25.5,22.5,25.5,22.4,25.6,22.2z"/>
	<path class="st13" d="M15.5,35.7c-0.2,0.1-0.6,0.1-0.2,0.5c0.2,0.2,0,0.6-0.3,0.6c-0.2,0-0.3,0.1-0.5,0c-0.3-0.2-0.5-0.4-0.3-0.8
		c0.1-0.1,0-0.3,0-0.5c0-0.3,0-0.5,0.2-0.8c0,0,0.1-0.1,0.1-0.1c0.2-0.1,0.4,0,0.6-0.1c0.2,0,0.3,0.2,0.4,0.3
		C15.5,35.2,15.5,35.5,15.5,35.7z"/>
	<path class="st1" d="M25.3,22.4c-0.3,0.1-0.5,0.1-0.8,0.2c-0.2,0-0.2,0.1-0.2,0.3c0,0.1-0.1,0.2-0.2,0.1c-0.1,0-0.2-0.2-0.3,0
		c-0.1,0.1,0,0.3,0,0.4c0.1,0.1,0.3,0.3-0.1,0.3c-0.1-0.1-0.3-0.3-0.4-0.4c-0.1-0.3-0.2-0.6-0.2-0.9c0.2-0.2,0.4-0.4,0.6-0.6
		c0.2-0.1,0.5-0.2,0.7-0.1c0.2,0,0.3,0.1,0.5,0C25.4,21.7,25.4,21.7,25.3,22.4C25.3,22.3,25.3,22.4,25.3,22.4z"/>
	<path class="st8" d="M22.8,32C22.8,32,22.8,32,22.8,32c0.1,0.2,0.1,0.3,0,0.3c-0.4,0.5-0.5,1.1-0.7,1.7c0,0.1,0,0.1-0.1,0.2
		c0,0-0.1,0.1-0.1,0.1c0.1-0.3,0-0.7,0.2-1c0-0.1,0-0.2,0-0.2c-0.1-0.1-0.2,0-0.3,0c-1.4,0.6-2.8,1.3-4.3,1.9
		c-0.2,0.1-0.4,0.2-0.6,0.3c-0.1,0-0.2,0.1-0.3,0c-0.1-0.1,0.1-0.2,0.2-0.3c0.5-0.2,0.9-0.4,1.4-0.6c0.9-0.4,1.9-0.8,2.8-1.2
		c0.3-0.1,0.5-0.3,0.8-0.4C22.3,32.6,22.5,32.3,22.8,32z"/>
	<path class="st8" d="M23.8,21.5c0,0.1-0.1,0.2-0.2,0.2c-1.3,0.6-2.5,1.1-3.8,1.7c-0.4,0.2-0.8,0.4-1.2,0.5c-0.1,0.1-0.3,0.2-0.4,0
		c-0.1-0.2,0.2-0.2,0.3-0.2c1.2-0.5,2.4-1.1,3.6-1.6c0.5-0.2,0.9-0.4,1.4-0.6C23.6,21.3,23.7,21.3,23.8,21.5z"/>
	<path class="st8" d="M15.9,28.1c-0.1,0-0.2,0-0.2-0.1c0-0.1,0.1-0.2,0.2-0.2c0.7-0.3,1.5-0.7,2.2-1c0.8-0.3,1.6-0.7,2.4-1
		c0.1,0,0.1,0,0.1-0.1c0.1,0,0.3-0.1,0.3,0c0.1,0.2-0.1,0.2-0.2,0.3c-0.4,0.2-0.8,0.4-1.2,0.6c-1.1,0.5-2.3,1-3.4,1.5
		C16.1,28.1,16,28.1,15.9,28.1z"/>
	<path class="st8" d="M19.2,21.9c-0.1,0.1-0.2,0.2-0.3,0.2c-1.6,0.7-3.1,1.4-4.6,2.1c-0.1,0.1-0.3,0.1-0.4,0
		c-0.1-0.2,0.1-0.2,0.2-0.3c1.1-0.5,2.3-1,3.5-1.5c0.4-0.2,0.8-0.4,1.2-0.5C19,21.8,19.1,21.8,19.2,21.9z"/>
	<path class="st8" d="M22.4,29.5c0.1,0.1,0,0.2,0,0.3c-1.1,0.5-2.2,1-3.3,1.5c-0.5,0.2-0.9,0.4-1.4,0.6c-0.1,0.1-0.2,0.2-0.3,0
		c-0.1-0.2,0.1-0.2,0.2-0.3c0.5-0.2,1-0.5,1.5-0.7C20.2,30.5,21.3,30,22.4,29.5z"/>
	<path class="st14" d="M11.7,40.8c0.1,0.5,0.2,0.9,0.2,1.4c-1.3,0.1-2.6,0-3.9,0.1c-0.4,0-0.9-0.2-1.3,0c0,0-0.1,0-0.1,0
		c0.1-0.1,0.2-0.2,0.4-0.3c0.2-0.2,0.4-0.3,0.6,0c0.1,0.1,0.2,0.2,0.3,0.1c0.2-0.1,0-0.1,0-0.2c0-0.2,0.3-0.3,0.4-0.4
		c0.1-0.1,0.3-0.2,0.5-0.1c0.2,0.1,0.1,0.3,0,0.4c-0.2,0.2-0.1,0.3,0.2,0.3c0.7,0,1.5,0,2.2,0c0.7,0,0.7-0.1,0.6-0.7
		C11.7,41.2,11.7,41,11.7,40.8z"/>
	<path class="st15" d="M16.3,34.2c-0.1,0-0.1,0-0.2-0.1c0-0.2,0.1-0.2,0.2-0.3c0.4-0.2,0.8-0.3,1.2-0.5c0.8-0.4,1.7-0.8,2.5-1.1
		c0,0,0.1,0,0.1,0c0.1,0,0.3-0.2,0.4,0c0.1,0.2-0.1,0.2-0.2,0.3c-1.3,0.6-2.5,1.1-3.8,1.7C16.4,34.1,16.3,34.1,16.3,34.2z"/>
	<path class="st16" d="M17.1,24.4c0,0.2-0.1,0.2-0.2,0.2c-1.3,0.6-2.5,1.1-3.8,1.7c-0.1,0-0.1,0.1-0.2,0.1c-0.1,0-0.2,0-0.2-0.1
		c0-0.1,0-0.1,0.1-0.2c0.2-0.2,0.4-0.2,0.6-0.3c1.1-0.5,2.3-1,3.4-1.6C16.9,24.3,17,24.3,17.1,24.4z"/>
	<path class="st17" d="M18.8,28.3c-0.1,0.1-0.1,0.2-0.2,0.2c-1.3,0.6-2.6,1.2-3.8,1.8c-0.1,0.1-0.3,0.1-0.3,0
		c-0.1-0.1,0.1-0.2,0.2-0.3c0.6-0.3,1.2-0.6,1.8-0.8c0.7-0.3,1.4-0.6,2.1-0.9C18.6,28.2,18.7,28.1,18.8,28.3z"/>
	<path class="st18" d="M21.9,35.9c0,0.1,0,0.3,0,0.4c-1.1,0.3-2.1,0.9-3.1,1.3c-0.2,0.1-0.5,0.2-0.7,0.3c-0.1,0-0.2,0.1-0.3,0
		c-0.1-0.2,0.1-0.2,0.2-0.2c0.9-0.4,1.7-0.8,2.6-1.2C21,36.3,21.5,36.1,21.9,35.9z"/>
	<path class="st18" d="M18.1,40.4C18.1,40.3,18.1,40.3,18.1,40.4c0.5-0.5,0.9-0.9,1.4-1.3c-0.4-0.3-0.5,0-0.7,0
		c-0.1,0-0.3,0.2-0.4,0c-0.1-0.2,0.2-0.3,0.3-0.3c0.4-0.2,0.8-0.4,1.2-0.5c0.6-0.2,1-0.7,1.4-1.2c0.2-0.2,0.4-0.3,0.5-0.5
		c-0.2,0.5-0.6,0.8-1,1.1c-0.8,0.8-1.6,1.6-2.4,2.4C18.3,40.2,18.2,40.3,18.1,40.4z"/>
	<path class="st8" d="M8.1,30.9c0.1-0.1,0.1-0.1,0.2-0.2c0.1-0.1,0.1-0.3,0.2-0.2c0.1,0,0.2,0.2,0.3,0.3c0,0,0,0.1,0,0.1
		c-0.3,0.2-0.2,0.4,0,0.6c0.2,0.2,0.3,0.4,0.1,0.6c-0.3,0.4-0.5,0.5-0.8,0.3c-0.1-0.1-0.2-0.1,0-0.2c0.3-0.2,0.3-0.4,0.1-0.6
		C8,31.4,8,31.2,8.1,30.9C8,30.9,8,30.9,8.1,30.9z"/>
	<path class="st17" d="M20,21.7c-0.1,0-0.2,0-0.2-0.1c0-0.1,0.1-0.1,0.1-0.2c0.4-0.2,0.8-0.4,1.3-0.6c0.5-0.2,1.1-0.5,1.6-0.7
		c0.1-0.1,0.3-0.1,0.4,0c0.1,0.1-0.1,0.2-0.3,0.2c-0.9,0.4-1.8,0.8-2.8,1.2C20.1,21.6,20,21.7,20,21.7z"/>
	<path class="st19" d="M23.8,24.3c0,0.1,0,0.3-0.1,0.4c-0.2,0.1-0.5,0.2-0.7,0.3c-0.4,0.1-0.8,0.3-1.1,0.4c-0.1,0-0.2,0.2-0.3,0
		c-0.1-0.2,0.1-0.2,0.2-0.3C22.4,24.9,23.1,24.6,23.8,24.3z"/>
	<path class="st8" d="M21.9,34.4c0,0.1,0,0.2,0,0.3c-0.6,0.1-1.1,0.5-1.6,0.7c-0.3,0.1-0.6,0.3-0.9,0.4c-0.1,0.1-0.2,0.1-0.2,0
		c-0.1-0.1,0-0.2,0.1-0.2C20.1,35.1,21,34.7,21.9,34.4z"/>
	<path class="st8" d="M22.2,26.6c0,0.1,0,0.2,0,0.3c-0.6,0.3-1.3,0.6-1.9,0.8c-0.1,0.1-0.3,0.1-0.4,0c-0.1-0.2,0.1-0.2,0.2-0.3
		C20.8,27.2,21.5,26.9,22.2,26.6z"/>
	<path class="st3" d="M50,21.2c-0.1,0-0.1-0.1-0.1-0.2c0.3-0.4,0-0.5-0.3-0.5c-0.2,0-0.2-0.1-0.1-0.2c0.2-0.2,0.4-0.4,0.7-0.3
		c0.3,0.1,0.4,0.3,0.2,0.5c-0.1,0.2-0.1,0.2,0.1,0.2c0.2,0,0.4,0,0.5,0.2C50.9,21,50.8,21,50.7,21C50.4,20.9,50.2,21,50,21.2z"/>
	<path class="st20" d="M31,12.9c0.2,0,0.4,0,0.4,0.2c0,0.2-0.1,0.3-0.3,0.3c-0.2,0-0.5,0.1-0.7,0.1c-0.1,0-0.3,0-0.3-0.2
		c0-0.1,0.1-0.2,0.2-0.2C30.6,13,30.8,13,31,12.9z"/>
	<path class="st21" d="M34.7,14.2c0,0.2-0.2,0.2-0.3,0.1c-0.2-0.1-0.5-0.3-0.7-0.5c-0.1-0.1-0.1-0.1-0.1-0.3c0-0.1,0.1-0.1,0.2-0.1
		c0.3,0.1,0.6,0.3,0.8,0.6C34.7,14.2,34.7,14.2,34.7,14.2z"/>
	<path class="st22" d="M28.3,14.7c0.1,0.4-0.3,0.7-0.5,1.1c0,0.1-0.2,0.1-0.3,0c-0.1-0.1-0.1-0.1-0.1-0.2c0.1-0.2,0.2-0.3,0.2-0.5
		C28,15,28,14.6,28.3,14.7z"/>
	<path class="st21" d="M29.7,13.7c0,0.1-0.1,0.2-0.1,0.2c-0.2,0.2-0.4,0.3-0.7,0.5c-0.1,0.1-0.2,0.1-0.3,0c-0.1-0.1,0-0.2,0.1-0.3
		c0.2-0.2,0.4-0.3,0.6-0.5C29.5,13.5,29.6,13.5,29.7,13.7z"/>
	<path class="st23" d="M35.4,14.8c0.1,0.3,0.3,0.4,0.4,0.7c0,0.1,0.1,0.2-0.1,0.3c-0.1,0.1-0.2,0-0.3-0.1c-0.1-0.2-0.2-0.4-0.3-0.6
		C34.9,14.9,35,14.7,35.4,14.8C35.3,14.8,35.4,14.8,35.4,14.8z"/>
	<path class="st24" d="M32.3,12.9c0.2,0.1,0.5,0.1,0.7,0.2c0.1,0,0.2,0.1,0.2,0.3c0,0.1-0.1,0.2-0.3,0.1c-0.3,0-0.5-0.1-0.8-0.2
		c-0.1,0-0.2-0.1-0.2-0.2C32,12.9,32.1,12.9,32.3,12.9z"/>
	<path class="st25" d="M6.5,40.1c-0.1-0.1-0.4,0-0.4-0.2c0-0.1,0.5-0.4,0.7-0.4c0.2,0,0.3,0.1,0.3,0.2C7.1,39.9,6.8,40.1,6.5,40.1z"
		/>
	<path class="st26" d="M5.4,38c0.1,0.2,0.3,0.1,0.4,0.2c0.1,0.1,0.3,0.2,0.3,0.3c0,0.2-0.2,0.2-0.4,0.2c-0.4,0-0.4-0.3-0.6-0.5
		C5.1,38,5.3,38,5.4,38z"/>
	<path class="st27" d="M51.7,17.3c-0.3,0.1-0.6,0.2-0.5-0.3c0.2-0.2,0.4-0.3,0.6-0.6C51.9,16.8,51.9,17.1,51.7,17.3z"/>
	<path class="st28" d="M50,21.2c0.1-0.3,0.3-0.4,0.6-0.3c0.1,0,0.3,0.1,0.4,0.1C50.7,21.5,50.5,21.5,50,21.2z"/>
	<path class="st29" d="M5.7,39c0.2,0,0.4-0.2,0.6-0.3c0.1-0.1,0.3-0.1,0.4,0c0.1,0.1,0,0.2,0,0.3C6.3,39.4,6,39.4,5.7,39z"/>
	<path class="st26" d="M51,18.9c-0.1-0.1-0.4-0.2-0.2-0.5c0.3-0.1,0.5,0,0.8,0c0.1,0,0.2,0.1,0.1,0.2C51.5,18.9,51.3,19,51,18.9z"/>
	<path class="st30" d="M14,29c-0.1,0-0.1,0-0.2-0.1c0-0.1,0-0.1,0.1-0.2c0.3-0.1,0.6-0.3,0.9-0.4c0.1,0,0.2-0.1,0.3,0.1
		c0.1,0.1-0.1,0.2-0.1,0.2C14.6,28.7,14.3,28.8,14,29z"/>
	<path class="st18" d="M8.2,41.1c-0.1,0-0.3,0-0.3-0.2c0-0.2,0.3-0.4,0.5-0.4c0.1,0,0.4,0,0.4,0.2C8.9,40.9,8.5,41.1,8.2,41.1z"/>
	<path class="st31" d="M16.5,32.1c0.1,0,0.2,0,0.2,0.1c0,0.1-0.1,0.1-0.1,0.2c-0.3,0.1-0.5,0.3-0.8,0.4c-0.1,0-0.2,0.1-0.3,0
		c-0.1-0.1,0.1-0.2,0.2-0.2C16,32.4,16.2,32.2,16.5,32.1z"/>
	<path class="st31" d="M17.4,36.6c-0.1,0-0.1,0-0.2-0.1c0-0.1,0-0.2,0.1-0.2c0.3-0.2,0.7-0.3,1-0.5c0,0,0.1,0,0.1,0.1
		c0,0,0,0.1,0,0.1C18.1,36.3,17.7,36.5,17.4,36.6z"/>
	<path class="st25" d="M7.5,40.2c-0.2,0-0.3,0-0.3-0.2c0-0.2,0.2-0.4,0.5-0.4c0.2,0,0.4,0.1,0.4,0.2C8,40.1,7.7,40.1,7.5,40.2z"/>
	<path class="st29" d="M51,19.9c0-0.1,0-0.1,0-0.2c0.2-0.3,0.5-0.2,0.7-0.2c0.2,0,0.2,0.1,0.2,0.2C51.6,20,51.3,20.1,51,19.9z"/>
	<path class="st32" d="M22.5,31c0.1,0.1,0.1,0.3,0.1,0.4c-0.2,0.1-0.4,0.2-0.6,0.3c-0.1,0.1-0.3,0.1-0.4,0c-0.1-0.2,0.1-0.2,0.2-0.3
		C22.1,31.2,22.3,31.1,22.5,31z"/>
	<path class="st33" d="M51,18c0-0.1-0.3-0.1-0.2-0.3c0.1-0.1,0.2-0.1,0.4-0.1c0.2,0,0.5,0,0.7,0c-0.1,0.2-0.2,0.3-0.4,0.4
		C51.3,18.1,51.1,18.1,51,18L51,18z"/>
	<path class="st34" d="M17,14.9c-0.1,0.1-0.1,0.3-0.3,0.3c-0.1,0-0.1-0.1-0.1-0.1c0-0.2,0.1-0.3,0.2-0.3C17,14.8,17,14.9,17,14.9z"
		/>
	<path class="st35" d="M6.7,31.7c-0.1,0-0.2,0-0.2,0c0-0.2-0.1-0.5,0.1-0.5C6.8,31.2,6.6,31.5,6.7,31.7z"/>
	<path class="st36" d="M15.5,34.9c-0.3-0.4-0.7-0.2-1.1-0.2c0,0,0,0,0-0.1c0.2,0,0.3,0,0.5-0.1C15.2,34.5,15.4,34.6,15.5,34.9z"/>
	<path class="st37" d="M17.3,14.6c-0.1,0-0.1,0-0.1-0.1c0-0.2,0.2-0.2,0.3-0.3c0.1,0,0.2,0,0.1,0.1C17.5,14.5,17.4,14.6,17.3,14.6z"
		/>
	<path class="st38" d="M18.7,13.9c0.1,0,0.3,0.1,0.3,0.2c0,0.1-0.1,0.1-0.2,0.1c-0.1,0-0.3,0-0.3-0.2C18.5,14,18.6,14,18.7,13.9z"/>
	<path class="st39" d="M6.7,31c-0.1,0-0.1-0.1-0.1-0.2c0-0.2,0.1-0.3,0.3-0.3c0.1,0,0.1,0.1,0.1,0.1C6.9,30.8,6.8,30.9,6.7,31z"/>
	<path class="st2" d="M43.7,22.2c-0.3,0.1-0.5,0.1-0.8,0.1c-0.2,0-0.3,0-0.3,0.3c-0.1-0.1-0.2-0.2-0.1-0.3c0-0.1,0.2-0.1,0.3-0.1
		C43.1,22.2,43.4,22.2,43.7,22.2z"/>
	<path class="st40" d="M19.7,14.4c0,0.1,0,0.2-0.1,0.2c0,0,0,0,0,0c-0.1-0.1-0.4-0.1-0.3-0.3C19.4,14.1,19.5,14.4,19.7,14.4z"/>
	<path class="st41" d="M18.3,14.2c-0.1,0.1-0.2,0.1-0.3,0.1c-0.1,0-0.2,0-0.1-0.1c0-0.1,0.2-0.2,0.3-0.2C18.2,14,18.3,14,18.3,14.2z
		"/>
	<path class="st42" d="M7.5,30.1c0,0.2-0.2,0.2-0.3,0.3c-0.1,0-0.1,0-0.1-0.1c0-0.2,0.2-0.2,0.3-0.3C7.4,30,7.5,30,7.5,30.1z"/>
	<path class="st2" d="M42.7,22.6c0.2,0.2,0.4,0.4,0.4,0.7C42.9,23,42.7,22.8,42.7,22.6z"/>
	<path class="st3" d="M51,18c0.2,0,0.3,0,0.5,0C51.3,18.3,51.1,18.3,51,18z"/>
	<path class="st1" d="M39,30.6c0.5,0.9,0.7,1.9,0.6,2.9c-0.1,0.4,0,0.8-0.1,1.2c0,0.7,0,1.3,0.1,2c0,0.2,0,0.4-0.1,0.5
		c-0.1,0.2-0.3,0.3-0.5,0.4c-0.6,0.3-1.3,0.4-2,0.4c0,0-0.1,0-0.1,0c-0.6,0-1.2,0.1-1.8,0c-0.2-0.1-0.3-0.2-0.4-0.3
		c-0.2-0.9-0.1-1.8-0.1-2.8c0-0.4,0.1-0.8,0.1-1.2c0-0.1,0-0.1,0-0.2c0-0.1,0.1-0.3,0.3-0.4c0.3-0.1,0.5-0.3,0.8-0.6
		c0.6-0.4,1.3-0.8,1.9-1.3c0.2-0.2,0.4-0.4,0.7-0.6c0.2-0.1,0.3-0.3,0.5-0.3C38.9,30.4,38.9,30.5,39,30.6z"/>
	<path class="st0" d="M38.9,30.4c-0.5,0.3-0.8,0.7-1.2,1c-0.6,0.4-1.1,0.9-1.7,1.2c-0.2-0.2-0.4-0.4-0.5-0.7
		c0.1-0.3,0.4-0.5,0.6-0.7c0.2-0.2,0.3-0.3,0.5-0.5c0.2-0.3,0.5-0.6,0.8-0.9c0.2-0.2,0.2-0.4,0.2-0.6c-0.2-0.7-0.5-1.4-0.7-2.2
		c0-0.2-0.1-0.4,0-0.7c0.1-0.7,0.8-1.1,1.5-0.9c0.2,0.1,0.3,0.2,0.4,0.3c0.3,0.4,0.4,0.8,0.5,1.3c0,0.1,0,0.3,0.1,0.4
		c0,0.1,0,0.1,0,0.2c-0.1,0.2,0,0.4,0,0.6C39.3,29,39.4,29.7,38.9,30.4z"/>
	<path class="st43" d="M31.5,19.5c0,0-0.1-0.1-0.2-0.1c-0.6-0.4-1.3-0.9-1.9-1.3c-0.2-0.1-0.2-0.3-0.1-0.4c0,0,0.1-0.1,0.1-0.1
		c0.6-0.7,0.6-0.7,1.3-0.1c0.2,0.2,0.4,0.5,0.7,0.5c0.3,0,0.4-0.4,0.5-0.6c0.5-0.6,0.9-1.2,1.4-1.9c0.2-0.2,0.3-0.3,0.5-0.1
		c0.3,0.3,0.5,0.6,0.8,0.8c0.2,0.1,0.2,0.3,0,0.5c-0.6,0.6-1.2,1.1-1.8,1.6c-0.3,0.3-0.7,0.6-1,0.9C31.7,19.4,31.6,19.5,31.5,19.5z"
		/>
	<path class="st0" d="M32.3,28.7c0.5-0.2,1-0.3,1.5-0.5c0.2-0.1,0.3-0.1,0.4-0.3c0.5-0.9,1.1-1.6,1.7-2.4c0.1,0,0.1,0,0.1,0
		c0,0.1,0,0.2,0,0.3c-0.4,1-0.3,2.1-0.3,3.1c0,0.3,0.2,0.7-0.2,1c-0.3-0.1,0-0.4-0.1-0.6c-0.1-0.2-0.2,0-0.3,0
		c-0.3,0.2-0.5,0.3-0.8,0.3c-0.9,0.2-1.8,0.2-2.7,0.4c-0.1,0-0.2,0-0.3,0c-0.3,0-0.5-0.2-0.6-0.5c-0.2-0.3,0.1-0.4,0.3-0.5
		c0,0,0.1,0,0.1,0C31.5,28.9,31.9,28.8,32.3,28.7z"/>
	<path class="st1" d="M39.2,27.6c0,0-0.1-0.1-0.1-0.1C39,27.2,39,26.9,39,26.6c0-0.7-0.4-1.3-0.8-1.9c-0.1-0.5-0.2-1.1,0.3-1.6
		c-0.3,0.1-0.4,0.1-0.6,0c-0.3-0.4-0.7-0.4-1.1-0.2c0-0.3-0.1-0.6,0.1-0.9c0.5-0.5,0.7-0.5,1.3-0.1c0,0,0,0,0.1,0
		C39,22,39,22.6,39,23.1c0,0.4,0,0.8,0.4,1.2c0.1,0.1,0.2,0.3,0.2,0.5c0,0.4,0.1,0.9,0.3,1.3c0.2,0.5,0.1,0.9-0.3,1.2
		C39.4,27.3,39.3,27.5,39.2,27.6z"/>
	<path class="st44" d="M31,29.1c-0.3,0.4-0.2,0.7,0.3,0.9c-0.4,0.3-0.8,0.5-1.3,0.5c-0.2,0-0.3,0-0.5,0c-0.4-0.2-0.9-0.1-1.3,0
		c-0.3,0-0.6,0.1-0.8,0.1c-0.3,0-0.4,0.1-0.4,0.4c0,0.2,0.1,0.5-0.2,0.6c0-0.3,0-0.5-0.1-0.8c-0.1-0.3,0.1-0.5,0.4-0.5
		c0.4,0,0.7-0.1,1.1-0.1c0.4,0,0.5-0.2,0.5-0.6c0-0.1,0-0.3-0.1-0.4c0.2-0.1,0.2,0.1,0.3,0.2c0.3,0.1,0.5-0.2,0.8-0.2
		c0.2-0.1,0.5-0.3,0.6,0.1c0.1,0.1,0.2,0.1,0.3,0C30.8,29.2,30.9,29.1,31,29.1z"/>
	<path class="st45" d="M36.9,22c-0.1,0.3-0.2,0.5-0.1,0.8c0.2-0.2,0.9-0.1,1.1,0.2c0.1,0.2,0.2,0.4,0.4,0.1c0-0.1,0.1-0.1,0.2,0
		c0.1,0.1,0.1,0.2,0,0.3c-0.5,0.4-0.3,0.9-0.3,1.4c-0.1,0.3-0.4,0.3-0.6,0.3c-0.2,0-0.4-0.1-0.4-0.3c0.1-0.3,0.1-0.5-0.2-0.7
		c-0.2-0.1-0.2-0.4-0.3-0.6c0.2-0.3,0-0.7,0.1-1C36.7,22.3,36.7,22.1,36.9,22z"/>
	<path class="st46" d="M29,29.4c-0.1,0-0.2-0.2-0.3-0.2c-0.5-0.2-1.1-0.4-1.6-0.4c-0.1,0-0.3-0.1-0.3-0.2c0-0.2-0.1-0.4,0-0.6
		c0-0.1,0.1,0,0.2,0c0.5,0.3,1.1,0.4,1.7,0.5C28.8,28.8,29,29.1,29,29.4z"/>
	<path class="st47" d="M30.2,25.9c0-0.5-0.1-0.6-0.5-0.7c-0.2,0-0.3,0.1-0.4,0.3c0,0,0-0.1,0-0.1c0.3-0.3,0.4-0.8,0.3-1.2
		c0-0.1,0-0.2,0.1-0.2c0.2,0.1,0.3-0.1,0.4-0.2c0.1-0.1,0.2-0.3,0.3-0.2c0.1,0.1,0.2,0.2,0.2,0.3c0,0,0,0.1,0,0.1
		C30.5,24.6,30.4,25.2,30.2,25.9z"/>
	<path class="st1" d="M36.6,23.5c0.1,0,0.2,0.1,0.2,0.2c0,0.2,0.1,0.3,0.3,0.4c0.3,0.1,0.3,0.3,0.1,0.5c-0.1,0.2-0.3,0.2-0.5,0.3
		c-0.3,0.1-0.5,0.4-0.8,0.5c0,0-0.1,0-0.1,0c0-0.4,0-0.7,0.3-0.9c0.2-0.2,0.3-0.4,0.3-0.7C36.6,23.7,36.5,23.6,36.6,23.5z"/>
	<path class="st8" d="M43.5,17.3c0.1,0,0.2,0.1,0.3,0.2c0.1,0.1,0.1,0.1,0,0.2c-0.2,0.2-0.1,0.4,0.1,0.6c0.4,0.4,0.2,0.9-0.3,1
		c-0.2,0-0.4-0.1-0.5-0.2c-0.1-0.2,0.1-0.2,0.2-0.2c0.2-0.1,0.2-0.4,0-0.6c-0.2-0.1-0.3-0.3-0.2-0.5C43.2,17.6,43.4,17.4,43.5,17.3z
		"/>
	<path class="st48" d="M31.6,22c-0.2-0.1-0.6,0.1-0.6-0.3c0-0.4,0.4-0.2,0.6-0.2c0.2,0,0.6-0.1,0.6,0.2C32.3,22.1,31.9,21.9,31.6,22
		z"/>
	<path class="st49" d="M35.7,16.9c0-0.1-0.2-0.5,0.2-0.5c0.3,0,0.2,0.3,0.3,0.5c0,0.1,0,0.3,0,0.4c0,0.2,0,0.3-0.2,0.3
		c-0.2,0-0.2-0.1-0.2-0.3C35.7,17.2,35.7,17.1,35.7,16.9z"/>
	<path class="st20" d="M29,20.6c0,0.2-0.2,0.3-0.4,0.2c-0.3-0.2-0.5-0.4-0.6-0.7c-0.1-0.1,0-0.3,0.2-0.3C28.3,19.8,29,20.5,29,20.6z
		"/>
	<path class="st50" d="M35.2,19.8c0.2,0,0.2,0.2,0.1,0.3c-0.1,0.3-0.4,0.5-0.6,0.7c-0.1,0.1-0.2,0-0.3,0c-0.1-0.1-0.1-0.1,0-0.2
		C34.6,20.3,34.8,20,35.2,19.8C35.1,19.8,35.2,19.8,35.2,19.8z"/>
	<path class="st51" d="M30.5,21.5c0,0.2-0.1,0.3-0.3,0.2c-0.3-0.1-0.5-0.2-0.8-0.4c-0.1,0-0.1-0.1-0.1-0.2c0-0.1,0.1-0.2,0.2-0.1
		c0.3,0.1,0.6,0.2,0.9,0.4C30.5,21.4,30.5,21.5,30.5,21.5z"/>
	<path class="st52" d="M33.1,21.7c-0.1,0-0.2,0-0.3-0.1c0-0.1,0-0.2,0.1-0.2c0.3-0.1,0.5-0.2,0.8-0.4c0.1,0,0.2,0,0.3,0.1
		c0,0.1,0,0.2-0.1,0.3C33.7,21.6,33.4,21.7,33.1,21.7z"/>
	<path class="st21" d="M36.1,18.5c0,0.2-0.1,0.4-0.2,0.7c0,0.1-0.2,0.2-0.3,0.1c-0.2,0-0.2-0.2-0.1-0.3c0.1-0.2,0.1-0.4,0.2-0.6
		c0-0.1,0.1-0.3,0.3-0.3C36.1,18.2,36.1,18.4,36.1,18.5z"/>
	<path class="st53" d="M27.3,18.5c0-0.1,0-0.2,0.1-0.3c0.1,0,0.3,0,0.3,0.2c0.1,0.3,0.2,0.5,0.2,0.8c0,0.1,0,0.2-0.1,0.3
		c-0.1,0-0.2-0.1-0.3-0.1C27.4,19,27.3,18.7,27.3,18.5z"/>
	<path class="st54" d="M27.6,16.7c0,0.2,0,0.5,0,0.7c0,0.2-0.1,0.3-0.2,0.3c-0.2,0-0.2-0.1-0.2-0.3c0-0.2,0-0.5,0-0.7
		c0-0.2,0.1-0.2,0.3-0.2C27.6,16.4,27.6,16.5,27.6,16.7z"/>
	<path class="st55" d="M45.4,18.2c0,0.1,0,0.2-0.2,0.2c-0.2,0-0.2-0.2-0.2-0.3c0-0.1,0-0.2,0.2-0.2C45.4,17.9,45.4,18.1,45.4,18.2z"
		/>
	<path class="st56" d="M41.9,19c0,0.1,0,0.2-0.1,0.2c-0.2,0-0.2-0.2-0.2-0.3c0-0.1,0-0.2,0.1-0.2C41.8,18.7,41.9,18.8,41.9,19z"/>
	<path class="st42" d="M16.8,16.7c-0.2-0.1-0.2-0.2-0.2-0.4c0-0.1,0-0.2,0.1-0.2c0.1,0,0.2,0.1,0.2,0.3
		C16.9,16.6,16.9,16.7,16.8,16.7z"/>
	<path class="st57" d="M43.5,20.3c-0.1,0-0.3,0-0.3-0.1c0-0.2,0.2-0.1,0.3-0.1c0.1,0,0.3,0,0.3,0.1C43.7,20.3,43.6,20.3,43.5,20.3z"
		/>
	<path class="st58" d="M44.4,16.7c0.2,0,0.3,0.1,0.3,0.3c0,0.1-0.1,0.1-0.1,0.1c-0.1,0-0.3-0.1-0.3-0.3
		C44.2,16.7,44.3,16.7,44.4,16.7z"/>
	<path class="st59" d="M18.4,17.6c0.1,0,0.3,0,0.3,0.1c0,0.2-0.2,0.1-0.3,0.1c-0.1,0-0.3,0-0.2-0.1C18.2,17.5,18.3,17.6,18.4,17.6z"
		/>
	<path class="st60" d="M42.1,17.4c0,0.1-0.1,0.3-0.3,0.3c-0.1,0-0.1-0.1-0.1-0.1c0-0.2,0.1-0.3,0.3-0.3C42,17.2,42,17.3,42.1,17.4z"
		/>
	<path class="st57" d="M42.6,16.8c-0.1,0.1-0.2,0.2-0.4,0.3c-0.1,0-0.1-0.1-0.1-0.1c0-0.2,0.2-0.2,0.4-0.3
		C42.6,16.7,42.6,16.8,42.6,16.8z"/>
	<path class="st61" d="M17.3,17.1c0,0.1,0,0.2-0.1,0.2c-0.2,0-0.2-0.1-0.3-0.3c0-0.1,0-0.1,0.1-0.1C17.2,16.9,17.2,17,17.3,17.1z"/>
	<path class="st44" d="M32.3,28.7c-0.4,0.2-0.8,0.3-1.1,0.4C31.5,28.8,31.9,28.7,32.3,28.7z"/>
	<path class="st62" d="M44.9,19.5c0,0.1-0.1,0.2-0.3,0.2c-0.1,0-0.1,0-0.1-0.1c0-0.1,0.1-0.2,0.3-0.3C44.9,19.4,45,19.4,44.9,19.5z"
		/>
	<path class="st63" d="M42.3,19.7c0,0.1-0.1,0.1-0.1,0.1c-0.2,0-0.2-0.2-0.3-0.3c0-0.1,0-0.1,0.1-0.1C42.2,19.4,42.2,19.6,42.3,19.7
		z"/>
	<path class="st64" d="M20,16.9c-0.1,0.2-0.1,0.4-0.3,0.4c0,0-0.1-0.1-0.1-0.1C19.6,17,19.7,16.9,20,16.9z"/>
	<path class="st65" d="M41.7,18.4c-0.1-0.2-0.1-0.3,0-0.5C41.8,18.1,41.7,18.3,41.7,18.4z"/>
	<path class="st66" d="M16.6,16c-0.1-0.2-0.1-0.3,0-0.5C16.8,15.7,16.8,15.8,16.6,16z"/>
	<path class="st67" d="M37.1,37.9c0.7-0.1,1.3-0.2,2-0.4c0.2-0.1,0.3-0.2,0.5-0.3c0.3,1.2,0.8,2.3,1.3,3.4c0.1,0.2,0.2,0.5,0.3,0.7
		c0.2,0.6,0.2,0.6,0.9,0.6c0.1,0,0.3,0,0.4,0c-0.2,0.1-0.4,0-0.6,0.1c-0.1,0-0.3,0-0.3,0.3c0,0.2,0.2,0.2,0.3,0.1
		c0.2-0.1,0.4,0,0.6-0.2c0.1-0.1,0.3,0,0.3,0.2c0,0.3,0.1,0.4,0.4,0.4c0.1,0,0.3,0.1,0.3,0.2c0,0.1-0.2,0.3-0.3,0.2
		c-0.3,0-0.4,0.2-0.7,0.2c-0.3-0.2-0.4-0.2-0.4,0.2c0,0.6-0.7,1.2-1.2,1.3c-0.1,0-0.2,0-0.3-0.1c-0.2-0.2,0-0.4,0.1-0.5
		c0.4-0.8,0.4-1.1-0.2-1.7c-0.1-0.1-0.2-0.2-0.3-0.3c0-0.3-0.1-0.5-0.3-0.8c-0.7-1.1-1.4-2.2-2-3.4c-0.1-0.1-0.2-0.2-0.4-0.2
		C37.3,38,37.2,38,37.1,37.9z"/>
	<path class="st68" d="M54.7,34.5c0,0.4-0.3,0.6-0.6,0.7c-0.5,0-0.8-0.3-0.8-0.7c0-0.4,0.4-0.7,0.7-0.7
		C54.4,33.8,54.7,34.1,54.7,34.5z"/>
	<path class="st68" d="M54,36c-0.2,0-0.3,0-0.5,0c-0.3,0-0.4-0.1-0.3-0.4c0-0.3,0.2-0.4,0.4-0.3c0.3,0.1,0.5,0.1,0.8,0
		c0.3-0.1,0.4,0.1,0.4,0.3c0,0.3-0.1,0.4-0.4,0.4C54.3,36,54.2,36,54,36z"/>
	<path class="st58" d="M52.3,34.4c0.1,0.2,0.2,0.4,0,0.5c0,0-0.2,0-0.2,0C52,34.7,52.1,34.5,52.3,34.4z"/>
	<path class="st69" d="M53.5,36.6c0,0.1-0.1,0.1-0.1,0.1c-0.1,0-0.3-0.1-0.3-0.3c0-0.1,0.1-0.1,0.1-0.1
		C53.3,36.4,53.5,36.4,53.5,36.6z"/>
	<path class="st42" d="M56,34.7c0,0.1,0,0.3-0.2,0.2c-0.1,0-0.1-0.1-0.1-0.2c0-0.1-0.1-0.2,0.1-0.3C55.9,34.4,55.9,34.6,56,34.7
		C56,34.7,56,34.7,56,34.7z"/>
	<path class="st70" d="M52.8,36.3c-0.1-0.1-0.3-0.1-0.3-0.3c0-0.1,0-0.1,0.1-0.1c0.2,0,0.3,0.2,0.3,0.3
		C52.9,36.2,52.9,36.3,52.8,36.3z"/>
	<path class="st57" d="M52.9,33.6c-0.1,0-0.2,0-0.1-0.1c0.1-0.1,0.2-0.2,0.3-0.3c0.1,0,0.1,0,0.1,0.1C53.1,33.5,53,33.5,52.9,33.6z"
		/>
	<path class="st71" d="M54,33.1c-0.2,0.1-0.3,0.2-0.5,0.1c-0.1,0-0.1-0.1,0-0.1C53.6,33,53.7,33,54,33.1z"/>
	<path class="st72" d="M54,33.1c0.3-0.1,0.4-0.1,0.6,0c0,0,0,0.1,0,0.1C54.4,33.3,54.3,33.2,54,33.1z"/>
	<path class="st73" d="M55.8,35.2c0.1,0,0.1,0.1,0.1,0.1c0,0.1,0,0.3-0.2,0.3c-0.1,0-0.1-0.1-0.1-0.1C55.6,35.4,55.6,35.3,55.8,35.2
		z"/>
	<path class="st64" d="M52.6,33.9c0,0.1-0.1,0.3-0.2,0.3c-0.1,0-0.1-0.1-0.1-0.1c0-0.1,0.1-0.3,0.2-0.3
		C52.6,33.8,52.6,33.8,52.6,33.9z"/>
	<path class="st74" d="M54.7,36.7c-0.1,0-0.2,0-0.1-0.1c0-0.2,0.2-0.2,0.3-0.2c0.1,0,0.2,0,0.2,0.1C54.9,36.6,54.8,36.6,54.7,36.7z"
		/>
	<path class="st69" d="M55.6,36c0,0.1-0.1,0.2-0.3,0.2c-0.1,0-0.1,0-0.1-0.1c0.1-0.1,0.1-0.3,0.3-0.3C55.6,35.9,55.6,35.9,55.6,36z"
		/>
	<path class="st75" d="M52.3,35.1c0.1,0.2,0.2,0.3,0.1,0.5c0,0.1-0.1,0-0.1,0C52.2,35.5,52.2,35.3,52.3,35.1z"/>
	<path class="st76" d="M55.3,45.5c-0.9,0-1.8,0-2.6,0c0.4-0.2,0.9-0.1,1.3-0.1c0.4,0,0.5-0.2,0.5-0.5c0-1,0-1.9,0-2.9
		c0-0.3,0-0.6,0.4-0.6c0.1,0,0.3-0.2,0.5-0.3C55.3,42.6,55.3,44.1,55.3,45.5z"/>
	<path class="st77" d="M45.9,45.5c-1.6,0-3.2,0-4.8,0c0.1-0.2,0.2-0.2,0.3-0.2c0,0.2,0.2,0.2,0.3,0.2c0.9,0,1.8,0,2.7,0
		c0.3,0,0.4-0.1,0.3-0.4c0-0.4,0-0.8,0-1.3c0-0.2,0.7-0.7,0.9-0.6c0.1,0.1,0.1,0.2,0.1,0.3c0,0.5,0,1.1,0,1.6
		C45.8,45.3,45.8,45.4,45.9,45.5z"/>
	<path class="st78" d="M50.8,37.5c0,0.8,0,1.5,0,2.2c0,0.3-0.1,0.4-0.4,0.5C50,40.2,50,40,50,39.8c0-0.5,0-1,0-1.5
		c0-0.3,0.1-0.5,0.4-0.6C50.5,37.7,50.6,37.6,50.8,37.5z"/>
	<g>
		<path class="st1" d="M45.4,39.4c-0.2,0.1-0.5,0-0.5,0.3c0,0.3,0,0.5,0.3,0.7c0.4,0.3,0.4,0.8,0,1.1c0,0-0.1,0-0.1,0
			c-0.3,0.6-0.6,0.1-0.9,0.1c-0.1,0-0.2-0.1-0.1-0.2c0-0.1,0.1-0.2,0.1-0.1c0.2,0.1,0.4,0.1,0.4-0.2c0.1-0.3,0.1-0.5-0.2-0.8
			c-0.1-0.1-0.1-0.1-0.2-0.2C44,40,44,39.6,44.3,39.4c0,0,0.1,0,0.1,0C44.7,38.7,45,39.1,45.4,39.4z"/>
		<path class="st1" d="M51.4,41.3c0.2-0.2,0.3-0.1,0.4-0.1c0.1,0,0.2,0,0.2-0.1c0-0.1-0.1-0.2-0.2-0.2c-0.1,0-0.2,0-0.3-0.1
			c-0.1-0.1-0.1-0.2-0.1-0.2c0.3,0,0.6-0.4,1-0.2c0,0,0.1,0,0.1,0.1c-0.4,0.4,0.1,0.3,0.3,0.4c0.1,0.1,0.3,0,0.3,0.2
			c0,0.2-0.2,0.2-0.3,0.2C52.4,41.6,51.9,41.4,51.4,41.3z"/>
		<path class="st1" d="M47.1,37.6c0.1-0.2,0.3,0,0.3-0.2c0.1-0.2,0-0.3-0.2-0.3c-0.1,0-0.3,0-0.3-0.2c0-0.2,0.2-0.1,0.3-0.2
			c0.3-0.1,0.7-0.2,1,0c-0.1,0.1-0.4,0-0.3,0.3c0,0.1,0.2,0.1,0.4,0.2c0.1,0,0.2,0.1,0.3,0.1c0.1,0.1,0.1,0.3,0,0.3
			C48.1,37.6,47.7,38,47.1,37.6z"/>
	</g>
	<path class="st36" d="M14.3,34.7c-0.1,0.3-0.1,0.6,0,0.9c0.1,0.2,0.1,0.4,0,0.6c-0.1,0.1,0,0.2,0.1,0.2c0.1,0.1,0.2,0.2,0.2,0.3
		c0,0,0,0,0,0c0,0.3-0.6,0.5-0.1,0.9c0,0-0.2,0.3-0.4,0.4c-0.2,0.1-0.2,0.2-0.2,0.4c-0.1-0.1-0.1-0.2-0.2-0.2l0,0
		c0,0-0.1-0.1-0.1-0.1c-0.7,0.3-0.9-0.2-1.1-0.7c0,0-0.1,0-0.1-0.1c0-0.1,0-0.1,0-0.2c-0.1-0.2,0-0.3,0.1-0.5
		c0.1-0.2,0.1-0.4-0.2-0.4c-0.2,0-0.2-0.1-0.2-0.3c0-0.3,0-0.4-0.3-0.5c-0.3-0.1-0.3-0.3-0.1-0.5c0.1,0.1,0.1,0.4,0.4,0.3
		c0.1,0,0.2,0.1,0.2,0.2c0.2,0.5,0.2,0.5,0.8,0.5c0.1,0,0.1,0,0.2,0c0-0.7,0.1-0.9,0.9-1C14.1,35.1,14.1,34.8,14.3,34.7z"/>
	<path class="st79" d="M11.4,35c0,0.2-0.2,0.6,0.3,0.4c0.1,0,0.3,0.2,0.2,0.4c0,0.1,0,0.2-0.1,0.3c0.1,0.2,0.3-0.2,0.4,0
		c0.1,0.2,0.2,0.4,0,0.6c-0.1,0.1,0,0.3-0.1,0.4c-0.3,0.2-0.5,0.2-0.7-0.2c0-0.1-0.1-0.2-0.2-0.2c-0.5-0.1-0.7-0.6-1-0.9
		c0,0-0.1,0-0.2-0.1c0,0,0,0,0,0c-0.1-0.3-0.1-0.6,0-0.9c0.2-0.3,0.7-0.4,1.1-0.1C11.3,34.9,11.3,35,11.4,35z"/>
	<path class="st4" d="M10.1,35c0,0.3,0,0.6,0,0.9C9.8,35.6,9.9,35.3,10.1,35z"/>
	<path class="st80" d="M7.8,33.4c-0.2,0-0.4,0-0.5-0.2c0-0.1,0-0.1,0.1-0.1C7.6,33.1,7.8,33.2,7.8,33.4z"/>
	<path class="st81" d="M9.8,32.6c0.1,0,0.1,0.1,0.1,0.2c0,0.1-0.1,0.2-0.3,0.2c-0.1,0-0.1,0-0.1-0.1C9.5,32.8,9.7,32.7,9.8,32.6z"/>
	<path class="st82" d="M9.3,33.3c-0.1,0.1-0.2,0.1-0.3,0.2c0,0-0.1,0-0.1-0.1c0-0.2,0.2-0.2,0.3-0.2C9.2,33.1,9.2,33.2,9.3,33.3z"/>
	<path class="st83" d="M6.7,32c0,0,0,0.1,0.1,0.1c0,0.1,0.1,0.2,0,0.3c-0.1,0.1-0.1,0-0.2-0.1C6.5,32.2,6.4,32,6.7,32
		C6.7,32,6.7,32,6.7,32z"/>
	<path class="st1" d="M22,34.2c0.1-0.8,0.3-1.5,0.8-2.2c0.9,0.1,1.8,0.2,2.7,0.2c0.2,0.2,0.1,0.4,0.1,0.6c-0.1,0.8-0.3,1.6-0.4,2.5
		c-0.1,0.7-0.2,1.4-0.4,2.1c-0.2,0.2-0.3,0.5-0.4,0.8c-0.2,0.7-0.5,1.2-0.9,1.8c-0.7,1-1.4,2-2,2.9c-0.4,0.5-0.7,0.5-1.4,0.1
		c-0.1-0.4,0-0.7,0.1-1l0,0c0.2-0.4,0.2-0.8,0.4-1.2c0.2-0.6,0.6-1.1,0.9-1.7c0.5-0.9,0.5-1.8,0.5-2.8C22,35.6,22,34.9,22,34.2z"/>
	<path class="st84" d="M20.2,41.9c0.1,0.3-0.2,0.7,0,1c0,0.4-0.3,0.6-0.5,0.9c-0.4,0.5-0.9,1-1.4,1.4c-0.1,0.1-0.3,0.2-0.4,0.3
		c-3.7,0-7.5,0-11.2,0c0,0,0-0.1,0-0.1c0.2-0.2,0.4-0.2,0.6-0.2c3.3,0,6.6,0,9.8,0c0.3,0,0.6-0.1,0.8-0.3c0.6-0.7,1.3-1.3,1.9-2
		c0.1-0.1,0.2-0.3,0.2-0.4C20,42.3,20.1,42.1,20.2,41.9z"/>
	<path class="st84" d="M20.6,40.8c-0.1,0.4-0.2,0.8-0.4,1.2C20.2,41.5,20.3,41.1,20.6,40.8z"/>
	<path class="st3" d="M37.1,37.9c0.5-0.1,0.7,0.2,0.9,0.6c0.5,1.1,1.3,2.1,1.9,3.2c0.1,0.2,0.3,0.4,0.1,0.6
		c-0.1,0.2-0.4,0.3-0.5,0.5c-0.1,0.8,0,1.5,0,2.3c0,0.1,0,0.3,0,0.4c-0.9,0-1.9,0-2.9,0c0.3-0.4,0.2-0.7,0.1-1.1
		c-0.2-0.1-0.2-0.4-0.2-0.6c0-0.9,0.1-1.7,0.2-2.6c0.1-1,0.1-1.9,0.2-2.9C36.9,38.2,36.9,38,37.1,37.9
		C37.1,37.9,37.1,37.9,37.1,37.9z"/>
	<path class="st85" d="M37.1,37.9c-0.1,1.5-0.2,2.9-0.3,4.4c-0.1,0.7-0.2,1.5,0,2.2c-0.2,0-0.2,0.1-0.3,0.2
		c-0.5,0.5-1.1,0.7-1.8,0.7c-0.3,0-0.6-0.1-0.7-0.3c0.4-0.1,0.9-0.2,1.3-0.3c0.3,0,0.4-0.2,0.4-0.5c0-1.1-0.1-2.2-0.2-3.3
		c-0.1-1-0.3-2-0.2-3C35.8,37.9,36.4,37.9,37.1,37.9z"/>
	<path class="st86" d="M39.5,42.7c0.1-0.2,0.3-0.3,0.6-0.4c0.2,0,0.3,0.1,0.4,0.2c0.2,0.3,0.3,0.6,0.5,0.8c0.1,0.2,0,0.4-0.1,0.5
		c-0.1,0.3-0.4,0.6-0.4,1c-0.3,0.1-0.3,0.3-0.4,0.5c0,0.1,0,0.2-0.2,0.2c-0.1-0.1-0.2-0.2-0.3-0.3c-0.1-0.1-0.1-0.2,0.1-0.3
		c0.2,0,0.1-0.1,0.1-0.2c-0.1-0.1-0.6-0.3,0-0.5c0.1,0,0-0.1-0.1-0.2c-0.2-0.2-0.5-0.3,0.1-0.4c0.2,0,0-0.2,0-0.3
		C39.5,43.2,39.4,43,39.5,42.7z"/>
	<path class="st87" d="M17.9,45.5c0.6-0.6,1.2-1.2,1.7-1.8c0.2,0,0.1,0.1,0.1,0.2c-0.1,0.1-0.1,0.3-0.2,0.5c-0.1,0.2,0,0.4,0.2,0.4
		c0.3,0.1,0.6,0.2,0.9,0.3c0.3,0.1,0.7,0.2,1,0.3c0,0,0,0.1,0,0.1C20.4,45.5,19.1,45.5,17.9,45.5z"/>
	<path class="st88" d="M39.5,42.7c0,0.2,0.1,0.4,0.3,0.5c0.2,0.1,0.3,0.2,0.2,0.4c-0.1,0.3-0.3,0-0.4,0c-0.1,0.1,0.1,0.2,0.1,0.2
		c0.1,0.1,0.3,0.2,0.3,0.4c-0.1,0.2-0.3,0.1-0.4,0.1c0.1,0.3,0.6,0.3,0.4,0.7c-0.1,0.2-0.2-0.1-0.3,0c0,0.2,0.5,0.2,0.3,0.5
		c-0.1,0-0.3,0-0.4,0c-0.1-0.1-0.1-0.2-0.1-0.4c0-0.8,0-1.5,0-2.3C39.4,42.8,39.5,42.8,39.5,42.7z"/>
	<path class="st89" d="M20.7,45.1c-0.4,0-0.7-0.2-1-0.3c-0.2-0.1-0.2-0.3-0.2-0.5c0-0.2,0.3-0.4,0.1-0.6c0.2-0.2,0.4-0.5,0.6-0.8
		c0.1,0,0.2,0,0.3,0.1c0.4,0.2,0.8,0.2,1-0.2c0,0.3-0.2,0.5-0.5,0.6c-0.2,0.1-0.3,0.3-0.2,0.5c0,0,0,0,0,0c-0.9-0.4-0.8-0.4-1.2,0.5
		c-0.1,0.3,0,0.3,0.2,0.4C20.1,44.9,20.4,44.9,20.7,45.1z"/>
	<path class="st90" d="M24.8,44.7c0-0.2,0.2-0.5,0-0.8c0.2-0.1,0.4-0.1,0.5-0.1c0.3,0,0.6,0,0.7-0.4c0-0.1,0-0.2,0.2-0.2
		c0,0.4,0.1,0.7-0.4,0.9c-0.2,0.1-0.1,0.2,0,0.3c0.1,0.1,0.3,0,0.3,0.2c-0.3-0.1-0.7-0.1-1-0.1C25,44.5,24.9,44.6,24.8,44.7z"/>
	<path class="st1" d="M26.2,43.2c-0.3,0.9,0,0.7-1,0.7c-0.1,0-0.3,0-0.4,0c-0.2-0.1-0.1-0.2-0.2-0.4c-0.2-1.6-0.1-3.2,0.4-4.8
		c0-0.1,0-0.2,0.1-0.3c-0.2-0.3-0.5-0.7-0.4-1.1c0-0.7,0.2-1.4,0.3-2c0.2-1.1,0.5-2.1,0.5-3.2c0.3-0.1,0.7-0.1,1-0.2
		c0,0,0,0.1,0.1,0.1c0,0,0,0,0.1,0c0.1,0.3,0.1,0.6,0.2,0.9c0,0.2,0.1,0.3,0.1,0.5c0.1,0.8,0.3,1.6,0.3,2.4c0.1,0.7,0,1.4,0,2.1
		c0,0.3,0,0.5-0.1,0.8l0,0c-0.1,0.2,0,0.5-0.2,0.7C26.7,40.8,26.5,42,26.2,43.2z"/>
	<path class="st12" d="M26.8,33.6c0-0.2-0.1-0.4-0.1-0.5c-0.1-0.6-0.1-0.6,0.5-0.9c0.3-0.1,0.6-0.3,0.9-0.4
		c-0.3,0.1-0.6,0.2-0.9,0.3c-0.2,0.1-0.4,0.2-0.6,0.1c0,0,0,0,0,0c0.1-0.1,0.3-0.3,0.3-0.5c0.2-0.3,0.1-0.5,0.1-0.8
		c0-0.3,0.1-0.4,0.3-0.4c0.5,0,1.1-0.1,1.6-0.3c0.3-0.1,0.5,0.1,0.7,0.2c0.1,0.1,0.2,0.2,0.2,0.3c0.3,0.8,0.7,1.6,1.1,2.4
		c0.2,0.4,0.1,0.5-0.4,0.6c-0.6,0-1.1,0-1.7,0c-0.2,0-0.3,0-0.4-0.2c0-0.3,0.3-0.3,0.4-0.4c-0.6,0.2-1.1,0.5-1.6,0.6
		C27,33.7,26.9,33.7,26.8,33.6z"/>
	<path class="st91" d="M13.6,38.2c0.1,0.5-0.3,0.8-0.5,1.3c0-0.3,0-0.7,0.1-1C13.2,38.2,13.4,38.2,13.6,38.2
		C13.6,38.2,13.6,38.2,13.6,38.2z"/>
	<g>
		<path class="st0" d="M50.6,33.3c-1-1.3-1.9-2.6-2.9-3.9c-0.1-0.1-0.1-0.3-0.3-0.3c-0.2-0.2-0.4,0-0.5,0.1c-1.5,1-3,2.1-4.4,3.1
			c-0.7,0.5-1.4,1-2.1,1.5c-0.2,0.1-0.3,0.3-0.5,0.2c-0.2-0.1-0.1-0.4-0.1-0.6c0-0.9-0.1-1.7-0.5-2.5c0-0.1-0.1-0.2,0-0.3
			c0.1,0,0.2,0,0.3-0.1c1.9-1.3,3.8-2.6,5.6-3.9c0.3-0.2,0.3-0.3,0.1-0.6c-0.6-0.8-1.1-1.5-1.7-2.3c-0.1-0.1-0.2-0.3-0.3-0.3
			c0,0-0.1-0.1-0.1-0.1c-0.1-0.2-0.3-0.4-0.4-0.7l0,0c-0.1-0.2,0-0.3,0.2-0.3c0.3,0,0.6,0.1,0.9,0l0,0c0.7-0.1,1.5-0.1,2.2-0.1
			c1.7,0,3.4-0.2,5.1-0.2c1-0.4,2.1-0.1,3.1-0.3c0.4-0.1,0.5,0,0.5,0.4c-0.2,0-0.3,0.1-0.4,0.3c-0.7,2-1.3,3.9-2,5.9
			C51.7,29.9,51.2,31.6,50.6,33.3C50.6,33.2,50.6,33.3,50.6,33.3z"/>
		<path class="st0" d="M21.9,35.9c0-0.4,0-0.8,0-1.2c-0.1-0.1-0.1-0.2,0-0.3l0,0c0.1,0,0-0.3,0.2-0.1c-0.1,1.2,0.1,2.5-0.1,3.7
			c-0.1,0.5-0.2,0.9-0.5,1.3c-0.3,0.5-0.6,1-0.8,1.5c-0.2,0.4-0.3,0.8-0.4,1.2c0,0,0,0.1,0,0.1c0,0.9-0.6,1.4-1.1,1.9
			c-0.3,0.4-0.7,0.7-1,1c-0.3,0.3-0.6,0.4-1.1,0.4c-3.2,0-6.4,0-9.6,0c-0.3,0-0.5,0.1-0.8,0c-0.1-0.2-0.1-0.3-0.1-0.5
			c0-0.7,0-1.3,0-2c0-0.2,0.1-0.4,0.1-0.6C6.9,42,7.2,42,7.6,42.1c0.4,0.1,0.8,0,1.3,0.1c0.7,0,1.5,0,2.2,0c0.3,0,0.5-0.1,0.8-0.1
			c0.6,0.1,1.1,0.1,1.7,0c0.8,0,1.6,0,2.3,0c0.3,0,0.5,0,0.7-0.2c0.5-0.5,1-0.9,1.5-1.4c0.6-0.6,1.2-1.3,1.8-1.9
			c0.5-0.5,1.1-1,1.6-1.5c0.1-0.1,0.2-0.2,0.3-0.4c0-0.1,0.1-0.1,0.1-0.2C21.8,36.2,21.8,36,21.9,35.9z"/>
		<path class="st0" d="M39.5,34.7c0-0.4,0-0.8,0.1-1.2c0,0.1,0,0.1,0,0.2c0,0.3,0,0.3,0.3,0.2c1.3-0.9,2.7-1.9,4-2.8
			c1-0.7,2-1.4,3-2.1c0.2-0.2,0.3,0,0.4,0.2c-1.5,1.1-3,2.1-4.6,3.2c-1,0.7-2,1.4-3,2.1C39.7,34.4,39.6,34.5,39.5,34.7z"/>
		<path class="st0" d="M26.8,33.6c0.1,0,0.2,0,0.3,0c0.3-0.1,0.6-0.1,0.9-0.1c0.9,0.1,1.8,0.1,2.7,0.1c1.2-0.1,2.4,0,3.6-0.1
			c0.2,0,0.4,0,0.6,0.1c0,0.4,0,0.8-0.1,1.2c-0.1,0.5-0.1,1-0.1,1.6c0,0.5-0.1,0.5-0.5,0.5c-2.2,0-4.3,0-6.5,0
			c-0.3,0-0.5-0.1-0.5-0.5c0-0.2,0-0.4-0.1-0.6C27.1,35.1,27,34.3,26.8,33.6z"/>
	</g>
	<g>
		<path class="st3" d="M51,18c-0.3,0.1-0.4,0.2-0.1,0.4c0,0.2,0.1,0.3,0.2,0.5c-0.2,0-0.2,0.2-0.2,0.4c0,0.2,0.2,0.1,0.3,0.1
			c0.2,0,0.4,0,0.6,0c0.2,0,0.3,0.1,0.1,0.3c-0.4-0.2-0.6-0.2-0.9,0.1c0,0-0.1,0-0.1,0c-0.1-0.1,0-0.4-0.2-0.4
			c-0.2,0-0.5,0.1-0.7,0.2c-0.8,0.6-1.8,0.9-2.8,1c-1.1,0.2-2.2,0.1-3.3,0.3c-0.9,0.1-1.8,0.2-2.6,0.6c-0.6,0.2-0.8,0.6-0.8,1.3
			c0,0.5,0.4,1,0.9,1.1c0.7,0.2,1.4,0.2,2.1,0.2c0.2,0,0.2-0.1,0.1-0.3c-0.1-0.2-0.3-0.3-0.3-0.5c0.2,0,0.3,0.2,0.4,0.3
			c0.5,0.7,1,1.4,1.6,2.2c0.3,0.5,0.3,0.6-0.2,0.9c-0.9,0.6-1.8,1.3-2.8,1.9c-0.9,0.6-1.7,1.2-2.6,1.8c-0.2,0.1-0.4,0.3-0.6,0.1
			c-0.1-0.1-0.1-0.1-0.1-0.2c0,0,0-0.1,0-0.1c0.4-0.7,0.3-1.4,0.2-2.1c0-0.2,0-0.4,0-0.5c0.1-0.2,0.3-0.4,0.5-0.6
			c0.2-0.3,0.3-0.5,0.2-0.9c-0.2-0.4-0.2-0.8-0.3-1.2c0-0.3-0.1-0.5-0.3-0.7c-0.2-0.3-0.2-0.6-0.3-0.9c0-0.2,0-0.4,0-0.6
			c0-0.3-0.2-0.6-0.5-0.6c-0.1,0-0.1-0.1-0.2-0.1c-0.6-0.3-0.7-0.3-1.2,0.1c-0.2,0.1-0.1,0.3-0.1,0.5c0,0.3,0,0.6-0.1,0.9
			c-0.1,0.5-0.2,0.9-0.6,1.3C36,25,36,25.2,36,25.4c-0.2,0.5-0.7,0.9-1,1.4c-0.2,0.3-0.4,0.6-0.6,0.9c-0.1,0.3-0.4,0.5-0.7,0.6
			c-0.5,0.1-1,0.4-1.5,0.5c-0.4,0.1-0.8,0.2-1.1,0.4c0,0-0.1,0-0.1,0.1c-0.3,0.2-0.5,0.4-0.8,0c-0.1-0.1-0.4,0-0.5,0.1
			c-0.2,0.1-0.5,0.3-0.7,0.1c-0.1-0.3-0.3-0.6-0.3-0.9c1.1-0.6,1.2-1.6,1.5-2.6c0.1-0.2,0.1-0.5,0.1-0.7c0-0.2,0-0.4,0.1-0.5
			c0.1-0.2,0.1-0.3,0.2-0.5c0-0.2,0-0.3-0.1-0.4c-0.1-0.1-0.2,0.1-0.3,0.1c-0.4,0.2-0.5,0.5-0.5,0.9c0,0.3-0.3,0.5-0.3,0.7
			c-0.1,0.3-0.3,0.7-0.5,1c-0.2,0.2-0.4,0.3-0.6,0.1c-0.3-0.2-0.7-0.2-0.8-0.6c0.1-0.3-0.1-0.6-0.3-0.9c-1-2.3-2.1-4.6-3.1-7
			c-0.1-0.1-0.1-0.2-0.2-0.4c-0.1-0.3-0.4-0.3-0.7-0.2c-1.7,0.8-3.3,1.5-5,2.2c-0.8,0.4-1.6,0.7-2.3,1.1c-0.2,0.1-0.4,0.1-0.4-0.2
			c0-0.5-0.2-0.9-0.6-1.2c-0.3-0.3-0.6-0.7-0.8-1.1c-0.3-0.8,0.1-1.7,1-2.1c0.3-0.1,0.6-0.2,0.9-0.4c0.2-0.1,0.4,0,0.5-0.3
			c0-0.1,0.2-0.1,0.2-0.1c0.4,0.3,0.7,0,1-0.1c0.1,0.3,0.2,0.6,0.4,0.8c0.2,0.1,0.1,0.3-0.1,0.3c-0.2,0-0.4,0.1-0.3,0.3
			c0,0.3,0.3,0.2,0.4,0.3c0.2,0,0.5,0,0.7,0c0.2,0,0.3-0.1,0.3-0.3c0-0.2-0.1-0.3-0.3-0.3c-0.1,0-0.2,0-0.3-0.1
			c-0.1-0.1,0.1-0.2,0.2-0.2c0.3-0.2,0.2-0.6,0.3-0.8c0,0,0.1,0,0.1,0.1c0.2,0.1,0.5,0.1,0.6-0.1c0.2-0.2-0.1-0.3-0.2-0.5
			c0.1-0.1,0-0.2,0.1-0.2c0.4,0.5,0.7,0.8,1.4,0.8c2-0.1,4.1,0,6.1,0c0.2,0,0.4,0,0.6-0.1c0.1,0.2-0.2,0.4-0.1,0.7
			c0.4-0.2,0.4-0.7,0.6-1c0.2,0.5,0.6,0.4,1,0.4c1.7,0,3.3,0,5,0c0.3,0,0.5,0.1,0.6-0.3c0-0.1,0.2-0.3,0.4-0.1
			c-0.2,0.1-0.2,0.3-0.1,0.5c0.1,0.2,0.2,0.4,0.4,0.5c0.1-0.2,0-0.4-0.1-0.5c-0.1-0.1-0.2-0.2-0.1-0.4c0.3,0.3,0.7,0.3,1.1,0.3
			c3.6,0,7.2,0,10.8,0c0.6,0,1.2,0.1,1.8,0.3c0.8,0.3,1.3,0.9,1.5,1.7c0,0.1,0,0.4,0.3,0.4c0.2,0,0.3-0.2,0.3-0.4
			c0-0.1,0-0.1,0.1-0.2c0.1,0.2,0.3,0.2,0.5,0.3c-0.1,0.1-0.1,0.1-0.2,0.2c0.1,0.1,0.3,0,0.4,0.2c-0.2,0.1-0.4,0.1-0.6,0.1
			C51,17.7,50.9,17.8,51,18z"/>
		<path class="st3" d="M56,34.7c0.4,0.5,0.8,1,0.9,1.7c0.1,0.7-0.1,1.4-0.7,1.8c-0.4,0.3-0.8,0.4-1.2,0.6c-0.6,0.2-1.3,0.5-1.6,1.3
			c-0.1,0.1-0.3,0.1-0.4,0.1c-0.6,0-1.1,0-1.7,0c-0.5,0-0.6-0.1-0.6-0.6c0-0.7,0-1.3,0-2c0-0.5-0.1-0.6-0.6-0.8
			c-0.5-0.2-1-0.3-1.5-0.3c-0.6,0-1.2-0.1-1.8,0c-0.5,0-1,0.1-1.5,0.3c-0.5,0.1-0.7,0.3-0.7,0.9c0,0.3-0.2,0.4-0.4,0.5
			c-0.6,0.1-1.1,0.4-1.5,0.9c-0.5,0.8-0.5,1.6-0.2,2.4c0.1,0.2,0.2,0.4-0.1,0.5c-0.1,0-0.1,0-0.2,0c-1,0-1,0-1.3-0.8
			c-0.5-1.1-1-2.2-1.4-3.3c-0.1-0.2-0.1-0.5-0.1-0.7c0.1-0.3,0-0.7-0.1-1c-0.1-0.4-0.1-0.9,0-1.3c0.1-0.4,0.5-0.6,0.8-0.9
			c1.4-1,2.8-1.9,4.2-2.9c1-0.7,1.9-1.4,2.9-2c0.2,0,0.3,0.1,0.4,0.2c0.7,0.9,1.4,1.8,2,2.8c0.3,0.4,0.6,0.8,0.9,1.2
			c0.2,0,0.2-0.2,0.2-0.3c0.7-2,1.4-4,2-6c0-0.1,0-0.3,0.2-0.3c0,0.2,0,0.3,0.2,0.5c0.8,0.9,1.4,2,1.5,3.3c0.1,0.5-0.2,1-0.2,1.5
			c0,0.5,0,1.1,0.5,1.4C55.7,33.6,55.8,34.1,56,34.7c-0.1,0-0.1,0-0.2,0c0,0,0,0.1,0,0.1C55.9,34.8,55.9,34.7,56,34.7z"/>
		<path class="st3" d="M6.7,32c0.3-0.2,0.7-0.4,1-0.5C7.9,31.3,7.8,31.1,8,31c0.1,0.2,0.2,0.4,0.3,0.6c0.1,0.2,0.1,0.4,0,0.6
			c0,0.1-0.1,0.1,0,0.2c0,0,0.1,0.1,0.2,0c0.2-0.1,0.3-0.2,0.4-0.4c0.1-0.1,0-0.3-0.1-0.4c-0.2-0.2-0.3-0.4-0.2-0.7
			c0-0.1,0.2-0.2,0-0.2c-0.1-0.1-0.2,0-0.2,0.1c-0.1,0.1-0.1,0.1-0.2,0.1c0-0.1,0.1-0.2,0.1-0.3c0.1-0.3,0.1-0.5-0.3-0.5
			c-0.1,0-0.2,0-0.3-0.1c-0.1-0.1,0.1-0.1,0.2-0.2C8,29.7,8,29.5,7.9,29.4c-0.2-0.6-0.5-1.1-0.4-1.8c0.1-1.5,1-3,2.6-3.7
			c0.6-0.2,1.3-0.3,1.9-0.7c0.1,0.2,0,0.3,0,0.5c-0.3,0.8-0.6,1.5-0.9,2.2c-0.1,0.2,0,0.3,0.2,0.4c-0.2,0.2-0.6,0.3-0.3,0.7
			c0.1,0.2,0.2,0.4,0.3,0.6c0.9,2.1,1.9,4.2,2.8,6.3c0.1,0.2,0.1,0.6,0.4,0.7c0,0,0,0.1,0,0.1c0,0.1-0.1,0.1-0.1,0.1
			c-0.2,0.2-0.4,0.3-0.7,0.4c-0.5,0.1-0.6,0.2-0.6,0.7c0,0.3-0.2,0.2-0.4,0.3c-0.4,0.1-0.6,0-0.8-0.5c0-0.1-0.1-0.2-0.2-0.3
			c-0.2,0-0.3-0.2-0.4-0.4c-0.4-0.3-0.8-0.4-1.1-0.1c-0.1,0.3-0.2,0.5,0,0.8c0,0,0.1,0.1,0.1,0.1c0.2,0.2,0.1,0.4-0.2,0.4
			c-0.2,0-0.4,0.1-0.4,0.3c0,0.3-0.1,0.6,0.2,0.7c0.2,0.1,0.2,0.2,0.1,0.4c-0.1,0.2,0,0.4,0.2,0.5c0.4,0.2,0.3,0.4,0.2,0.7
			c-0.3-0.2-0.6-0.3-0.9-0.2c-0.4,0-0.8,0-1.2,0c-0.3,0-0.5,0-0.7,0.2c-0.3,0.3-0.5,0.1-0.8,0c-0.1-0.3-0.3-0.2-0.5-0.1
			C6,39,5.9,39.2,5.7,39c0.1-0.1,0.2-0.2,0.1-0.3C6,38.5,6,38.4,5.7,38.3c-0.1-0.1-0.3-0.1-0.3-0.3c0.3-0.1,0.1-0.2,0-0.3
			c-1.2-1.1-0.7-4.1,0.5-5.1c0.3-0.2,0.6-0.5,0.5-0.9c0.1-0.1,0.2-0.1,0.2,0C6.7,31.8,6.7,31.9,6.7,32c-0.1,0.1,0,0.1,0,0.2
			C6.6,32.1,6.6,32,6.7,32z"/>
		<path class="st92" d="M6.7,45.5c-0.8,0-1.6,0-2.5,0c0.1-0.3,0.3-0.4,0.5-0.7c0-0.1,0.1-0.2,0.1-0.3c-0.1-0.1-0.2,0-0.2,0
			c-0.4,0.1-0.7,0.1-1-0.1C3,44.4,2.7,44,2.7,43.7c0.1-0.4,0.3-0.7,0.8-0.7c-0.3-0.2-0.6-0.2-0.9-0.4c-0.2-0.2-0.4-0.4-0.4-0.7
			c0-0.3,0.2-0.5,0.5-0.5c0.1,0,0.3,0.1,0.3-0.1c0.1-0.1-0.1-0.2-0.1-0.3c-0.2-0.3-0.4-0.6-0.5-1c0-0.6,0.2-0.9,0.8-0.8
			c0.4,0,0.8,0.5,0.7,0.9c-0.1,0.3,0,0.6,0,1c0,0.1,0,0.3,0.2,0.3c0.1,0,0.1-0.1,0.2-0.2C4.6,41.2,4.7,41,4.9,41
			c0.3,0,0.5,0.1,0.5,0.4c0,0.2,0,0.5,0.2,0.7c0,0,0.1,0,0.1,0c0-0.2,0.1-0.4,0.3-0.5c0.2,0,0.3,0.2,0.4,0.3
			c0.1,0.1,0.2,0.2,0.2,0.4c0,0,0,0,0,0c0.1,0,0.1,0,0.1-0.1c0,0,0.1,0,0.1,0C6.7,43.3,6.7,44.4,6.7,45.5
			C6.7,45.5,6.7,45.5,6.7,45.5C6.7,45.5,6.7,45.5,6.7,45.5z"/>
		<path class="st18" d="M7.1,40.5c0.1,0,0.3,0,0.3,0.2c-0.1,0.2-0.2,0.5-0.5,0.5c-0.2,0-0.4-0.1-0.4-0.2C6.3,40.8,6.8,40.5,7.1,40.5
			z"/>
		<path class="st3" d="M34.9,37.6c0.1,0.1,0.2,0.2,0.3,0.2c0.1,0.1,0.1,0.3,0.1,0.5c0,0.5,0.1,1,0.1,1.5c0.1,1.4,0.3,2.8,0.3,4.2
			c0,0.6-0.1,0.7-0.7,0.8c-0.4,0.1-0.8,0.3-1.2,0.2c-0.2,0.2-0.4,0.2-0.5,0.5c-0.1,0.1-0.2,0.1-0.3,0.1c-1.7,0-3.3,0-5,0
			c-0.2,0-0.3,0-0.4-0.2c-0.1-0.3-0.4-0.4-0.7-0.5c-0.2-0.1-0.5-0.1-0.7-0.2c-0.1-0.2-0.5,0-0.5-0.3c-0.1-0.3,0.2-0.3,0.3-0.4
			c0.1-0.2,0.1-0.4,0.1-0.7c0.3-1.2,0.5-2.4,0.8-3.7c0.1-0.2,0.1-0.5,0.2-0.8c0,0,0-0.1,0-0.1c0.1-0.4,0.1-0.8,0.1-1.1
			c0-0.5,0.1-0.6,0.6-0.6c2.2,0,4.3,0,6.5,0C34.7,36.9,34.8,37,34.9,37.6z"/>
		<path class="st3" d="M21.5,42.7c0.6-1,1.3-1.9,2-2.9c0.3-0.5,0.7-0.9,1.1-1.3c0.3-0.3,0.4-0.2,0.6,0.1c-0.1,0.7-0.3,1.4-0.4,2.1
			c-0.1,0.9-0.2,1.9,0,2.8c0,0.1,0.1,0.3,0.1,0.4c0.2,0.3,0,0.5-0.1,0.8c0,0.3,0,0.6-0.2,0.8c-0.2,0.2-0.6,0-0.9,0.1
			c-0.2,0-0.4,0-0.5,0c-0.4,0-0.9,0.1-1.1-0.6c-0.1-0.4-0.5-0.6-0.9-0.8c-0.2-0.1-0.3-0.3-0.5-0.4c-0.3-0.2-0.1-0.4,0.1-0.5
			C21.2,43.2,21.4,43,21.5,42.7z"/>
		<path class="st3" d="M34.9,33.6c-2.3,0-4.6,0-6.9,0c0-0.3,0.2-0.3,0.4-0.2c0,0.2,0.2,0.2,0.4,0.2c0.5,0,1.1,0,1.6,0
			c0.5,0,0.5,0,0.3-0.5c-0.4-0.9-0.8-1.8-1.2-2.6c0.7,0.1,1.2-0.2,1.8-0.4c0.1,0,0.2,0,0.2,0c0.8-0.1,1.6-0.2,2.4-0.3
			c0.1,0,0.3-0.1,0.4-0.1c0.3-0.1,0.6-0.1,0.8-0.4c0.1-0.1,0.2-0.3,0.3,0c-0.2,0.6,0,1.2-0.2,1.8c-0.1,0.2-0.1,0.4-0.1,0.7
			c0,0.1,0,0.1,0,0.2c-0.2,0.5-0.3,1-0.3,1.6C34.9,33.5,34.9,33.5,34.9,33.6z"/>
	</g>
	<path class="st93" d="M34.9,33.4c0-0.2,0-0.3-0.1-0.5c0,0-0.1-0.1,0-0.1c0.3-0.3,0.2-0.7,0.4-1c0.1-0.1,0.2-0.1,0.2,0
		c0.1,0.3,0.5,0.4,0.5,0.7c-0.2,0.3-0.4,0.5-0.7,0.6C35,33.2,35,33.4,34.9,33.4z"/>
	<path class="st0" d="M36,25.4c0.3-0.5,0.8-0.6,1.3-0.8c0,0.4,0.3,0.4,0.5,0.3c0.1,0,0.3,0,0.4-0.2c0.9,0.7,0.8,1.8,0.8,2.8
		c-0.2-0.4-0.1-0.9-0.4-1.4c-0.2-0.3-0.2-0.6-0.7-0.7c-0.9-0.1-1.3,0.7-1.2,1.4c0.2,0.8,0.5,1.6,0.8,2.4c0,0.1,0.1,0.2,0,0.3
		c-0.4,0.4-0.7,0.7-1.1,1.1c-0.4,0.1-0.8,0.1-1-0.3c0-0.2,0-0.4,0.1-0.6c0.3-0.3,0.2-0.6,0.1-0.9c-0.1-1-0.1-2,0.1-2.9
		C35.8,25.8,36,25.7,36,25.4z"/>
	<path class="st1" d="M35.5,30.5c0.3,0.2,0.7,0.1,1,0.3c-0.4,0.4-0.7,0.8-1.1,1.1c-0.1,0-0.2,0-0.2,0c0-0.1,0-0.1,0-0.2
		C35.3,31.3,35.2,30.8,35.5,30.5z"/>
	<path class="st44" d="M34.4,29.6c0,0.1-0.1,0.1-0.2,0.1c-0.9,0.1-1.7,0.3-2.6,0.3c0.7-0.2,1.4-0.2,2.2-0.3
		C34,29.6,34.2,29.6,34.4,29.6z"/>
	<path class="st93" d="M35.5,30.5c-0.2,0.4-0.1,0.8-0.3,1.2c0-0.5,0.1-1,0.2-1.5c0.1-0.3-0.1-0.7,0.2-1c0.1,0.2-0.1,0.4-0.1,0.7
		C35.5,30.1,35.5,30.3,35.5,30.5z"/>
	<path class="st94" d="M27,39.5c0-0.3,0.1-0.5,0.2-0.7C27.2,39.1,27.2,39.3,27,39.5z"/>
	<path class="st95" d="M26.6,32.1c0.5,0,0.9-0.4,1.4-0.5c0.1,0,0.3-0.2,0.4,0c0.1,0.1-0.1,0.2-0.3,0.2c-0.2,0.1-0.5,0.3-0.7,0.3
		c-0.4,0.1-0.7,0.3-0.6,0.8C26.7,32.7,26.6,32.4,26.6,32.1z"/>
	<path class="st8" d="M28.4,33.4c-0.2,0.1-0.4,0-0.4,0.2c-0.3,0-0.5,0-0.8,0c0.5-0.2,1-0.5,1.5-0.7c0.1,0,0.3-0.1,0.3,0.1
		c0.1,0.1-0.1,0.2-0.2,0.2C28.7,33.2,28.5,33.3,28.4,33.4z"/>
</g>
</svg>
