<?xml version="1.0" encoding="utf-8"?>
<!-- Generator: Adobe Illustrator 19.0.0, SVG Export Plug-In . SVG Version: 6.00 Build 0)  -->
<svg version="1.1" id="Layer_1" xmlns="http://www.w3.org/2000/svg" xmlns:xlink="http://www.w3.org/1999/xlink" x="0px" y="0px"
	 viewBox="0 0 87 21" style="enable-background:new 0 0 87 21;" xml:space="preserve">
<style type="text/css">
	.st0{fill:#2F5A92;}
</style>
<g>
	<path id="XMLID_34_" class="st0" d="M59.6,14.5h-1.1v-0.3c0-1.2,0-2.3,0-3.5c0-0.1,0-0.2,0-0.2c-0.1-0.6-0.4-0.9-1-0.9
		c-0.4,0-0.7,0-1.1,0.1c-0.2,0-0.2,0-0.2,0.3c0,1.4,0,2.8,0,4.3c0,0.1,0,0.2,0,0.3h-1.1c0-0.1,0-0.1,0-0.2c0-1.7,0-3.3,0-5
		c0-0.2,0-0.2,0.2-0.3c1-0.3,1.9-0.4,2.9-0.3c0.2,0,0.3,0.1,0.5,0.1c0.7,0.3,1,0.8,1.1,1.6c0,1.3,0,2.6,0,4
		C59.6,14.4,59.6,14.4,59.6,14.5"/>
	<path id="XMLID_33_" class="st0" d="M64.2,8.6h1.1c0,0.1,0,0.1,0,0.2c0,1.7,0,3.3,0,5c0,0.2,0,0.2-0.2,0.3
		c-0.3,0.1-0.7,0.2-1.1,0.3c-0.5,0-1,0.1-1.5,0c-0.2,0-0.5-0.1-0.7-0.2c-0.6-0.2-0.9-0.7-1-1.3c0-0.2,0-0.4,0-0.6c0-1.1,0-2.3,0-3.4
		V8.6H62v0.3c0,1.2,0,2.3,0,3.5c0,0.1,0,0.3,0,0.4c0.1,0.3,0.3,0.6,0.6,0.7c0.3,0.1,0.6,0.1,0.9,0.1c0.2,0,0.3-0.1,0.6-0.1
		c0.1,0,0.1-0.1,0.1-0.2c0-0.1,0-0.1,0-0.2c0-1.3,0-2.7,0-4.1C64.2,8.8,64.2,8.8,64.2,8.6"/>
	<path id="XMLID_32_" class="st0" d="M66.2,14.5c0.7-1,1.3-2,2-3c-0.6-0.9-1.2-1.8-1.8-2.8h0.5c0.2,0,0.4,0,0.6,0
		c0.1,0,0.2,0,0.3,0.2c0.3,0.6,0.7,1.1,1,1.7c0,0.1,0.1,0.1,0.1,0.2c0-0.1,0.1-0.1,0.1-0.2c0.3-0.6,0.7-1.1,1-1.7
		c0.1-0.1,0.2-0.2,0.3-0.2c0.3,0,0.6,0,0.9,0c0,0,0.1,0,0.2,0c0,0.1-0.1,0.2-0.1,0.2c-0.5,0.8-1,1.6-1.6,2.4c-0.1,0.1-0.1,0.2,0,0.3
		c0.6,0.8,1.1,1.7,1.7,2.5c0,0.1,0.1,0.2,0.2,0.3c-0.1,0-0.1,0-0.2,0c-0.3,0-0.7,0-1,0c-0.1,0-0.2,0-0.3-0.1
		c-0.4-0.6-0.7-1.3-1.1-1.9c0-0.1-0.1-0.1-0.1-0.2c-0.1,0.1-0.1,0.2-0.2,0.3c-0.3,0.6-0.7,1.2-1.1,1.8c-0.1,0.1-0.1,0.2-0.3,0.2
		C67,14.5,66.6,14.5,66.2,14.5"/>
	<path id="XMLID_31_" class="st0" d="M47.7,6h1.1c0.1,0.1,0,0.2,0,0.3c0,2.3,0,4.6,0,6.8c0,0.1,0,0.2,0,0.4h2.6v1
		c-0.2,0-3.5,0-3.8,0c0-0.6,0-1.1,0-1.7c0-0.6,0-1.1,0-1.7V9.4c0-0.6,0-1.1,0-1.7C47.7,7.1,47.7,6.5,47.7,6"/>
	<path class="st0" d="M80.3,10.2c0,0.7,0,1.5-0.3,2.2c-0.1,0.5-0.3,1-0.7,1.3c-0.4,0.4-0.9,0.7-1.4,0.7c-0.4,0-0.7,0-1.1-0.1
		c-0.7-0.2-1.2-0.7-1.5-1.3c-0.2-0.5-0.3-1-0.4-1.4c-0.1-0.6-0.1-1.3-0.1-1.9c0-0.7,0.2-1.4,0.5-2.1c0.2-0.5,0.5-0.9,0.9-1.2
		C76.8,6,77.3,5.9,78,6c0.6,0.1,1.1,0.3,1.5,0.8C79.7,7,79.9,7.4,80,7.7c0.2,0.6,0.3,1.3,0.4,2C80.3,9.9,80.3,10.1,80.3,10.2
		 M75.6,10.3c0,0.3,0,0.7,0.1,1c0,0.5,0.2,1,0.4,1.4c0.3,0.6,0.7,1,1.4,1c0.6,0,1.1-0.1,1.5-0.6c0.3-0.3,0.4-0.6,0.5-1
		c0.1-0.4,0.2-0.9,0.2-1.4c0-0.7,0-1.5-0.1-2.2c-0.1-0.5-0.3-0.9-0.6-1.3c-0.6-0.7-1.8-0.7-2.3-0.2c-0.3,0.3-0.6,0.7-0.7,1.2
		C75.6,9,75.6,9.6,75.6,10.3"/>
	<path id="XMLID_28_" class="st0" d="M81,13c0.1,0,0.1,0.1,0.2,0.1c0.6,0.3,1.3,0.5,2,0.5c0.3,0,0.5,0,0.8-0.2
		c0.4-0.2,0.7-0.6,0.7-1.1c0-0.6-0.2-1.1-0.7-1.4c-0.3-0.2-0.7-0.4-1-0.6c-0.3-0.2-0.7-0.3-1-0.5c-0.4-0.3-0.7-0.6-0.9-1.1
		c-0.1-0.6-0.1-1.2,0.1-1.7c0.3-0.6,0.7-0.9,1.3-1c0.8-0.2,1.6,0,2.3,0.4C85,6.5,85.1,6.5,85,6.7c0,0.2-0.1,0.3-0.2,0.5
		c-0.1,0-0.1,0-0.2-0.1c-0.4-0.2-0.8-0.3-1.3-0.4c-0.3,0-0.5,0-0.8,0.1C82,7,81.7,7.5,81.7,8.1c0,0.4,0.2,0.7,0.6,1
		c0.3,0.2,0.5,0.3,0.8,0.4c0.3,0.2,0.7,0.3,1,0.5c0.2,0.1,0.3,0.2,0.4,0.3c0.7,0.5,1,1.3,0.9,2.1c0,0.3-0.1,0.5-0.2,0.7
		c-0.3,0.7-0.8,1.1-1.4,1.2c-1,0.2-2,0-2.9-0.5c-0.2-0.1-0.2-0.1-0.1-0.3c0-0.1,0.1-0.3,0.1-0.4C80.9,13.1,80.9,13.1,81,13"/>
	<path class="st0" d="M45.8,8.7c0-0.1,0-0.2,0-0.3c0-0.7,0-1.4,0-2.2c0-0.1,0-0.2,0-0.3h0.6c0,0.1,0,0.1,0,0.2c0,0.2,0,0.4,0,0.7
		c0,2.3,0,4.6,0,6.9c0,0.1,0,0.2-0.2,0.3c-0.3,0.2-0.7,0.3-1,0.3c-0.4,0.1-0.9,0.1-1.3,0c-0.7-0.1-1.1-0.5-1.4-1.1
		c-0.2-0.4-0.2-0.8-0.3-1.3c0-0.7,0-1.4,0.1-2c0-0.1,0.1-0.3,0.1-0.4c0.3-0.6,0.7-1,1.4-1c0.6-0.1,1.1,0,1.7,0.1
		C45.7,8.7,45.7,8.7,45.8,8.7 M45.8,11.5c0-0.7,0-1.3,0-2c0-0.2,0-0.2-0.2-0.3c-0.5-0.1-0.9-0.2-1.4-0.2c-0.5,0-0.9,0.2-1.1,0.7
		c-0.1,0.2-0.2,0.5-0.2,0.7c-0.1,0.7-0.1,1.3,0,1.9c0,0.3,0.1,0.6,0.2,0.8c0.1,0.4,0.4,0.6,0.8,0.7c0.6,0.1,1.1,0,1.7-0.1
		c0.2,0,0.2-0.1,0.2-0.3C45.8,12.8,45.8,12.2,45.8,11.5"/>
	<path class="st0" d="M31.4,11.5c0-0.5,0-1,0.2-1.6c0-0.1,0-0.2,0.1-0.3c0.2-0.6,0.7-1,1.3-1.1c0.5-0.1,1-0.1,1.4,0s0.8,0.4,1,0.8
		c0.2,0.3,0.3,0.7,0.3,1.1c0,0.5,0,1,0,1.5c0,0.4-0.1,0.8-0.2,1.2c-0.2,0.7-0.7,1.1-1.4,1.2c-0.4,0-0.7,0-1.1,0
		c-0.6-0.1-1-0.5-1.3-1.1c-0.2-0.4-0.3-0.9-0.3-1.3C31.4,11.8,31.4,11.7,31.4,11.5 M35.2,11.5c0-0.3,0-0.7-0.1-1
		c0-0.3-0.1-0.7-0.3-0.9c-0.1-0.3-0.3-0.4-0.7-0.5c-0.3-0.1-0.6-0.1-1,0c-0.5,0.1-0.8,0.3-1,0.8c-0.1,0.2-0.2,0.5-0.2,0.7
		c0,0.5,0,1,0,1.5c0,0.3,0.1,0.7,0.2,1c0.2,0.3,0.4,0.6,0.8,0.7c0.3,0.1,0.7,0.1,1,0c0.5-0.1,0.8-0.4,1-0.8c0-0.1,0-0.1,0-0.2
		C35.2,12.4,35.2,12,35.2,11.5"/>
	<path id="XMLID_23_" class="st0" d="M28.1,13.5c0.1,0.2,0.1,0.3,0.2,0.5c0,0,0,0-0.1,0.1c-0.9,0.4-1.8,0.5-2.8,0.1
		c-0.6-0.3-1-0.7-1.3-1.3c-0.3-0.5-0.4-1.1-0.5-1.7c-0.1-0.6-0.1-1.1,0-1.7c0.1-0.8,0.3-1.6,0.9-2.2c0.6-0.7,1.3-1,2.2-1
		c0.5,0,1,0.1,1.4,0.3c0.1,0,0.1,0.1,0.2,0.1c-0.1,0.2-0.1,0.3-0.2,0.5c-0.1,0-0.1,0-0.2-0.1c-0.5-0.2-1-0.3-1.6-0.2
		c-0.6,0.1-1,0.4-1.4,0.9c-0.3,0.4-0.5,1-0.6,1.5c-0.1,0.9-0.1,1.7,0.1,2.6c0.1,0.6,0.4,1.1,0.9,1.5c0.4,0.3,0.8,0.5,1.3,0.5
		c0.5,0,1,0,1.4-0.3C28,13.6,28.1,13.6,28.1,13.5"/>
	<path id="XMLID_22_" class="st0" d="M40.6,8.6h0.6c0,0.2,0.1,5.1,0,5.5c-0.3,0.1-0.6,0.2-0.9,0.3c-0.6,0.1-1.1,0.2-1.7,0.1
		c-0.2,0-0.4-0.1-0.6-0.2C37.4,14,37.1,13.5,37,13c0-0.2,0-0.3,0-0.5c0-1.2,0-2.3,0-3.5c0-0.1,0-0.2,0-0.3h0.6c0,0.1,0,0.2,0,0.3
		c0,1.2,0,2.3,0,3.5c0,0.2,0,0.4,0,0.6c0.1,0.5,0.4,0.8,0.9,0.9c0.3,0.1,0.7,0.1,1,0c0.2,0,0.5-0.1,0.7-0.2c0.1,0,0.2-0.1,0.2-0.2
		c0-0.3,0-0.7,0-1c0-1.2,0-2.4,0-3.6C40.6,8.8,40.6,8.8,40.6,8.6"/>
	<path id="XMLID_21_" class="st0" d="M52.7,8.6c0.1,0,0.1,0,0.2,0c0.3,0,0.6,0,1,0c0,0.2,0.1,5.6,0,5.8h-1.1L52.7,8.6L52.7,8.6z"/>
	<path id="XMLID_20_" class="st0" d="M30.2,14.5c0,0-0.1,0-0.1,0c-0.1,0-0.3,0-0.4,0c0-0.2-0.1-8.2,0-8.5h0.6
		C30.2,6.1,30.2,14.3,30.2,14.5"/>
	<path id="XMLID_19_" class="st0" d="M53.9,6.9c0,0.4-0.3,0.7-0.7,0.7s-0.7-0.3-0.7-0.7c0-0.3,0.3-0.7,0.7-0.7S53.9,6.5,53.9,6.9"/>
	<path id="XMLID_18_" class="st0" d="M72.3,7.8c0.1,0,0.2,0,0.2,0.1s0.1,0.2,0.1,0.3c0.1-0.1,0.1-0.3,0.2-0.3c0-0.1,0.1-0.2,0.2-0.1
		c0,0.2,0.1,0.5,0.1,0.7C73,8.6,73,8.5,73,8.4c0-0.1,0-0.2,0-0.3h0c0,0.1-0.1,0.3-0.1,0.4c0,0,0,0-0.1,0.1c0,0-0.1,0-0.1-0.1
		c0-0.1-0.1-0.3-0.1-0.4c-0.1,0.2,0,0.3-0.2,0.5h0C72.2,8.5,72.3,8.1,72.3,7.8"/>
	<path id="XMLID_17_" class="st0" d="M72.2,7.9C72.1,7.9,72,8,72,8v0.6c0,0-0.1,0-0.1,0V8c-0.1,0-0.1-0.1-0.2-0.1
		C71.7,7.8,71.9,7.8,72.2,7.9C72.1,7.9,72.1,7.9,72.2,7.9"/>
	<path id="XMLID_16_" class="st0" d="M9.2,1.2C9.2,1.2,9.3,1.1,9.2,1.2c0.9-0.3,1.7-0.4,2.4-0.4c2.1,0.1,3.8,1,5,2.7
		c0.6,0.8,1,1.7,1.1,2.6c0,0.3,0,0.5,0,0.8c-0.2,1.3-0.8,2.5-1.8,3.5c0,0,0,0-0.1,0.1h0c0-0.1,0-0.2,0.1-0.2c0.4-1.5,0.4-3-0.1-4.4
		c-0.1-0.4-0.3-0.7-0.6-1.1c-0.2-0.3-0.4-0.5-0.6-0.7c-1.2-1.5-2.7-2.4-4.6-2.7C9.8,1.2,9.5,1.2,9.2,1.2"/>
	<path id="XMLID_15_" class="st0" d="M14.5,7.4c-1.2-2-2.8-3.4-5.2-3.8C7,3.2,5,3.8,3.2,5.3c0,0,0-0.1,0.1-0.2
		c1-1.7,2.3-2.8,4.3-3.2c1.9-0.4,3.6-0.1,5.3,1C12.9,3,13,3.1,13.2,3.2c0.9,1.1,1.4,2.5,1.4,3.9C14.5,7.2,14.5,7.3,14.5,7.4"/>
	<path id="XMLID_14_" class="st0" d="M8.1,7.5c-2,1.1-3.4,2.8-3.8,5.1c-0.4,2.3,0.2,4.3,1.8,6.1c-0.1,0-0.1,0-0.1-0.1
		c-1.8-1-3-2.5-3.3-4.6c-0.3-1.7,0-3.4,1-4.8C3.8,9,3.8,8.9,3.9,8.8C4.9,8,6,7.5,7.3,7.4C7.6,7.4,7.8,7.4,8.1,7.5L8.1,7.5z"/>
	<path id="XMLID_13_" class="st0" d="M19.3,15.7c-0.3,0.6-0.7,1.1-1.1,1.6c-1.1,1.1-2.4,1.8-4,2c-1.6,0.2-3.1-0.2-4.4-1.1
		c-0.1,0-0.2-0.1-0.2-0.2c-0.8-0.9-1.3-2-1.4-3.2c0-0.3,0-0.5,0-0.8c0-0.1,0-0.2,0-0.3c1.1,2,2.8,3.3,5.1,3.8
		C15.5,17.9,17.6,17.3,19.3,15.7"/>
	<path id="XMLID_12_" class="st0" d="M11.2,6.1C9,5.5,6.9,5.7,4.9,7s-2.9,3.2-3,5.6c0,0,0-0.1,0-0.1C0.8,9,2.8,5.2,6.3,4.3
		c0.1,0,0.3-0.1,0.4-0.1c0.4-0.1,0.7,0,1.1,0C9.2,4.5,10.2,5,11.2,6C11.2,6,11.2,6.1,11.2,6.1"/>
	<path id="XMLID_11_" class="st0" d="M13.3,19.9C13,20,12.8,20,12.5,20.1c-2.8,0.5-5.6-0.8-6.9-3.3c-0.3-0.6-0.6-1.3-0.7-2
		c0-0.2,0-0.4,0-0.6c0.2-1.4,0.8-2.6,1.8-3.6c0,0,0.1,0,0.1-0.1c-0.7,2.3-0.4,4.3,0.9,6.3C9.1,18.7,10.9,19.7,13.3,19.9L13.3,19.9"
		/>
	<path id="XMLID_10_" class="st0" d="M14.5,13.7c2-1.1,3.3-2.8,3.8-5.1c0.4-2.3-0.2-4.3-1.7-6.1c0.1,0,0.2,0.1,0.3,0.1
		c1.7,1,2.8,2.6,3.2,4.6c0.3,1.7-0.1,3.3-1.1,4.8c0,0.1-0.1,0.2-0.2,0.2c-1,0.8-2,1.3-3.3,1.4C15.2,13.7,14.8,13.7,14.5,13.7
		C14.6,13.7,14.6,13.7,14.5,13.7"/>
	<path id="XMLID_9_" class="st0" d="M20.8,8.5c0.1,0.3,0.2,0.7,0.3,1.1c0.2,1.5-0.1,3-0.9,4.3c-1,1.6-2.5,2.6-4.3,3
		c-0.3,0-0.5,0-0.8,0c-1.4-0.2-2.6-0.9-3.6-1.9c0,0,0,0,0-0.1c2.3,0.7,4.3,0.4,6.3-0.9C19.7,12.7,20.6,10.8,20.8,8.5"/>
	<path id="XMLID_8_" class="st0" d="M13.9,7.6C13.9,7.5,13.9,7.5,13.9,7.6c-0.4-0.4-0.8-0.7-1.2-0.9c-0.1,0-0.2-0.1-0.2-0.2
		c-0.6-0.8-1.3-1.5-2.1-2c0,0,0,0-0.1,0c0,0,0,0,0,0C11.9,4.9,13.2,6,13.9,7.6"/>
	<path id="XMLID_7_" class="st0" d="M5.2,11.7c0.3-1.3,2-3.3,3.2-3.7c0,0,0,0.1-0.1,0.1C8,8.4,7.7,8.8,7.5,9.2
		c0,0.1-0.1,0.1-0.2,0.2c-0.9,0.6-1.6,1.3-2.1,2.2C5.2,11.6,5.2,11.6,5.2,11.7"/>
	<path id="XMLID_6_" class="st0" d="M6.2,7c1-0.7,3.9-0.9,4.8-0.3c-0.3,0-0.7,0.1-1,0.1c-0.1,0-0.3,0-0.4,0.1c-0.1,0-0.3,0-0.4,0
		c-1-0.2-1.9-0.2-2.8,0C6.2,7,6.2,7,6.2,7"/>
	<path id="XMLID_5_" class="st0" d="M7.8,15.7c-0.8-1.6-0.9-3.2-0.3-4.9c0,0.2,0,0.4,0.1,0.7c0,0.3,0.1,0.6,0.2,0.9
		c0,0.1,0,0.2,0,0.3C7.5,13.6,7.5,14.6,7.8,15.7C7.8,15.6,7.8,15.6,7.8,15.7"/>
	<path id="XMLID_4_" class="st0" d="M12.4,16.7C10.8,16,9.5,15,8.8,13.4c0,0,0.1,0,0.1,0.1c0.3,0.3,0.7,0.6,1.1,0.8
		c0.1,0,0.1,0.1,0.2,0.2C10.7,15.4,11.5,16.1,12.4,16.7C12.3,16.6,12.4,16.6,12.4,16.7C12.4,16.6,12.4,16.6,12.4,16.7"/>
	<path id="XMLID_3_" class="st0" d="M14.3,13c0.1-0.1,0.2-0.2,0.2-0.3c0.2-0.3,0.4-0.7,0.7-1c0-0.1,0.1-0.1,0.2-0.2
		c0.8-0.6,1.5-1.3,2-2.1c0,0,0,0,0-0.1c0,0,0,0,0,0C16.9,11,15.8,12.2,14.3,13L14.3,13"/>
	<path id="XMLID_2_" class="st0" d="M15.2,10.2c0-0.5-0.1-1-0.3-1.6c0,0,0-0.1,0-0.2c0.1-0.7,0.2-1.3,0.1-2c0-0.3-0.1-0.7-0.2-1
		c0,0,0-0.1,0-0.1c0.4,0.7,0.6,1.5,0.6,2.4C15.6,8.6,15.5,9.4,15.2,10.2"/>
	<path id="XMLID_1_" class="st0" d="M16.5,14c-1.6,0.7-3.2,0.9-4.8,0.3v0c0.2,0,0.3,0,0.5,0c0.3,0,0.7-0.1,1-0.2c0.1,0,0.2,0,0.3,0
		C14.5,14.3,15.5,14.2,16.5,14C16.5,14,16.5,14,16.5,14"/>
</g>
</svg>
