<?xml version="1.0" encoding="utf-8"?>
<!-- Generator: Adobe Illustrator 19.0.0, SVG Export Plug-In . SVG Version: 6.00 Build 0)  -->
<svg version="1.1" id="Layer_1" xmlns="http://www.w3.org/2000/svg" xmlns:xlink="http://www.w3.org/1999/xlink" x="0px" y="0px"
	 viewBox="0 0 87 21" style="enable-background:new 0 0 87 21;" xml:space="preserve">
<style type="text/css">
	.st0{fill:#F26325;}
</style>
<g id="XMLID_1_">
	<g id="XMLID_2_">
		<path id="XMLID_13_" class="st0" d="M8.6,6h4.9L12.7,9c-0.1,0.4-0.3,0.7-0.6,1c-0.3,0.3-0.7,0.4-1.1,0.4H8.7c-0.5,0-1,0.2-1.4,0.5
			c-0.4,0.3-0.7,0.7-0.9,1.2c-0.1,0.4-0.1,0.8,0,1.1s0.2,0.6,0.4,0.9c0.2,0.3,0.5,0.5,0.8,0.6c0.3,0.2,0.7,0.3,1,0.3h1.5
			c0.3,0,0.5,0.1,0.6,0.3s0.2,0.4,0.1,0.7L10,19.2H8.5c-1,0-2-0.2-2.9-0.7c-0.9-0.5-1.6-1.1-2.2-1.8c-0.6-0.8-1-1.6-1.2-2.6
			c-0.2-1-0.2-2,0.1-3l0.1-0.3c0.2-0.7,0.5-1.3,0.9-1.9c0.4-0.6,0.9-1.1,1.4-1.5c0.6-0.4,1.2-0.7,1.8-1C7.2,6.2,7.9,6,8.6,6"/>
		<path id="XMLID_12_" class="st0" d="M11.1,19.2l4.3-16.1c0.1-0.4,0.3-0.7,0.6-1c0.3-0.3,0.7-0.4,1.1-0.4h4.6c1,0,2,0.2,2.9,0.7
			s1.6,1.1,2.2,1.8c0.6,0.8,1,1.6,1.2,2.6c0.2,1,0.2,2-0.1,3l-0.1,0.3c-0.2,0.7-0.5,1.3-0.9,1.9c-0.4,0.6-0.9,1.1-1.4,1.5
			c-0.6,0.4-1.2,0.8-1.8,1C23,14.8,22.3,15,21.6,15h-3.9l0.8-3c0.1-0.4,0.3-0.7,0.6-0.9c0.3-0.3,0.7-0.4,1.1-0.4h1.3
			c0.5,0,1-0.2,1.4-0.5c0.4-0.3,0.7-0.7,0.8-1.2c0.1-0.4,0.1-0.7,0-1.1c-0.1-0.3-0.2-0.6-0.4-0.9c-0.2-0.3-0.5-0.5-0.8-0.6
			c-0.3-0.2-0.7-0.3-1-0.3h-2.4l-3.2,11.9c-0.1,0.4-0.3,0.7-0.6,0.9c-0.3,0.3-0.7,0.4-1.1,0.4C14.2,19.2,11.1,19.2,11.1,19.2z"/>
		<path id="XMLID_11_" class="st0" d="M38.3,10.6l0.1-0.3c0-0.1,0-0.2,0-0.3c-0.1-0.1-0.2-0.1-0.3-0.1H31c-0.3,0-0.6-0.1-0.8-0.2
			c-0.3-0.1-0.5-0.3-0.6-0.5c-0.2-0.2-0.3-0.5-0.3-0.7c0-0.3,0-0.6,0-0.9L29.7,6h9.6c0.6,0,1.2,0.1,1.6,0.4c0.5,0.3,0.9,0.6,1.2,1
			c0.3,0.4,0.6,0.9,0.7,1.5c0.1,0.6,0.1,1.1,0,1.7L41.1,17c-0.2,0.6-0.5,1.2-1.1,1.6c-0.5,0.4-1.2,0.6-1.8,0.6l-7.1,0
			c-0.6,0-1.2-0.1-1.7-0.4c-0.5-0.3-0.9-0.6-1.3-1.1c-0.3-0.4-0.6-0.9-0.7-1.5c-0.1-0.6-0.1-1.2,0-1.8l0.1-0.3
			c0.1-0.4,0.3-0.8,0.5-1.2c0.3-0.3,0.5-0.6,0.9-0.9c0.3-0.3,0.7-0.4,1.1-0.6c0.4-0.1,0.8-0.2,1.2-0.2h6l-0.4,1.6
			c-0.1,0.4-0.3,0.7-0.6,0.9c-0.3,0.3-0.7,0.4-1.1,0.4h-2.7c-0.3,0-0.4,0.1-0.5,0.4c0,0.2,0,0.3,0.1,0.4c0.1,0.1,0.2,0.2,0.4,0.2
			h4.3c0.2,0,0.3,0,0.4-0.1c0.1-0.1,0.2-0.2,0.2-0.3l0-0.2L38.3,10.6z"/>
		<path id="XMLID_10_" class="st0" d="M51,6c1.1,0,2.1,0.2,2.9,0.7c0.9,0.5,1.6,1.1,2.2,1.8c0.6,0.8,1,1.6,1.2,2.6
			c0.2,1,0.2,2-0.1,3l-1.1,4.1c-0.1,0.3-0.2,0.5-0.5,0.7c-0.3,0.2-0.5,0.3-0.8,0.3h-2.4c-0.3,0-0.5-0.1-0.6-0.3
			c-0.2-0.2-0.2-0.4-0.1-0.7l1.3-5c0.1-0.4,0.1-0.7,0-1.1c-0.1-0.3-0.2-0.6-0.4-0.9c-0.2-0.3-0.5-0.5-0.8-0.6
			c-0.3-0.2-0.7-0.3-1-0.3h-2.4l-2.1,7.9c-0.1,0.3-0.2,0.5-0.5,0.7c-0.3,0.2-0.5,0.3-0.8,0.3h-2.4c-0.3,0-0.5-0.1-0.6-0.3
			c-0.2-0.2-0.2-0.4-0.1-0.7L45.1,6L51,6L51,6z"/>
		<path id="XMLID_9_" class="st0" d="M63.9,10.2c-0.2,0.1-0.3,0.3-0.4,0.5l-1,3.7c0,0.2,0,0.4,0.1,0.6c0.1,0.2,0.3,0.3,0.5,0.3h9
			l-0.7,2.6c-0.1,0.4-0.3,0.7-0.6,0.9c-0.3,0.3-0.7,0.4-1.1,0.4h-8.2c-0.6,0-1.2-0.1-1.6-0.4c-0.5-0.3-0.9-0.6-1.2-1
			c-0.3-0.4-0.6-0.9-0.7-1.5c-0.1-0.6-0.1-1.1,0-1.7l1.3-5c0.1-0.6,0.4-1,0.7-1.5c0.3-0.5,0.7-0.9,1.1-1.2c0.4-0.3,0.9-0.6,1.4-0.8
			C63,6.1,63.6,6,64.1,6h5.8c0.6,0,1.2,0.1,1.6,0.4c0.5,0.3,0.9,0.6,1.2,1c0.3,0.4,0.6,0.9,0.7,1.5c0.1,0.6,0.1,1.1,0,1.7l-0.4,1.5
			c-0.2,0.6-0.5,1.2-1.1,1.6c-0.5,0.4-1.1,0.6-1.8,0.6h-6.6l0.4-1.6c0.1-0.4,0.3-0.7,0.6-0.9c0.3-0.3,0.7-0.4,1.1-0.4h2.7
			c0.3,0,0.4-0.1,0.5-0.4l0.1-0.3c0-0.2,0-0.3-0.1-0.4c-0.1-0.1-0.2-0.2-0.4-0.2h-4.1C64.2,10,64.1,10.1,63.9,10.2"/>
		<path id="XMLID_8_" class="st0" d="M72.2,19.2l4.4-16.5C76.7,2.5,76.8,2.2,77,2c0.3-0.2,0.5-0.3,0.8-0.3h2.4
			c0.3,0,0.5,0.1,0.7,0.3c0.2,0.2,0.2,0.4,0.1,0.7L77.7,15c-0.2,0.6-0.4,1.2-0.8,1.8c-0.3,0.5-0.8,1-1.3,1.3c-0.5,0.4-1,0.6-1.6,0.9
			C73.5,19.1,72.9,19.2,72.2,19.2"/>
		<path id="XMLID_3_" class="st0" d="M81.9,3.3c0-0.3,0.1-0.5,0.2-0.8c0.1-0.2,0.3-0.4,0.6-0.6c0.2-0.1,0.5-0.2,0.8-0.2
			c0.3,0,0.5,0.1,0.8,0.2c0.2,0.1,0.4,0.3,0.6,0.6C84.9,2.8,85,3,85,3.3c0,0.3-0.1,0.5-0.2,0.7c-0.1,0.2-0.3,0.4-0.6,0.6
			c-0.2,0.1-0.5,0.2-0.8,0.2c-0.3,0-0.5-0.1-0.8-0.2c-0.2-0.1-0.4-0.3-0.6-0.6C81.9,3.8,81.9,3.6,81.9,3.3 M82.1,3.3
			c0,0.2,0,0.4,0.2,0.6c0.1,0.2,0.3,0.3,0.5,0.5c0.2,0.1,0.4,0.2,0.6,0.2c0.2,0,0.4,0,0.6-0.2c0.2-0.1,0.3-0.3,0.5-0.5
			c0.1-0.2,0.2-0.4,0.2-0.6c0-0.2,0-0.4-0.2-0.6c-0.1-0.2-0.3-0.3-0.5-0.5C83.8,2.1,83.6,2,83.4,2c-0.2,0-0.4,0-0.6,0.2
			c-0.2,0.1-0.3,0.3-0.5,0.5C82.1,2.8,82.1,3.1,82.1,3.3 M84,2.9c0,0.1,0,0.2-0.1,0.3c0,0.1-0.1,0.1-0.3,0.2l0.5,0.8h-0.3l-0.4-0.7
			h-0.3v0.7h-0.3V2.4h0.5c0.2,0,0.4,0,0.5,0.1C83.9,2.6,84,2.8,84,2.9 M83.1,3.2h0.2c0.1,0,0.2,0,0.3-0.1c0.1,0,0.1-0.1,0.1-0.2
			c0-0.1,0-0.2-0.1-0.2c0,0-0.1-0.1-0.3-0.1h-0.2V3.2z"/>
	</g>
</g>
</svg>
