<?xml version="1.0" encoding="utf-8"?>
<!-- Generator: Adobe Illustrator 23.0.5, SVG Export Plug-In . SVG Version: 6.00 Build 0)  -->
<svg version="1.1" id="Layer_1" xmlns="http://www.w3.org/2000/svg" xmlns:xlink="http://www.w3.org/1999/xlink" x="0px" y="0px"
	 viewBox="0 0 84 28" style="enable-background:new 0 0 84 28;" xml:space="preserve">
<style type="text/css">
	.st0{fill:#163B4F;}
</style>
<path class="st0" d="M-137.9-92.8L-137.9-92.8C-137.9-92.9-137.9-92.9-137.9-92.8z M-143.9-92.8L-143.9-92.8L-143.9-92.8z"/>
<g>
	<path d="M19.5,14.2c1,0,1.7,0.7,1.7,1.6c0,1-0.7,1.7-1.6,1.7c-1,0-1.7-0.7-1.7-1.7C17.8,14.9,18.5,14.2,19.5,14.2z"/>
	<g>
		<path d="M25.6,7.7C25.2,7.3,25,6.8,25,6.2c0-0.6,0.2-1.1,0.6-1.5c0.4-0.4,0.9-0.6,1.5-0.6s1.1,0.2,1.5,0.6
			c0.4,0.4,0.6,0.9,0.6,1.5c0,0.6-0.2,1.1-0.6,1.5c-0.4,0.4-0.9,0.6-1.5,0.6S26,8,25.6,7.7z M28.8,9.9v13.8h-3.5V9.9H28.8z"/>
		<path d="M43.8,11.2c1,1,1.5,2.5,1.5,4.3v8.1h-3.5V16c0-1.1-0.3-1.9-0.8-2.5c-0.5-0.6-1.3-0.9-2.2-0.9c-1,0-1.7,0.3-2.3,0.9
			c-0.6,0.6-0.8,1.4-0.8,2.5v7.6h-3.5V9.9h3.5v1.7c0.5-0.6,1.1-1.1,1.8-1.4c0.7-0.3,1.5-0.5,2.4-0.5C41.5,9.7,42.8,10.2,43.8,11.2z"
			/>
		<path d="M54.9,12.7h-2.4v10.9H49V12.7h-1.6V9.9H49V9.2c0-1.7,0.5-2.9,1.4-3.7c1-0.8,2.4-1.2,4.3-1.1v2.9c-0.8,0-1.4,0.1-1.8,0.4
			c-0.3,0.3-0.5,0.8-0.5,1.6v0.6h2.4V12.7z"/>
		<path d="M59.7,23c-1.1-0.6-1.9-1.4-2.5-2.5c-0.6-1.1-0.9-2.3-0.9-3.7s0.3-2.6,0.9-3.7c0.6-1.1,1.5-1.9,2.5-2.5
			c1.1-0.6,2.3-0.9,3.6-0.9s2.5,0.3,3.6,0.9s1.9,1.4,2.5,2.5c0.6,1.1,0.9,2.3,0.9,3.7s-0.3,2.6-1,3.7c-0.6,1.1-1.5,1.9-2.6,2.5
			c-1.1,0.6-2.3,0.9-3.6,0.9C62,23.9,60.8,23.6,59.7,23z M65.1,20.4c0.6-0.3,1-0.8,1.3-1.4s0.5-1.4,0.5-2.2c0-1.3-0.3-2.3-1-3
			c-0.7-0.7-1.5-1.1-2.5-1.1s-1.8,0.4-2.5,1.1c-0.7,0.7-1,1.7-1,3s0.3,2.3,1,3c0.7,0.7,1.5,1.1,2.5,1.1
			C63.9,20.8,64.5,20.7,65.1,20.4z"/>
	</g>
</g>
</svg>
