<?xml version="1.0" encoding="utf-8"?>
<!-- Generator: Adobe Illustrator 23.0.5, SVG Export Plug-In . SVG Version: 6.00 Build 0)  -->
<svg version="1.1" id="Layer_1" xmlns="http://www.w3.org/2000/svg" xmlns:xlink="http://www.w3.org/1999/xlink" x="0px" y="0px"
	 viewBox="0 0 84 28" style="enable-background:new 0 0 84 28;" xml:space="preserve">
<style type="text/css">
	.st0{fill:#163B4F;}
	.st1{fill:#01411C;}
</style>
<path class="st0" d="M-137.9-92.8v-0.1C-137.9-92.9-137.9-92.9-137.9-92.8z M-143.9-92.8c0,0,0-0.1,0-0.1V-92.8z"/>
<g>
	<path class="st1" d="M31.9,16.7c0,1.7,0,3.4,0,5.1c-1.2,0-2.3,0-3.4,0c0-4.8,0-9.5,0-14.2c1.1,0,2.2,0,3.4,0c0,0.4,0,0.8,0,1.2
		c0.1,0,0.1,0,0.1,0c1.3-1.4,2.8-1.6,4.5-1.1c1.8,0.5,2.8,1.8,3.2,3.5c0.3,1.1,0.3,2.3,0,3.4C38.8,18.1,34.7,19.3,31.9,16.7z
		 M36.5,12.7c-0.1-0.4-0.1-0.8-0.2-1.1c-0.3-0.9-1.2-1.5-2.1-1.5c-1,0-1.7,0.6-2.1,1.5c-0.3,0.7-0.3,1.5,0,2.2
		c0.4,1.1,1.5,1.7,2.7,1.4C35.8,15,36.5,14,36.5,12.7z"/>
	<path class="st1" d="M52.9,20.3c-1.3,0-2.6,0-3.8,0c-0.1,0-0.3-0.1-0.4-0.3c-0.6-1.1-1.2-2.2-1.8-3.3c-0.1-0.1-0.1-0.2-0.3-0.4
		c-0.3,0.4-0.7,0.7-1,1c-0.1,0.1-0.1,0.3-0.1,0.4c0,0.8,0,1.7,0,2.5c-1.2,0-2.3,0-3.4,0c0-4.8,0-9.5,0-14.3c1.1,0,2.3,0,3.4,0
		c0,2.4,0,4.8,0,7.3c0.3-0.3,0.5-0.5,0.8-0.7c0.8-0.8,1.6-1.7,2.4-2.5c0.1-0.1,0.3-0.2,0.4-0.2c1.2,0,2.4,0,3.7,0
		c-0.1,0.2-0.2,0.3-0.3,0.4c-1.1,1.1-2.1,2.3-3.2,3.4c-0.2,0.2-0.2,0.4-0.1,0.6c1.2,1.9,2.3,3.8,3.4,5.7
		C52.8,20,52.8,20.1,52.9,20.3z"/>
	<path class="st1" d="M24.7,13.4c1,0,1.7,0.7,1.7,1.6c0,1-0.7,1.7-1.6,1.7c-1,0-1.7-0.7-1.7-1.7C23,14.1,23.7,13.4,24.7,13.4z"/>
</g>
</svg>
