<?xml version="1.0" encoding="utf-8"?>
<!-- Generator: Adobe Illustrator 23.0.5, SVG Export Plug-In . SVG Version: 6.00 Build 0)  -->
<svg version="1.1" id="Layer_1" xmlns="http://www.w3.org/2000/svg" xmlns:xlink="http://www.w3.org/1999/xlink" x="0px" y="0px"
	 viewBox="0 0 84 28" style="enable-background:new 0 0 84 28;" xml:space="preserve">
<style type="text/css">
	.st0{fill:#163B4F;}
	.st1{fill:#01411C;}
</style>
<path class="st0" d="M-137.9-92.8L-137.9-92.8C-137.9-92.9-137.9-92.9-137.9-92.8z M-143.9-92.8L-143.9-92.8L-143.9-92.8z"/>
<g>
	<g>
		<path class="st1" d="M60.3,17.1c0,1.4,0,2.9,0,4.3c-1,0-1.9,0-2.9,0c0-4,0-8,0-11.9c0.9,0,1.8,0,2.9,0c0,0.3,0,0.7,0,1
			c0.1,0,0.1,0,0.1,0c1.1-1.2,2.4-1.3,3.8-0.9c1.5,0.4,2.4,1.5,2.7,2.9c0.3,0.9,0.3,1.9,0,2.9C66.1,18.3,62.6,19.3,60.3,17.1z
			 M64.1,13.7C64,13.4,64,13,64,12.8c-0.3-0.8-1-1.3-1.8-1.3c-0.8,0-1.4,0.5-1.8,1.3c-0.3,0.6-0.3,1.3,0,1.8
			c0.3,0.9,1.3,1.4,2.3,1.2C63.5,15.6,64.1,14.8,64.1,13.7z"/>
		<path class="st1" d="M77.9,20.1c-1.1,0-2.2,0-3.2,0c-0.1,0-0.3-0.1-0.3-0.3c-0.5-0.9-1-1.8-1.5-2.8c-0.1-0.1-0.1-0.2-0.3-0.3
			c-0.3,0.3-0.6,0.6-0.8,0.8c-0.1,0.1-0.1,0.3-0.1,0.3c0,0.7,0,1.4,0,2.1c-1,0-1.9,0-2.9,0c0-4,0-8,0-12c0.9,0,1.9,0,2.9,0
			c0,2,0,4,0,6.1c0.3-0.3,0.4-0.4,0.7-0.6c0.7-0.7,1.3-1.4,2-2.1c0.1-0.1,0.3-0.2,0.3-0.2c1,0,2,0,3.1,0c-0.1,0.2-0.2,0.3-0.3,0.3
			c-0.9,0.9-1.8,1.9-2.7,2.9c-0.2,0.2-0.2,0.3-0.1,0.5c1,1.6,1.9,3.2,2.9,4.8C77.8,19.8,77.8,19.9,77.9,20.1z"/>
		<path class="st1" d="M54.2,14.3c0.8,0,1.4,0.6,1.4,1.3c0,0.8-0.6,1.4-1.3,1.4c-0.8,0-1.4-0.6-1.4-1.4
			C52.8,14.9,53.4,14.3,54.2,14.3z"/>
	</g>
	<path class="st1" d="M6.2,13.2c0.9,0,1.5,0.6,1.5,1.4c0,0.9-0.6,1.5-1.4,1.5c-0.9,0-1.5-0.6-1.5-1.5C4.7,13.8,5.3,13.2,6.2,13.2z"
		/>
	<path class="st1" d="M42.9,11.2c0.6-0.9,1.3-1.5,2.3-1.8c2.2-0.7,4.2,0.5,4.7,2.8c0.1,0.5,0.2,1.1,0.2,1.6c0,2,0,4.1,0,6.1
		c0,0.1,0,0.2,0,0.3c-0.9,0-1.7,0-2.7,0c0-0.2,0-0.3,0-0.5c0-1.9,0-3.7,0-5.6c0-0.4-0.1-0.9-0.2-1.3c-0.3-1-0.9-1.5-1.8-1.4
		c-0.9,0-1.7,0.7-1.9,1.6c-0.1,0.3-0.1,0.6-0.1,1c0,2.1,0,4.1,0,6.2c0,0,0,0.1,0,0.1c-0.9,0-1.7,0-2.7,0c0-0.2,0-0.4,0-0.5
		c0-1.9,0-3.8,0-5.7c0-0.5-0.1-0.9-0.2-1.4c-0.4-1.2-1.7-1.6-2.8-0.8c-0.7,0.5-1,1.3-1,2.1c0,1.9,0,3.9,0,5.8c0,0.2,0,0.3,0,0.5
		c-0.9,0-1.7,0-2.7,0c0-3.6,0-7.2,0-10.8c0.7,0,1.5,0,2.3,0c0,0.5,0.1,1,0.1,1.6c0.8-1.2,1.9-1.9,3.3-1.9
		C41.2,9.1,42.2,9.8,42.9,11.2z"/>
	<path class="st1" d="M26.2,20.4c-3.2,0-5.5-2.4-5.4-5.7c0-1.7,0.5-3.3,1.9-4.4c1.8-1.4,3.8-1.6,5.9-0.8c1.9,0.7,2.9,2.3,3.2,4.3
		c0.1,1,0.1,2-0.3,3C30.8,19,28.7,20.4,26.2,20.4z M28.9,14.7c0-0.6-0.1-1.2-0.3-1.7c-0.3-1-1.1-1.9-2.2-1.9
		c-1.4-0.1-2.4,1.1-2.7,2.3c-0.2,0.8-0.2,1.6,0,2.4c0.2,0.8,0.5,1.6,1.2,2.1c0.8,0.6,1.9,0.6,2.7,0.1c0.9-0.6,1.2-1.6,1.3-2.6
		C28.9,15.2,28.9,14.9,28.9,14.7z"/>
	<path class="st1" d="M19.7,9.4c-0.2,0.8-0.3,1.4-0.5,2.1c-1.9-0.5-3.6-0.8-4.9,1.1c-0.8,1.2-0.7,3.1,0.2,4.3
		c0.9,1.2,2.3,1.5,4.8,0.9c0.1,0.7,0.2,1.3,0.4,2.1c-0.8,0.2-1.5,0.3-2.3,0.4c-1.5,0.2-2.9,0-4.1-0.9c-1.7-1.1-2.4-2.8-2.3-4.8
		c0.1-4.1,3.3-5.9,6.6-5.6C18.3,9.1,19,9.3,19.7,9.4z"/>
</g>
</svg>
