<?xml version="1.0" encoding="utf-8"?>
<!-- Generator: Adobe Illustrator 23.0.5, SVG Export Plug-In . SVG Version: 6.00 Build 0)  -->
<svg version="1.1" id="Layer_1" xmlns="http://www.w3.org/2000/svg" xmlns:xlink="http://www.w3.org/1999/xlink" x="0px" y="0px"
	 viewBox="0 0 84 28" style="enable-background:new 0 0 84 28;" xml:space="preserve">
<style type="text/css">
	.st0{fill:#163B4F;}
</style>
<path class="st0" d="M-137.9-92.8L-137.9-92.8C-137.9-92.9-137.9-92.9-137.9-92.8z M-143.9-92.8L-143.9-92.8L-143.9-92.8z"/>
<g>
	<path d="M5.2,20.1c-0.3-0.3-0.5-0.7-0.5-1.2s0.2-0.9,0.5-1.2c0.3-0.3,0.8-0.5,1.3-0.5c0.5,0,0.9,0.2,1.2,0.5
		c0.3,0.3,0.5,0.7,0.5,1.2s-0.2,0.9-0.5,1.2S7,20.6,6.5,20.6C6,20.6,5.6,20.4,5.2,20.1z"/>
	<path d="M20.9,15.7h-8.2c0.1,0.8,0.4,1.4,0.9,1.9c0.5,0.5,1.1,0.7,1.8,0.7c1.1,0,1.8-0.5,2.2-1.4h3.1c-0.3,1.1-0.9,2-1.9,2.7
		c-0.9,0.7-2,1-3.4,1c-1.1,0-2-0.2-2.9-0.7s-1.5-1.2-2-2s-0.7-1.9-0.7-3c0-1.2,0.2-2.2,0.7-3.1c0.5-0.9,1.1-1.6,2-2
		C13.3,9.3,14.3,9,15.4,9c1.1,0,2,0.2,2.9,0.7c0.8,0.5,1.5,1.1,2,2c0.5,0.8,0.7,1.8,0.7,2.9C20.9,15,20.9,15.4,20.9,15.7z M18,13.8
		c0-0.7-0.3-1.3-0.8-1.8c-0.5-0.4-1.1-0.7-1.9-0.7c-0.7,0-1.3,0.2-1.8,0.6c-0.5,0.4-0.8,1-0.9,1.8H18z"/>
	<path d="M23,11.8c0.5-0.9,1.1-1.6,1.9-2C25.6,9.3,26.5,9,27.4,9c0.7,0,1.4,0.2,2.1,0.5c0.7,0.3,1.2,0.7,1.6,1.3V5.4H34v15h-2.9
		v-1.7c-0.4,0.6-0.8,1-1.5,1.3s-1.4,0.5-2.2,0.5c-0.9,0-1.8-0.2-2.6-0.7c-0.8-0.5-1.4-1.2-1.9-2.1s-0.7-1.9-0.7-3
		C22.3,13.7,22.5,12.6,23,11.8z M30.7,13.1c-0.3-0.5-0.6-0.9-1.1-1.1c-0.5-0.3-1-0.4-1.5-0.4s-1,0.1-1.5,0.4
		c-0.4,0.3-0.8,0.6-1.1,1.1c-0.3,0.5-0.4,1.1-0.4,1.8c0,0.7,0.1,1.3,0.4,1.8c0.3,0.5,0.6,0.9,1.1,1.2c0.5,0.3,0.9,0.4,1.4,0.4
		c0.5,0,1-0.1,1.5-0.4s0.8-0.6,1.1-1.1c0.3-0.5,0.4-1.1,0.4-1.8S31,13.6,30.7,13.1z"/>
	<path d="M47.3,9.2v11.2h-2.9V19c-0.4,0.5-0.8,0.9-1.4,1.1s-1.2,0.4-1.9,0.4c-0.9,0-1.7-0.2-2.3-0.6c-0.7-0.4-1.2-0.9-1.6-1.6
		c-0.4-0.7-0.6-1.6-0.6-2.6V9.2h2.8v6.2c0,0.9,0.2,1.6,0.7,2.1c0.4,0.5,1.1,0.7,1.8,0.7c0.8,0,1.4-0.2,1.8-0.7s0.7-1.2,0.7-2.1V9.2
		H47.3z"/>
	<path d="M50.1,20.1c-0.3-0.3-0.5-0.7-0.5-1.2s0.2-0.9,0.5-1.2c0.3-0.3,0.8-0.5,1.3-0.5c0.5,0,0.9,0.2,1.2,0.5
		c0.3,0.3,0.5,0.7,0.5,1.2s-0.2,0.9-0.5,1.2c-0.3,0.3-0.7,0.5-1.2,0.5C50.9,20.6,50.5,20.4,50.1,20.1z"/>
	<path d="M59.7,9.6C60.4,9.2,61.1,9,61.9,9c1,0,1.8,0.2,2.6,0.7c0.8,0.5,1.4,1.1,1.8,2c0.5,0.9,0.7,1.9,0.7,3c0,1.1-0.2,2.2-0.7,3
		c-0.5,0.9-1.1,1.6-1.8,2.1c-0.8,0.5-1.6,0.7-2.6,0.7c-0.8,0-1.5-0.2-2.2-0.5c-0.6-0.3-1.1-0.8-1.5-1.3v6.9h-2.8V9.2h2.8v1.6
		C58.6,10.3,59.1,9.9,59.7,9.6z M63.8,13c-0.3-0.5-0.6-0.9-1.1-1.1c-0.5-0.3-0.9-0.4-1.5-0.4c-0.5,0-1,0.1-1.4,0.4
		c-0.5,0.3-0.8,0.6-1.1,1.1c-0.3,0.5-0.4,1.1-0.4,1.8c0,0.7,0.1,1.3,0.4,1.8c0.3,0.5,0.6,0.9,1.1,1.1c0.5,0.3,0.9,0.4,1.4,0.4
		c0.5,0,1-0.1,1.5-0.4c0.5-0.3,0.8-0.7,1.1-1.2c0.3-0.5,0.4-1.1,0.4-1.8C64.2,14.1,64,13.5,63.8,13z"/>
	<path d="M75.8,20.4L72,15.7v4.8h-2.8v-15H72V14l3.8-4.8h3.7l-4.9,5.6l5,5.6H75.8z"/>
</g>
</svg>
