<?xml version="1.0" encoding="utf-8"?>
<!-- Generator: Adobe Illustrator 23.0.5, SVG Export Plug-In . SVG Version: 6.00 Build 0)  -->
<svg version="1.1" id="Layer_1" xmlns="http://www.w3.org/2000/svg" xmlns:xlink="http://www.w3.org/1999/xlink" x="0px" y="0px"
	 viewBox="0 0 84 28" style="enable-background:new 0 0 84 28;" xml:space="preserve">
<style type="text/css">
	.st0{fill:#163B4F;}
</style>
<path class="st0" d="M-137.9-92.8L-137.9-92.8C-137.9-92.9-137.9-92.9-137.9-92.8z M-143.9-92.8L-143.9-92.8L-143.9-92.8z"/>
<g>
	<path d="M23.6,13.7c1,0,1.7,0.7,1.7,1.6c0,1-0.7,1.7-1.6,1.7c-1,0-1.7-0.7-1.7-1.7C21.8,14.4,22.6,13.7,23.6,13.7z"/>
	<g>
		<path d="M42,9.3v12.8h-3.3v-1.6c-0.4,0.6-1,1-1.6,1.3c-0.7,0.3-1.4,0.5-2.2,0.5c-1,0-1.9-0.2-2.7-0.6c-0.8-0.4-1.4-1.1-1.8-1.9
			c-0.4-0.8-0.7-1.8-0.7-3V9.3H33v7.1c0,1,0.3,1.8,0.8,2.4c0.5,0.5,1.2,0.8,2.1,0.8c0.9,0,1.6-0.3,2.1-0.8c0.5-0.5,0.8-1.3,0.8-2.4
			V9.3H42z"/>
		<path d="M52.8,22.1l-4.4-5.5v5.5h-3.2V5h3.2v9.8l4.3-5.4h4.2l-5.7,6.4l5.7,6.4H52.8z"/>
	</g>
</g>
</svg>
