<?xml version="1.0" encoding="utf-8"?>
<!-- Generator: Adobe Illustrator 19.0.0, SVG Export Plug-In . SVG Version: 6.00 Build 0)  -->
<svg version="1.1" id="Layer_1" xmlns="http://www.w3.org/2000/svg" xmlns:xlink="http://www.w3.org/1999/xlink" x="0px" y="0px"
	 viewBox="0 0 87 21" style="enable-background:new 0 0 87 21;" xml:space="preserve">
<style type="text/css">
	.st0{fill:#61656A;}
	.st1{fill:#567FC0;}
	.st2{fill:#EA4736;}
	.st3{fill:#F7BB17;}
	.st4{fill:#36A851;}
</style>
<g id="XMLID_9_">
	<path id="XMLID_40_" class="st0" d="M45.4,5.8h1l-2,7.6h-1l-1.6-5l0,0l-1.6,5h-1L37,5.8h1l1.6,6h0l1.6-5h0.9l1.6,5h0L45.4,5.8z"/>
	<g id="XMLID_25_">
		<path id="XMLID_35_" class="st0" d="M46.3,10.8c0-0.8,0.3-1.5,0.8-2C47.6,8.3,48.2,8,49,8s1.4,0.3,1.9,0.8c0.5,0.5,0.8,1.2,0.8,2
			s-0.3,1.5-0.8,2c-0.5,0.5-1.1,0.8-1.9,0.8s-1.4-0.3-1.9-0.8C46.6,12.2,46.3,11.6,46.3,10.8 M47.3,10.8c0,0.6,0.2,1,0.5,1.4
			s0.7,0.5,1.2,0.5s0.9-0.2,1.2-0.5c0.3-0.4,0.5-0.8,0.5-1.4c0-0.5-0.2-1-0.5-1.3C49.9,9.2,49.4,9,49,9c-0.5,0-0.9,0.2-1.2,0.5
			C47.5,9.8,47.3,10.3,47.3,10.8 M53.3,13.4h-1V8.2h0.9v0.8h0c0.1-0.3,0.3-0.5,0.6-0.7C54.2,8.2,54.6,8,54.8,8c0.3,0,0.5,0,0.7,0.1
			l-0.3,0.9c-0.1,0-0.3-0.1-0.6-0.1c-0.4,0-0.7,0.1-1,0.4c-0.3,0.3-0.4,0.7-0.4,1L53.3,13.4L53.3,13.4z M60.6,13.4h-1.1L57.8,11
			L57,11.8v1.7h-1V5.8h1v4.7l2.3-2.3h1.2v0l-2,2L60.6,13.4L60.6,13.4z"/>
		<path id="XMLID_26_" class="st0" d="M64.8,12c0,0.4-0.2,0.8-0.6,1.1c-0.4,0.3-0.9,0.5-1.5,0.5c-0.5,0-1-0.1-1.4-0.4
			c-0.4-0.3-0.7-0.6-0.8-1.1l0.9-0.4c0.1,0.3,0.3,0.6,0.6,0.7c0.2,0.2,0.5,0.3,0.8,0.3c0.3,0,0.6-0.1,0.8-0.2s0.3-0.3,0.3-0.5
			c0-0.3-0.3-0.6-0.8-0.8l-0.9-0.2c-1-0.3-1.5-0.8-1.5-1.5c0-0.5,0.2-0.8,0.6-1.1C61.7,8.2,62.2,8,62.7,8c0.4,0,0.9,0.1,1.2,0.3
			c0.4,0.2,0.6,0.5,0.8,0.9l-0.9,0.4c-0.1-0.2-0.3-0.4-0.5-0.5s-0.5-0.2-0.8-0.2c-0.2,0-0.5,0-0.7,0.2c-0.2,0.1-0.3,0.3-0.3,0.5
			c0,0.3,0.3,0.5,0.8,0.6l0.8,0.2C64.3,10.7,64.8,11.2,64.8,12 M68.2,13.6c-0.4,0-0.7-0.1-1.1-0.3c-0.3-0.2-0.6-0.4-0.7-0.7h0l0,0.7
			v2.3h-1V8.2h0.9v0.7h0c0.2-0.3,0.4-0.5,0.7-0.7C67.4,8.1,67.8,8,68.2,8c0.7,0,1.3,0.3,1.7,0.8c0.5,0.5,0.8,1.2,0.8,1.9
			s-0.3,1.4-0.8,1.9C69.4,13.3,68.8,13.6,68.2,13.6 M68,12.7c0.5,0,0.8-0.2,1.2-0.5c0.3-0.4,0.5-0.8,0.5-1.3c0-0.5-0.2-1-0.5-1.3
			C68.9,9.2,68.5,9,68,9c-0.5,0-0.9,0.2-1.2,0.5c-0.3,0.4-0.5,0.8-0.5,1.3c0,0.5,0.2,1,0.5,1.4C67.2,12.5,67.6,12.7,68,12.7 M73.3,8
			C74,8,74.6,8.2,75,8.6c0.4,0.4,0.6,0.9,0.6,1.6v3.2h-0.9v-0.7h0c-0.4,0.6-0.9,0.9-1.6,0.9c-0.6,0-1.1-0.2-1.4-0.5
			c-0.4-0.4-0.6-0.8-0.6-1.3c0-0.5,0.2-1,0.6-1.3c0.4-0.3,0.9-0.5,1.6-0.5c0.6,0,1.1,0.1,1.4,0.3v-0.2c0-0.4-0.1-0.6-0.4-0.8
			c-0.3-0.2-0.6-0.4-0.9-0.4c-0.5,0-1,0.2-1.3,0.7l-0.8-0.5C71.7,8.4,72.4,8,73.3,8 M72,11.8c0,0.3,0.1,0.5,0.3,0.6
			c0.2,0.2,0.5,0.3,0.8,0.3c0.4,0,0.8-0.1,1.1-0.4c0.3-0.3,0.5-0.7,0.5-1.1c-0.3-0.2-0.7-0.4-1.3-0.4c-0.4,0-0.7,0.1-1,0.3
			C72.2,11.3,72,11.5,72,11.8 M78.9,13.6c-0.8,0-1.4-0.3-1.9-0.8c-0.5-0.5-0.8-1.2-0.8-2s0.3-1.5,0.8-2C77.5,8.3,78.2,8,78.9,8
			c0.5,0,1,0.1,1.4,0.4C80.7,8.7,81,9,81.2,9.5l-0.9,0.4c-0.3-0.7-0.8-1-1.5-1c-0.4,0-0.8,0.2-1.1,0.5c-0.3,0.4-0.5,0.8-0.5,1.3
			c0,0.5,0.2,1,0.5,1.3c0.3,0.4,0.7,0.5,1.1,0.5c0.7,0,1.2-0.3,1.5-1l0.9,0.4c-0.2,0.5-0.5,0.8-0.9,1.1
			C79.9,13.4,79.4,13.6,78.9,13.6 M84.2,13.6c-0.8,0-1.4-0.3-1.9-0.8c-0.5-0.5-0.8-1.2-0.8-2s0.2-1.5,0.7-2C82.7,8.3,83.3,8,84.1,8
			c0.8,0,1.4,0.3,1.9,0.8c0.4,0.5,0.7,1.2,0.7,2.1v0.1h-4.1c0,0.5,0.2,0.9,0.5,1.2c0.3,0.3,0.7,0.5,1.1,0.5c0.6,0,1.1-0.3,1.5-0.9
			l0.9,0.4c-0.2,0.4-0.6,0.8-1,1C85.2,13.4,84.7,13.6,84.2,13.6 M82.6,10.2h3c0-0.4-0.2-0.7-0.4-0.9c-0.3-0.2-0.6-0.4-1.1-0.4
			c-0.4,0-0.7,0.1-0.9,0.4C82.9,9.5,82.7,9.8,82.6,10.2"/>
	</g>
	<g id="XMLID_10_">
		<path id="XMLID_24_" class="st1" d="M4.8,10.1V8.9h3.9c0,0.2,0,0.5,0,0.7c0,0.9-0.2,2-1,2.7c-0.8,0.8-1.7,1.2-3,1.2
			c-2.3,0-4.3-1.9-4.3-4.3S2.4,5,4.7,5C6,5,7,5.5,7.6,6.1L6.8,7C6.4,6.5,5.7,6.1,4.7,6.1C3,6.1,1.6,7.5,1.6,9.3s1.4,3.1,3.1,3.1
			c1.1,0,1.8-0.4,2.2-0.8c0.4-0.4,0.5-0.8,0.6-1.5L4.8,10.1z"/>
		<path id="XMLID_21_" class="st2" d="M14.7,10.8c0,1.6-1.2,2.7-2.8,2.7s-2.8-1.1-2.8-2.7c0-1.6,1.2-2.7,2.8-2.7S14.7,9.2,14.7,10.8
			 M13.5,10.8c0-1-0.7-1.7-1.5-1.7c-0.8,0-1.5,0.7-1.5,1.7c0,1,0.7,1.7,1.5,1.7C12.8,12.5,13.5,11.8,13.5,10.8"/>
		<path id="XMLID_18_" class="st3" d="M20.8,10.8c0,1.6-1.2,2.7-2.8,2.7c-1.5,0-2.8-1.1-2.8-2.7C15.2,9.2,16.4,8,18,8
			C19.5,8,20.8,9.2,20.8,10.8 M19.5,10.8c0-1-0.7-1.7-1.5-1.7c-0.8,0-1.5,0.7-1.5,1.7c0,1,0.7,1.7,1.5,1.7
			C18.8,12.5,19.5,11.8,19.5,10.8"/>
		<path id="XMLID_15_" class="st1" d="M26.6,8.2v5c0,2-1.2,2.9-2.6,2.9c-1.3,0-2.2-0.9-2.4-1.6l1.1-0.4c0.2,0.4,0.7,1,1.4,1
			c0.9,0,1.5-0.6,1.5-1.6v-0.4h0c-0.3,0.4-0.8,0.6-1.5,0.6c-1.4,0-2.7-1.2-2.7-2.7S22.5,8,23.9,8c0.7,0,1.2,0.3,1.5,0.6h0V8.2
			L26.6,8.2L26.6,8.2z M25.5,10.8c0-1-0.7-1.7-1.5-1.7c-0.8,0-1.5,0.7-1.5,1.7s0.7,1.7,1.5,1.7C24.8,12.5,25.5,11.8,25.5,10.8"/>
		<path id="XMLID_14_" class="st4" d="M27.4,5.3h1.2v8.1h-1.2C27.4,13.4,27.4,5.3,27.4,5.3z"/>
		<path id="XMLID_11_" class="st2" d="M33.3,11.7l0.9,0.6c-0.3,0.4-1,1.2-2.3,1.2c-1.5,0-2.7-1.2-2.7-2.7c0-1.6,1.2-2.7,2.6-2.7
			c1.4,0,2.1,1.1,2.3,1.8l0.1,0.3l-3.7,1.5c0.3,0.6,0.7,0.8,1.3,0.8C32.5,12.5,33,12.2,33.3,11.7 M30.4,10.7l2.5-1
			c-0.1-0.4-0.5-0.6-1-0.6C31.2,9.1,30.4,9.7,30.4,10.7"/>
	</g>
</g>
</svg>
