<?xml version="1.0" encoding="utf-8"?>
<!-- Generator: Adobe Illustrator 21.0.0, SVG Export Plug-In . SVG Version: 6.00 Build 0)  -->
<svg version="1.1" id="Layer_1" xmlns="http://www.w3.org/2000/svg" xmlns:xlink="http://www.w3.org/1999/xlink" x="0px" y="0px"
	 viewBox="0 0 512 512" style="enable-background:new 0 0 512 512;" xml:space="preserve">
<g>
	<path d="M351.8,93.5c-2.6,0-5,2.1-5,5v90.8l-20.6-12l-4.2-1.1l-4.2,1.1l-49.5,28.8c-2.6,1.5-4.2,4.2-4.2,7.2V271
		c0,3,1.6,5.7,4.2,7.2l49.5,28.8l4.2,1.1l4.2-1.1l49.5-28.8c2.6-1.5,4.2-4.2,4.2-7.2v-28.9v-28.9v-99.5c0-2.9-1.6-5.6-4.1-7.1
		l-21.5-12.5L351.8,93.5z M189.9,176.1l-4.2,1.1l-49.5,28.8c-2.6,1.5-4.2,4.2-4.2,7.2V271c0,3,1.6,5.7,4.2,7.2l49.5,28.8
		c2.6,1.5,5.8,1.5,8.4,0l49.5-28.8c2.6-1.5,4.2-4.2,4.2-7.2v-57.7c0-3-1.6-5.7-4.2-7.2l-49.5-28.8L189.9,176.1z M454.2,176.1
		l-4.2,1.1l-49.5,28.8c-2.6,1.5-4.2,4.2-4.2,7.2V271c0,3,1.6,5.7,4.2,7.2l48,29c2.6,1.6,5.8,1.6,8.4,0.1l23.6-13.7
		c2.4-1.4,2.5-5,0-6.4l-51.1-30.1v-29.6l24.8-14.4l24.8,14.4v20.6c0,2.8,2.3,3.2,3.9,2.3c6.2-3.7,25.1-14.6,25.1-14.6
		c2.5-1.5,4.1-4.2,4.1-7.1v-15.4c0-3-1.6-5.7-4.2-7.2l-49.5-28.8L454.2,176.1z M57.8,176.1l-4.2,1.1L4.2,206.1
		c-2.6,1.5-4.2,4.3-4.2,7.2V287c0,3.6,3.9,5.8,7,4l21.9-12.8c2.5-1.5,4.1-4.2,4.1-7.1v-43.6L57.8,213l24.8,14.5v43.6
		c0,2.9,1.6,5.6,4.1,7.1l21.9,12.8c3.1,1.8,7-0.4,7-4v-73.7c0-3-1.6-5.7-4.2-7.2L62,177.3L57.8,176.1z M322.1,213l24.8,14.5v14.7
		v14.7l-24.8,14.5l-24.8-14.5v-29.4L322.1,213z M454.2,225.7L440,234v16.5l14.2,8.2l14.2-8.2V234L454.2,225.7z M254.5,291.7
		c-1.7,0-3.4,0.4-4.9,1.3l-46.5,26.8c-3.1,1.7-4.9,5-4.9,8.5v53.6c0,3.5,1.9,6.7,4.9,8.5l12.2,7c5.9,2.9,8,2.9,10.7,2.9
		c8.8,0,13.7-5.2,13.7-14.5v-53l-1.4-1.4h-5.9l-1.4,1.4v53c0,4-4.2,8.1-11.2,4.7l-12.7-7.3l-0.7-1.2v-53.6l0.7-1.3l46.5-26.8h1.5
		l46.5,26.8l0.7,1.3v53.6l-0.7,1.3L255.2,410h-1.5l-11.9-7.1l-1.1-0.1c-3.3,1.9-3.9,2.2-7,3.2c-0.8,0.3-1.9,0.7,0.4,2l15.4,9.2
		c1.5,0.8,3.2,1.3,4.9,1.3c1.8,0,3.5-0.5,4.8-1.4l46.5-26.9c3.1-1.7,4.9-5,4.9-8.5v-53.6c0-3.5-1.9-6.7-4.9-8.5l-46.5-26.8
		C257.8,292.1,256.2,291.7,254.5,291.7z M326.9,316.4c-4.7,0-8.9,3.8-8.9,8.9c0,4.9,4,8.9,8.9,8.9s8.9-4,8.9-8.9
		C335.8,320.2,331.7,316.3,326.9,316.4z M326.8,317.8c4.2,0,7.6,3.3,7.6,7.5c0,4.1-3.4,7.5-7.6,7.6c-4.1,0-7.5-3.4-7.5-7.6
		C319.4,321.1,322.7,317.8,326.8,317.8z M323.5,320.2v10h1.9v-4h1.8l1.1,0.9l0.4,3.2h2.1l-0.5-2.7l-1.7-2.3c0.7-0.3,1.9-0.6,1.9-2.5
		c0-2.7-2.3-2.6-3.5-2.6H323.5z M325.5,321.9h1.6l1.5,1.4l-1.5,1.5h-1.5V321.9z M266.9,330c-13.3,0-21.1,5.7-21.1,15
		c0,10.2,7.9,12.9,20.6,14.2c15.2,1.5,16.4,3.7,16.4,6.7c0,5.2-4.2,7.4-14,7.4c-12.3,0-15-3-15.9-9.2l-1.4-1.1h-6l-1.4,1.4
		c0,7.8,4.3,17.1,24.6,17.1c14.9,0,23.4-5.8,23.4-15.9c0-10-6.8-12.7-21.1-14.6c-14.5-1.9-15.9-2.9-15.9-6.3c0-2.8,1.2-6.5,11.9-6.5
		c9.6,0,13.1,2.1,14.6,8.5l1.3,1h6l1-0.4l0.3-1C289.1,335.2,281.8,330,266.9,330z"/>
</g>
</svg>
