<?xml version="1.0" encoding="utf-8"?>
<!-- Generator: Adobe Illustrator 23.0.5, SVG Export Plug-In . SVG Version: 6.00 Build 0)  -->
<svg version="1.1" id="Layer_1" xmlns="http://www.w3.org/2000/svg" xmlns:xlink="http://www.w3.org/1999/xlink" x="0px" y="0px"
	 viewBox="0 0 44 35" style="enable-background:new 0 0 44 35;" xml:space="preserve">
<style type="text/css">
	.st0{fill-rule:evenodd;clip-rule:evenodd;fill:#FEE000;}
</style>
<path class="st0" d="M4.1,16.7h10.7c1,0,1.9,0.4,2.6,1.1c0.7,0.7,1.1,1.6,1.1,2.6v10.9c0,1-0.4,1.9-1.1,2.6
	c-0.7,0.7-1.6,1.1-2.6,1.1H3.9c-1,0-1.9-0.4-2.6-1.1c-0.7-0.7-1.1-1.6-1.1-2.6V19.1c0-3.3,0.8-6.5,2.4-9.4c1.5-2.9,3.8-5.4,6.5-7.2
	l3.2-2.2l2,3l-3.2,2.2c-1.9,1.3-3.5,2.9-4.7,4.8C5.2,12.3,4.4,14.4,4.1,16.7z M29.4,16.7h10.7c1,0,1.9,0.4,2.6,1.1
	c0.7,0.7,1.1,1.6,1.1,2.6v10.9c0,1-0.4,1.9-1.1,2.6c-0.7,0.7-1.6,1.1-2.6,1.1H29.3c-1,0-1.9-0.4-2.6-1.1c-0.7-0.7-1.1-1.6-1.1-2.6
	V19.1c0-3.3,0.8-6.5,2.4-9.4c1.5-2.9,3.8-5.4,6.5-7.2l3.3-2.2l2,3l-3.2,2.2c-1.9,1.3-3.5,2.9-4.7,4.8C30.6,12.3,29.8,14.4,29.4,16.7
	z"/>
</svg>
