<?xml version="1.0" encoding="utf-8"?>
<!-- Generator: Adobe Illustrator 19.0.0, SVG Export Plug-In . SVG Version: 6.00 Build 0)  -->
<svg version="1.1" id="Layer_1" xmlns="http://www.w3.org/2000/svg" xmlns:xlink="http://www.w3.org/1999/xlink" x="0px" y="0px"
	 viewBox="0 0 87 21" style="enable-background:new 0 0 87 21;" xml:space="preserve">
<style type="text/css">
	.st0{fill:#091B2A;}
	.st1{fill:#00AF73;}
</style>
<g>
	<g>
		<path class="st0" d="M80.2,4.9c0-0.4,0.1-0.8,0.3-1.1s0.5-0.6,0.8-0.8c0.4-0.2,0.7-0.3,1.1-0.3s0.8,0.1,1.1,0.3
			c0.4,0.2,0.6,0.5,0.8,0.8s0.3,0.7,0.3,1.1c0,0.4-0.1,0.8-0.3,1.1c-0.2,0.3-0.5,0.6-0.8,0.8c-0.4,0.2-0.7,0.3-1.2,0.3
			c-0.4,0-0.8-0.1-1.2-0.3c-0.4-0.2-0.6-0.5-0.8-0.8C80.3,5.7,80.2,5.3,80.2,4.9z M80.5,4.9c0,0.3,0.1,0.7,0.3,1
			c0.2,0.3,0.4,0.5,0.7,0.7c0.3,0.2,0.6,0.2,1,0.2s0.7-0.1,1-0.3s0.5-0.4,0.7-0.7c0.2-0.3,0.2-0.6,0.2-1s-0.1-0.7-0.2-1
			c-0.2-0.3-0.4-0.5-0.7-0.7S82.8,3,82.4,3c-0.3,0-0.7,0.1-1,0.2c-0.3,0.2-0.5,0.4-0.7,0.7C80.6,4.2,80.5,4.6,80.5,4.9z M82,5.1v1
			h-0.4V3.6h0.9c0.3,0,0.6,0.1,0.8,0.2c0.2,0.1,0.3,0.3,0.3,0.6c0,0.2-0.1,0.4-0.4,0.6c0.3,0.1,0.4,0.3,0.4,0.6v0.2
			c0,0.2,0,0.3,0.1,0.4v0H83c0-0.1,0-0.2,0-0.4c0-0.2,0-0.3,0-0.3c0-0.2-0.2-0.3-0.4-0.3L82,5.1L82,5.1z M82,4.7h0.5
			c0.2,0,0.3,0,0.4-0.1C82.9,4.6,83,4.5,83,4.4c0-0.1,0-0.2-0.1-0.3C82.8,4,82.6,4,82.4,4H82L82,4.7L82,4.7z"/>
	</g>
	<g>
		<g>
			<path class="st1" d="M14.1,3.4c0.2-0.3,0-0.7-0.4-0.7h-3.5H8.8H7.7c-1.3,0-2.3,0.3-3.1,1C3.8,4.3,3.4,5.3,3.3,6.6l0,0L3,9.9l0,0
				c-0.1,1.3,0.2,2.3,0.8,2.9c0.6,0.7,1.6,1,2.9,1h1.4v0c0.3,0,0.4-0.2,0.5-0.5l0.1-1.6c0-0.3-0.2-0.5-0.5-0.5H7.4
				c-0.5,0-0.9-0.1-1.1-0.3c-0.2-0.2-0.3-0.6-0.2-1.1l0.3-3c0-0.5,0.2-0.9,0.4-1.1C7,5.4,7.4,5.3,7.9,5.3h0.6h1H12
				c0.5,0,1-0.3,1.2-0.7L14.1,3.4z"/>
			<path class="st1" d="M2.4,17.6c-0.2,0.3,0,0.7,0.4,0.7h3.5h1.5H9c1.3,0,2.3-0.3,3.1-1c0.8-0.7,1.2-1.7,1.3-2.9l0,0l0.3-3.3l0,0
				c0.1-1.3-0.2-2.3-0.8-2.9c-0.6-0.7-1.6-1-2.9-1H8.5v0c-0.3,0-0.4,0.2-0.5,0.5L7.9,9.3c0,0.3,0.2,0.5,0.5,0.5h0.8
				c0.5,0,0.9,0.1,1.1,0.3c0.2,0.2,0.3,0.6,0.2,1.1l-0.3,3c0,0.5-0.2,0.9-0.4,1.1c-0.2,0.2-0.6,0.3-1.1,0.3H8.1H7H4.5
				c-0.5,0-1,0.3-1.2,0.7L2.4,17.6z"/>
		</g>
		<path class="st0" d="M23.4,18.4h-8c-0.3,0-0.5-0.2-0.5-0.5l1.3-14.7c0-0.3,0.2-0.5,0.6-0.5h8c0.3,0,0.5,0.2,0.4,0.5l-0.1,1.7
			c0,0.3-0.2,0.5-0.5,0.5h-5.1c-0.2,0-0.3,0.1-0.3,0.3l-0.3,3.2c0,0.2,0.1,0.3,0.3,0.3h4.2c0.3,0,0.5,0.2,0.5,0.5l-0.1,1.7
			c0,0.3-0.2,0.5-0.6,0.5h-4.2c-0.2,0-0.3,0.1-0.3,0.3l-0.3,3.4c0,0.2,0.1,0.3,0.3,0.3h5.1c0.3,0,0.5,0.2,0.4,0.5L24,17.9
			C23.9,18.2,23.8,18.4,23.4,18.4"/>
		<path class="st0" d="M32.1,18.4h-2.7c-1.3,0-2.3-0.3-2.9-1c-0.6-0.7-0.9-1.7-0.8-3l0.7-7.8c0.1-1.3,0.5-2.3,1.3-3s1.8-1,3.1-1h2.7
			c1.3,0,2.2,0.3,2.9,1c0.6,0.7,0.9,1.7,0.8,2.9L37,7.8c0,0.4-0.2,0.5-0.6,0.5h-2.1c-0.3,0-0.5-0.2-0.5-0.5l0.1-1
			c0-0.5,0-0.9-0.2-1.1c-0.2-0.2-0.6-0.3-1.1-0.3H31c-0.5,0-0.9,0.1-1.1,0.3c-0.2,0.2-0.4,0.6-0.4,1.1l-0.7,7.5c0,0.5,0,0.9,0.2,1.1
			c0.2,0.2,0.6,0.3,1.1,0.3h1.7c0.5,0,0.9-0.1,1.1-0.3s0.4-0.6,0.4-1.1l0.1-1c0-0.4,0.2-0.5,0.6-0.5H36c0.4,0,0.5,0.2,0.5,0.5
			l-0.1,1.1c-0.1,1.3-0.6,2.3-1.3,2.9C34.3,18,33.3,18.4,32.1,18.4"/>
		<path class="st0" d="M43.4,18.4h-2.1c-0.4,0-0.5-0.2-0.5-0.5l1.1-12.2c0-0.2-0.1-0.3-0.2-0.3h-2.8c-0.3,0-0.5-0.2-0.5-0.5l0.1-1.7
			c0-0.3,0.2-0.5,0.6-0.5h9.2c0.3,0,0.5,0.2,0.5,0.5l-0.1,1.7c0,0.3-0.2,0.5-0.6,0.5h-2.8c-0.2,0-0.3,0.1-0.3,0.3L44,17.8
			C43.9,18.2,43.8,18.4,43.4,18.4"/>
		<path class="st0" d="M53.5,3.2l-1.3,14.7c0,0.3-0.2,0.5-0.6,0.5h-2.1c-0.3,0-0.5-0.2-0.5-0.5l1.3-14.7c0-0.3,0.2-0.5,0.6-0.5h2.1
			C53.4,2.6,53.6,2.8,53.5,3.2"/>
		<path class="st0" d="M71.5,15.7h1.7c0.5,0,0.9-0.1,1.1-0.3s0.4-0.6,0.4-1.1l0.7-7.5c0-0.5,0-0.9-0.2-1.1c-0.2-0.2-0.6-0.3-1.1-0.3
			h-1.7c-0.5,0-0.9,0.1-1.1,0.3c-0.2,0.2-0.4,0.6-0.4,1.1l-0.7,7.5c0,0.5,0,0.9,0.2,1.1C70.6,15.6,71,15.7,71.5,15.7 M73.5,18.4
			h-2.7c-1.3,0-2.3-0.3-2.9-1c-0.6-0.7-0.9-1.7-0.8-3l0.7-7.8c0.1-1.3,0.5-2.3,1.3-3s1.8-1,3.1-1h2.7c1.3,0,2.3,0.3,2.9,1
			s0.9,1.7,0.8,3l-0.7,7.8c-0.1,1.3-0.5,2.3-1.3,3C75.8,18,74.8,18.4,73.5,18.4"/>
		<path class="st0" d="M63.1,7.9h2.1c0.3,0,0.5-0.2,0.6-0.5l0.1-0.7c0.1-1.3-0.2-2.3-0.8-2.9c-0.6-0.7-1.6-1-2.9-1h-2.6
			c-1.3,0-2.3,0.3-3.1,1c-0.8,0.7-1.2,1.7-1.3,3l-0.7,7.8c-0.1,1.3,0.1,2.3,0.8,3c0.6,0.7,1.6,1,2.9,1h2.6c1.3,0,2.3-0.3,3-1
			c0.8-0.7,1.2-1.7,1.3-2.9l0.4-4.1c0-0.4-0.1-0.6-0.5-0.6h-4.3h-0.6c-0.4,0-0.7,0.4-0.5,0.7l0.6,1.3c0.2,0.4,0.6,0.7,1.1,0.7h0.5
			c0.2,0,0.3,0.1,0.2,0.3L62,14.2c0,0.5-0.2,0.9-0.4,1.1c-0.2,0.2-0.6,0.3-1.1,0.3h-1.6c-0.5,0-0.9-0.1-1.1-0.3
			c-0.2-0.2-0.3-0.6-0.2-1.1l0.7-7.5c0-0.5,0.2-0.9,0.4-1.1c0.2-0.2,0.6-0.3,1.1-0.3h1.6c0.5,0,0.9,0.1,1.1,0.3
			c0.2,0.2,0.3,0.6,0.2,1.1l0,0.6C62.6,7.7,62.8,7.9,63.1,7.9"/>
	</g>
</g>
</svg>
