<?xml version="1.0" encoding="utf-8"?>
<!-- Generator: Adobe Illustrator 25.4.1, SVG Export Plug-In . SVG Version: 6.00 Build 0)  -->
<svg version="1.1" id="Layer_1" xmlns="http://www.w3.org/2000/svg" xmlns:xlink="http://www.w3.org/1999/xlink" x="0px" y="0px"
	 viewBox="0 0 920 537" style="enable-background:new 0 0 920 537;" xml:space="preserve">
<style type="text/css">
	.st0{fill:#FFE113;}
</style>
<path d="M-354.8,1461c-1.4,0.1-2.3,0-2.5-1.2c-0.2-1.1,0.5-1.7,1.5-1.9c2.9-0.6,5.7-1.1,8.6-1.6c1-0.2,1.8,0.2,2,1.3
	c0.2,1.1-0.3,1.8-1.4,2C-349.4,1460.1-352.3,1460.5-354.8,1461z"/>
<path d="M-348,1443.3c-1-0.2-2.3-0.4-3.6-0.8c-0.5-0.1-1-0.6-1.3-1c-0.4-0.6-0.2-1.5,0.4-1.8c2.2-1,4.3,0.2,6.4,0.6
	c0.6,0.1,1,1,0.8,1.7C-345.6,1443.3-346.6,1443.3-348,1443.3z"/>
<g>
	<path d="M576.6,430c4.2,0,8.6,0,13,0c13.2,0,26.5,0,39.7,0c5.9,0,7.8,1.9,7.8,7.7c0,10.4,0,20.7,0,31.1c0,5.4-2,7.3-7.4,7.3
		c-6.8,0-13.6,0-20.6,0c-0.1,1.5-0.2,2.5-0.2,3.6c0,7.9,0,15.9,0,23.8c0,6.8-1.7,8.4-8.3,8.4c-80.3,0-160.5,0-240.8,0
		c-11.8,0-23.6,0-35.4,0c-8.1,0-9.2-1.2-9.3-9.4c0-7.6,0-15.2,0-22.8c0-1.1-0.1-2.1-0.2-3.6c-6.1,0-12,0-18,0c-1.3,0-2.6,0-4,0
		c-4-0.2-6.2-2.2-6.2-6.2c-0.1-11.1-0.1-22.3,0-33.4c0-4.4,2.4-6.4,7.4-6.4c16.5,0,33.1,0,49.6,0c1.3,0,2.6,0,4.1,0
		c-9-14.8-9.4-31.6-13-47.5c-4.6-20.1-8.5-40.3-12.5-60.5c-3.1-15.6,4.6-30.1,19.2-36.3c1.6-0.7,2.6-1.3,3-3.3
		c4.2-21,16.4-35.7,35.9-44.3c7-3.1,14.1-5.7,21.1-8.6c10.9-4.5,17.6-12.5,20.6-23.8c0.5-2.1,0.1-3.4-1.6-4.8
		c-16.3-13.2-24.7-30.4-24.2-51.3c0.3-13.3-2.4-26-4.7-38.9c-2.3-13.2-3.2-26.5-0.4-39.8c0.5-2.6,1.3-5.1,2.3-7.6
		c5-12.7,15.1-19,28.7-18.4c1.9,0.1,4.1-0.6,5.6-1.7c26-19.2,59.1-19.4,83.9-0.2c19.2,14.8,26.1,34.3,20.7,58
		c-1.3,5.7-3,11.3-5,16.8c-1.3,3.7-2.1,7.3-2,11.2c0.2,6.8,0.1,13.7,0,20.5c-0.1,19.7-7.4,36.3-22.2,49.4c-2,1.8-2.5,3.5-2.1,6
		c2.1,11.3,8.5,19.2,19,23.7c8.8,3.8,17.9,6.9,26.5,11.1c17.3,8.4,28,22.4,32.3,41.2c0.6,2.7,1.5,4.3,4.3,5.5
		c14,6,21.3,20.6,18.1,36.2c-6.3,31.1-12.7,62.2-19.3,93.2C581.2,420.6,578.6,425.1,576.6,430z M462.2,294.6
		C462.2,294.6,462.2,294.6,462.2,294.6c-35.8,0-71.7,0-107.5,0.1c-14.1,0-23.7,11.7-20.9,25.5c6.3,31,12.7,62,19.1,92.9
		c2.2,10.4,10.4,17,21.1,17c58.4,0,116.9,0,175.3,0c11.8,0,19.6-6.4,21.9-17.9c6.2-30.2,12.5-60.4,18.7-90.7
		c3.2-15.5-6.1-26.9-21.9-26.9C532.7,294.6,497.4,294.6,462.2,294.6z M432.2,95c-6.5,4.9-12,10.4-16.5,16.8
		c-5.2,7.5-8.4,15.6-7.9,25c0.2,4.7,0,9.5,0.1,14.2c0.3,27.6,21.2,49.8,49.3,52.2c26.7,2.3,51.8-16.7,55.8-43.5
		c1.7-11.2,0.8-22.9,1-34.3c0-0.7-0.4-1.5-1-2c-6.7-5.9-13.5-11.8-20.8-18.2c-0.2,2.4-0.4,4.2-0.6,6c-0.4,5.9-4.4,8.3-9.6,5.4
		c-4.3-2.4-8.2-5.5-12.3-8.2c-0.6-0.4-1.1-0.8-2-1.3c0,2.4,0.1,4.4,0,6.4c-0.1,4.3-3.5,7-7.7,5.7c-10.6-3.4-19.5-9.2-25.2-19.1
		C433.9,98.5,433.1,96.9,432.2,95z M423,229.8c20.5,15.6,61.1,15.6,78.3-0.4c-5.8-5.8-9.2-13-11.1-21.1c-19,8.9-37.8,9-55.9,1.2
		C430.4,216.3,426.8,222.9,423,229.8z"/>
	<path d="M625.3,102.9c19.1,0,38.1,0,57.2,0c12.7,0,21,8.2,21,20.8c0.1,24.7,0,49.4,0,74.1c0,12.5-8.5,20.9-21.1,20.9
		c-22.5,0-45,0-67.5,0c-2.5,0-4.3,0.6-6.1,2.4c-3.5,3.7-7.2,7.1-10.9,10.6c-4.3,4.2-9.2,5.6-14.8,3.2c-5.4-2.4-8-6.8-7.8-12.7
		c0.1-3.1-1.2-3.6-3.9-3.6c-3.7,0-7.6-0.1-11.1-1.1c-8.1-2.3-13.7-9.5-13.7-17.9c-0.2-25.9-0.2-51.8,0-77.7c0.1-10.8,8.8-19,19.7-19
		C586,102.8,605.6,102.9,625.3,102.9z M624.8,191.4c14.7,0,29.3,0,44,0c4.7,0,7.4-2.1,7.4-5.7c0-3.6-2.7-5.7-7.4-5.8
		c-0.3,0-0.7,0-1,0c-28.8,0-57.5,0-86.3,0c-1.3,0-2.7,0.1-3.9,0.5c-2.5,0.8-3.8,2.7-3.8,5.2c0,2.7,1.4,4.7,4,5.4
		c1.2,0.4,2.6,0.3,3.9,0.3C596.2,191.4,610.5,191.4,624.8,191.4z M624.9,165.4c14.5,0,29.1,0,43.6,0c1,0,2,0,3-0.1
		c2.8-0.4,4.3-2.2,4.7-4.9c0.3-2.7-0.9-4.8-3.4-5.8c-1.4-0.5-3-0.6-4.5-0.6c-28.8,0-57.5,0-86.3,0c-1.3,0-2.7,0-3.9,0.4
		c-2.7,0.7-4.4,3.3-4,6c0.4,2.9,2.1,4.5,5,4.9c1,0.1,2,0.1,3,0.1C596.2,165.4,610.5,165.4,624.9,165.4z M603.5,128.2
		c-7.7,0-15.4,0-23.2,0c-3.9,0-6.4,2.2-6.5,5.6c-0.1,3.4,2.5,5.8,6.6,5.8c15.2,0,30.4,0,45.6,0c4.3,0,6.7-2.1,6.8-5.6
		c0.1-3.6-2.5-5.8-6.9-5.8C618.5,128.2,611,128.2,603.5,128.2z"/>
	<path d="M292.7,64.6c19,0,37.9,0,56.9,0c13.3,0,21.5,8.1,21.5,21.4c0,24.4,0,48.7,0,73.1c0,13.4-8.1,21.3-21.5,21.3
		c-0.1,0-0.2,0-0.3,0c-6.2,0-6.1,0-7,6.1c-0.7,5-3.3,8.6-8.1,10.4c-5,1.9-9.6,1-13.5-2.6c-4.1-3.7-8-7.6-11.9-11.5
		c-1.7-1.8-3.6-2.5-6.1-2.5c-22.5,0.1-45,0.1-67.5,0.1c-12.6,0-21-8.3-21.1-20.9c-0.1-24.8-0.1-49.6,0-74.4
		c0-12.1,8.5-20.5,20.7-20.5C254.1,64.6,273.4,64.7,292.7,64.6z M261.6,123.2C261.6,123.2,261.6,123.2,261.6,123.2
		c0,8.2,0,16.3,0,24.5c0.1,5.7,4.1,8.2,9.2,5.6c16.1-8.1,32.2-16.3,48.4-24.4c2.5-1.3,4.4-3,4.3-6c-0.1-2.9-2.2-4.4-4.5-5.6
		c-15.9-8-31.8-16.1-47.8-24.1c-5.6-2.8-9.6-0.4-9.6,5.9C261.6,107.1,261.6,115.1,261.6,123.2z M348.1,117.3
		C348.1,117.3,348.1,117.3,348.1,117.3c0-7.3,0-14.6,0-21.8c0-1.2,0.2-2.7-0.4-3.5c-1.2-1.6-2.8-3.5-4.6-4c-2.7-0.8-5.8-0.6-7.7,2.3
		c-1.5,2.2-1.2,4.3,0.1,6.5c0.7,1.3,1.1,2.8,1.1,4.3c0.1,12.8,0,25.6,0.1,38.4c0,4.6,2.3,7.3,5.9,7.3c3.5,0,5.6-2.7,5.6-7.2
		C348.1,132.1,348.1,124.7,348.1,117.3z M311.3,87.7C311.3,87.7,311.3,87.7,311.3,87.7c-1.8,0-3.5-0.1-5.3,0
		c-2.9,0.2-5.2,2.6-5.3,5.4c-0.1,2.9,2.1,5.6,5.1,5.8c3.6,0.2,7.2,0.2,10.9,0c3-0.2,5.1-2.7,5.1-5.5c0-3-2.1-5.4-5.3-5.7
		C314.8,87.6,313.1,87.7,311.3,87.7z"/>
	<path class="st0" d="M462.2,294.6c35.3,0,70.6,0,105.8,0c15.8,0,25.1,11.4,21.9,26.9c-6.2,30.2-12.5,60.4-18.7,90.7
		c-2.4,11.5-10.2,17.9-21.9,17.9c-58.4,0-116.9,0-175.3,0c-10.6,0-18.9-6.6-21.1-17c-6.5-31-12.9-61.9-19.1-92.9
		c-2.8-13.8,6.8-25.5,20.9-25.5C390.5,294.6,426.3,294.6,462.2,294.6C462.2,294.6,462.2,294.6,462.2,294.6z M436.8,362.2
		c-0.1,14.1,11,25.3,25.1,25.4c14,0.1,25.3-11.1,25.4-25.1c0.1-14-11.1-25.3-25.1-25.4C448.2,337,436.9,348.2,436.8,362.2z
		 M356.8,317.5c1.5,0,2.8,0,4.1,0c17.6,0,35.2,0,52.8,0c4.1,0,6.6-2.3,6.6-5.8c0-3.4-2.4-5.7-6.3-5.7c-20,0-40.1-0.1-60.1,0
		c-5.6,0-9.6,4.2-9.2,9.9c0.2,2.9,0.8,5.9,1.6,8.7c0.8,3,3.8,4.6,6.7,3.9c2.8-0.6,4.6-3.1,4.4-6.1
		C357.5,320.9,357.1,319.5,356.8,317.5z M367.6,370.5c-0.9-4.4-1.9-9.7-3.3-14.9c-0.8-2.9-3.7-4.3-6.5-3.7c-2.9,0.6-5,3.3-4.4,6.4
		c0.9,5,1.9,10,3,14.9c0.7,2.8,3.5,4.6,6.2,4.3C365.6,377,367.6,374.6,367.6,370.5z"/>
	<path class="st0" d="M624.8,191.4c-14.3,0-28.7,0-43,0c-1.3,0-2.7,0-3.9-0.3c-2.6-0.7-4-2.7-4-5.4c0-2.6,1.3-4.5,3.8-5.2
		c1.2-0.4,2.6-0.5,3.9-0.5c28.8,0,57.5,0,86.3,0c0.3,0,0.7,0,1,0c4.6,0.1,7.4,2.2,7.4,5.8c0,3.6-2.7,5.7-7.4,5.7
		C654.2,191.4,639.5,191.4,624.8,191.4z"/>
	<path class="st0" d="M624.9,165.4c-14.3,0-28.7,0-43,0c-1,0-2,0.1-3-0.1c-2.9-0.4-4.6-2-5-4.9c-0.4-2.8,1.3-5.3,4-6
		c1.3-0.3,2.6-0.4,3.9-0.4c28.8,0,57.5,0,86.3,0c1.5,0,3.1,0.1,4.5,0.6c2.6,0.9,3.8,3.1,3.4,5.8c-0.3,2.6-1.9,4.4-4.7,4.9
		c-1,0.2-2,0.1-3,0.1C654,165.4,639.4,165.4,624.9,165.4z"/>
	<path class="st0" d="M603.5,128.2c7.5,0,15,0,22.5,0c4.4,0,7,2.2,6.9,5.8c-0.1,3.5-2.5,5.6-6.8,5.6c-15.2,0-30.4,0-45.6,0
		c-4.1,0-6.7-2.3-6.6-5.8c0.1-3.3,2.5-5.5,6.5-5.6C588.1,128.1,595.8,128.2,603.5,128.2z"/>
	<path class="st0" d="M261.6,123.2c0-8,0-16.1,0-24.1c0-6.3,4-8.8,9.6-5.9c15.9,8,31.8,16.1,47.8,24.1c2.4,1.2,4.4,2.6,4.5,5.6
		c0.1,3.1-1.8,4.8-4.3,6c-16.1,8.1-32.2,16.3-48.4,24.4c-5.1,2.5-9.1,0-9.2-5.6C261.6,139.5,261.6,131.3,261.6,123.2
		C261.6,123.2,261.6,123.2,261.6,123.2z"/>
	<path class="st0" d="M348.1,117.3c0,7.4,0,14.8,0,22.2c0,4.5-2.1,7.1-5.6,7.2c-3.6,0-5.8-2.7-5.9-7.3c0-12.8,0-25.6-0.1-38.4
		c0-1.4-0.4-3-1.1-4.3c-1.3-2.3-1.5-4.4-0.1-6.5c1.9-2.8,5-3.1,7.7-2.3c1.8,0.5,3.4,2.4,4.6,4c0.6,0.8,0.4,2.3,0.4,3.5
		C348.1,102.8,348.1,110.1,348.1,117.3C348.1,117.3,348.1,117.3,348.1,117.3z"/>
	<path class="st0" d="M311.3,87.7c1.8,0,3.5-0.1,5.3,0c3.1,0.3,5.3,2.7,5.3,5.7c0,2.8-2.1,5.3-5.1,5.5c-3.6,0.2-7.2,0.2-10.9,0
		c-3.1-0.2-5.3-3-5.1-5.8c0.1-2.8,2.4-5.1,5.3-5.4C307.8,87.6,309.6,87.7,311.3,87.7C311.3,87.7,311.3,87.7,311.3,87.7z"/>
	<path d="M436.8,362.2c0.1-14,11.4-25.2,25.4-25.1c14,0.1,25.2,11.4,25.1,25.4c-0.1,14-11.4,25.2-25.4,25.1
		C447.8,387.4,436.7,376.2,436.8,362.2z"/>
	<path d="M356.8,317.5c0.3,2,0.6,3.5,0.7,5c0.2,3.1-1.6,5.5-4.4,6.1c-2.9,0.6-5.9-1-6.7-3.9c-0.8-2.9-1.4-5.8-1.6-8.7
		c-0.4-5.6,3.5-9.8,9.2-9.9c20-0.1,40.1-0.1,60.1,0c3.9,0,6.3,2.3,6.3,5.7c0,3.5-2.5,5.8-6.6,5.8c-17.6,0-35.2,0-52.8,0
		C359.7,317.5,358.4,317.5,356.8,317.5z"/>
	<path d="M367.6,370.5c0.1,4-2,6.5-5,6.9c-2.7,0.4-5.6-1.4-6.2-4.3c-1.1-4.9-2.2-9.9-3-14.9c-0.5-3.1,1.5-5.8,4.4-6.4
		c2.8-0.6,5.8,0.8,6.5,3.7C365.7,360.8,366.6,366.1,367.6,370.5z"/>
</g>
</svg>
