<?xml version="1.0" encoding="utf-8"?>
<!-- Generator: Adobe Illustrator 25.4.1, SVG Export Plug-In . SVG Version: 6.00 Build 0)  -->
<svg version="1.1" id="Layer_1" xmlns="http://www.w3.org/2000/svg" xmlns:xlink="http://www.w3.org/1999/xlink" x="0px" y="0px"
	 viewBox="0 0 920 537" style="enable-background:new 0 0 920 537;" xml:space="preserve">
<style type="text/css">
	.st0{fill:#636C7C;}
	.st1{fill:#FFE113;}
	.st2{fill:#AE921B;}
	.st3{fill:#BBBBBC;}
	.st4{fill:#8D97A2;}
	.st5{fill:#E4E5E9;}
	.st6{fill:#C3C3C7;}
	.st7{fill:#FFFFFF;}
	.st8{fill:#676F7F;}
</style>
<path d="M228.9,312.7c11.3,0,22.6,0.1,33.8,0c3,0,4.2,0.8,4.2,3.8c-0.1,11.7-0.1,23.4,0,35.1c0,1.9-0.9,2.9-2.5,3.7
	c-11.4,6.2-22.8,12.4-34.1,18.7c-1.5,0.8-2.8,0.9-4.4,0.1c-11-6-22-12-33-18c-1.8-1-2.4-2.2-2.4-4.1c0.1-11.7,0.1-23.4,0-35.1
	c0-3.1,1.2-4.2,4.6-4.1C206.3,312.8,217.6,312.7,228.9,312.7C228.9,312.7,228.9,312.7,228.9,312.7z"/>
<path d="M236.9,294.1h-26.2c-3.2,0-5.8-2.6-5.8-5.8v-84.7c0-3.2,2.6-5.8,5.8-5.8h26.2c3.2,0,5.8,2.6,5.8,5.8v84.7
	C242.8,291.5,240.2,294.1,236.9,294.1z"/>
<path class="st0" d="M560,136.1c23.1,0,46.3,0.1,69.4-0.1c3.3,0,4.2,1,4.2,4.2c-0.1,16.8-0.1,33.6-0.1,50.4c0,4.4-0.1,4.5-4.6,4.5
	c-33.6,0-67.3,0-100.9,0c-2.5,0-4.4,0.6-6.2,2.5c-5.7,5.9-11.6,11.7-17.5,17.5c-0.8,0.8-1.6,2.1-3.1,1.5c-1.4-0.6-1.3-2-1.3-3.2
	c0-5.1-0.1-10.2,0-15.2c0.1-2.4-0.8-3.2-3.1-3c-2.6,0.2-5.2,0-7.8,0.1c-2.3,0.1-3.3-1-3.3-3.3c0-17.6,0.1-35.2,0-52.8
	c0-3.1,1.9-3,4-3C513.3,136.2,536.6,136.1,560,136.1z"/>
<path d="M131.9,290.7c-20.4,0-37.8-15.1-40.9-35.3c-3.5-22.9,11.1-43.4,34.1-47.9c21.4-4.2,43.1,10.3,48.1,32.2
	c1.9,8.5,1.2,16.8-2.1,24.8c-0.6,1.4-0.7,2.7-0.4,4.2c1.1,5.6,1.9,11.3,2.8,17c0.4,2.5,0.6,4.1-3,3.1c-4.9-1.4-9.9-2-14.8-3.2
	c-1.7-0.4-3-0.2-4.5,0.5C145.1,289.2,138.7,290.8,131.9,290.7z"/>
<path d="M152.6,196.8c-1,2.7-2,5.7-3.1,8.6c-0.3,0.9-1.1,1.5-2.1,1.1c-1-0.4-1.3-1.3-1-2.2c1-3,2.1-5.9,3.3-8.8
	c0.3-0.8,1.1-1.1,2-0.8C152.3,195,152.8,195.7,152.6,196.8z"/>
<path d="M91.4,227.4c-2.6-1.5-5.6-3.3-8.5-5.1c-0.6-0.4-0.6-1.2-0.2-1.8c0.5-0.8,1.3-1.1,2.1-0.7c2.9,1.6,5.7,3.2,8.4,5
	c0.6,0.4,0.8,1.1,0.4,1.8C93.2,227.1,92.7,227.5,91.4,227.4z"/>
<path d="M172.5,226.8c-0.7-0.1-1.3-0.3-1.5-1.1c-0.2-0.9,0-1.6,0.8-2c2.5-1.5,5.1-3,7.6-4.4c0.8-0.5,1.7-0.4,2.4,0.4
	c0.4,0.5,0.4,1,0.1,1.5C181.6,221.9,173.4,226.8,172.5,226.8z"/>
<path d="M97,293.5c-1.4-0.2-2.4-1.2-1.4-2.5c1.9-2.6,4.1-5,6.2-7.4c0.5-0.6,1.5-0.6,2.2-0.1c0.6,0.4,0.8,1.2,0.4,1.8
	c-1.9,2.9-4.2,5.5-6.6,8C97.6,293.4,97.3,293.4,97,293.5z"/>
<path d="M134.6,299.7c0,1.6,0,3.1,0,4.7c0,1-0.5,1.8-1.6,1.8c-1,0-1.5-0.7-1.5-1.5c-0.1-3.1-0.2-6.3-0.1-9.4c0-1,0.7-1.7,1.8-1.6
	c1.1,0.1,1.4,1,1.4,1.9C134.6,297,134.6,298.4,134.6,299.7z"/>
<path d="M186.3,259.5c-2.5-0.5-5-0.9-7.6-1.4c-1.1-0.2-1.9-0.8-1.7-2c0.3-1.4,1.4-1.4,2.4-1.2c2.4,0.4,4.8,0.8,7.3,1.2
	c1.2,0.2,2.7,0.3,2.5,2C189,259.9,187.5,259.5,186.3,259.5z"/>
<path d="M78.7,260.3c-1.4,0.1-2.3,0-2.5-1.2c-0.2-1.1,0.5-1.7,1.5-1.9c2.9-0.6,5.7-1.1,8.6-1.6c1-0.2,1.8,0.2,2,1.3
	c0.2,1.1-0.3,1.8-1.4,2C84,259.4,81.1,259.9,78.7,260.3z"/>
<path d="M113.2,194.9c0.9,0.2,1.5,0.7,1.8,1.5c0.9,2.6,1.9,5.3,2.9,7.9c0.4,1,0.3,1.8-0.7,2.3c-1.1,0.5-2,0-2.4-1.1
	c-1-2.7-2.1-5.4-3-8.2C111.3,195.9,112,195.1,113.2,194.9z"/>
<path d="M92.1,270.7c0.9,0.1,1.3,0.3,1.6,0.9c0.4,0.8,0.3,1.6-0.4,2.1c-1.4,0.9-2.8,1.8-4.3,2.6c-0.9,0.5-1.8,0.3-2.3-0.6
	c-0.7-1-0.1-1.7,0.7-2.2C89,272.4,90.7,271.5,92.1,270.7z"/>
<path d="M85.5,242.7c-1-0.2-2.3-0.4-3.6-0.8c-0.5-0.1-1-0.6-1.3-1c-0.4-0.6-0.2-1.5,0.4-1.8c2.2-1,4.3,0.2,6.4,0.6
	c0.6,0.1,1,1,0.8,1.7C87.9,242.7,86.9,242.7,85.5,242.7z"/>
<path d="M178.9,241.9c-1.5,0.1-2.6-0.7-2.2-1.6c0.9-2.6,3.6-2,5.7-2.4c1-0.2,2.4,0.1,2.1,1.4C183.8,242.7,180.4,240.5,178.9,241.9z"
	/>
<path d="M118.7,293.2c-0.6,1.5-1.3,3.2-2.1,4.9c-0.3,0.6-1,0.9-1.7,0.5c-0.7-0.4-1.3-1.1-1-1.9c0.5-1.7,1.2-3.4,1.9-5
	c0.3-0.6,1-1,1.7-0.7C118.2,291.4,118.7,292,118.7,293.2z"/>
<path d="M99.5,208.3c1.2,0.1,4.6,4,4.5,5.1c0,0.9-0.5,1.5-1.5,1.5c-1.1,0.1-4.6-3.6-4.7-5C97.8,208.8,98.5,208.4,99.5,208.3z"/>
<path d="M133.9,200c0,0.6,0,1.1,0,1.7c0,1-0.1,2.2-1.4,2.3c-1.5,0.1-1.8-1.1-1.9-2.3c0-0.6-0.1-1.1,0-1.7c0.1-1.5-0.3-3.4,1.8-3.8
	C133.5,195.9,133.9,196.9,133.9,200z"/>
<path d="M162.1,214.3c-1.1,0-2-0.6-1.7-1.6c0.8-2,2.3-3.6,4.5-4.2c0.9-0.3,1.4,0.5,1.5,1.5C166.5,211.3,163.5,214.3,162.1,214.3z"/>
<path d="M594.7,278.4c-6.2,0.1-12.5,0.2-18.7,0.2c-5.5,1.5-7.4,3.9-7.5,9.6c-0.1,8.5-0.3,8.6-8.8,8.6c-3.6,0-7.2-0.1-10.7,0.4
	c4.4,0.5,8.8,0.3,13.2,0.4c6.2,0.1,8.2,4,5,9.4l0,0c-1.3,1.4-3.1,1.3-4.7,1.3c-2.1,0-4.3,0-6.4,0c-2,0-4,0-6,0
	c4.3,0.1,8.5,0,12.8,0.1c1.6,0,3.2,0,4.4,1.3l0,0c1.1,1.1,1.3,2.6,1.3,4.1c0,5.2,0.1,10.4,0,15.5c-0.1,4.2-1.3,5.4-5.5,5.5
	c-4.1,0.1-8.3,0-12.5,0c4.3,0,8.6-0.1,12.8,0c3.8,0.1,5.1,1.3,5.1,5.1c0.1,10.7,0.1,21.4,0,32.1c0,1.5-0.2,2.9-1.4,4l0.1,0.1
	c-1.6,1.7-3.7,1.4-5.7,1.4c-20.4,0-40.9,0-61.3,0c-37.8,0-75.6,0-113.4,0c-1.1,0-2.3,0-3.4,0c-4.6-0.1-5.8-1.2-5.8-5.9
	c0-44.3,0-88.7,0-133c0-5.1,1.1-6,6.7-6c51.3,0,102.7,0,154,0c16.9,0,33.9,0,50.8,0c6.5,0,7.3,0.8,7.3,7.1c0,11.3,0,22.6,0,33.9
	C596.3,275.3,596.4,277.1,594.7,278.4z"/>
<path d="M268.5,294.2c-5.7-0.1-11.5-0.3-17.2-0.2c-2.4,0-3-0.7-3-3.1c0.1-40.3,0.1-80.5,0-120.8c0-2.3,0.7-2.8,2.9-2.8
	c59,0.1,118,0.1,177,0c2.2,0,2.9,0.6,2.9,2.8c-0.1,15.1-0.1,30.2,0,45.3c0,2.7-1,3.1-3.3,3.1c-14.6-0.1-29.1,0-43.7,0
	c-2.8,0-5.6,0.3-8.4,0.4c-1.8,0.2-3.4,0.7-5,1.8c-2.9,2-4.2,1.3-4.2-2.4c-0.1-7.5,0-15,0-22.5c0-1.7-0.1-3.4-1.3-4.7
	c-1.3-0.9-2.8-0.7-4.3-0.7c-31.3,0-62.5,0-93.8,0c-5,0-5.2,0.2-5.2,5.1c0,17.8,0,35.7,0,53.5c0,4.7,0.3,5,5,5c29.7,0,59.4,0,89,0
	c1.9,0,3.8-0.2,5.7,0.5c0.4,0.2,0.8,0.4,1.1,0.7c1.2,1.4,1.3,3,1.3,4.8c0,19.3,0,38.5,0,57.8c0,1.5,0,3-1.2,4.1
	c-1.3,1.1-2.8,1.2-4.4,1.2c-26.5,0-53.1,0-79.6,0c-1.4,0-2.7,0-3.9-0.9c-1-0.6-1.4-1.5-1.5-2.5c-0.3-4.4-0.4-8.8,0-13.2
	c0.2-2.4,1.7-3.4,4.2-3.4c7.2,0.1,14.4,0,21.7,0c-7,0-13.9-0.1-20.9,0c-3,0.1-4.8-0.9-5.2-3.9C272.8,296.7,271,295,268.5,294.2z"/>
<path class="st1" d="M594.7,278.4c0.1-1,0.3-2,0.3-3c0-12.8,0-25.5,0.1-38.3c0-2.4-0.5-3.3-3.2-3.3c-69.9,0.1-139.7,0.1-209.6,0
	c-2.6,0-3.4,0.7-3.4,3.4c0.1,45.1,0.1,90.3,0,135.4c0,3.5,1.6,3.4,4.1,3.4c60.3,0,120.5,0,180.8,0c1.1,0,2.3,0,3.4,0
	c0,0.7-0.1,1.4,0,2c0.4,2.8-0.9,3.4-3.5,3.4c-17.7-0.1-35.4,0-53.1-0.1c-2,0-3.8,0.1-5.1,1.9c-1.4,1.9-3.3,2.3-5.6,2.3
	c-10.6-0.1-21.2-0.1-31.8,0c-1.5,0-3,0.1-4-1.3c-1.9-2.6-4.5-2.9-7.5-2.8c-27.8,0.1-55.5,0-83.3,0c-4.4,0-4.5,0-4.5-4.6
	c0-47.3,0-94.5,0-141.8c0-8.7,4.8-13.4,13.7-13.4c39.9,0,79.9,0,119.8,0c30.3,0,60.7,0,91,0c7,0,11.4,2.8,12.8,8.3
	c0.2,1,0.3,2,0.3,3c0,14-0.1,28,0.1,42c0,2.8-0.8,3.8-3.6,3.6C600.2,278.3,597.5,278.4,594.7,278.4z"/>
<path d="M662.6,278.7c-5.4-0.1-10.8-0.3-16.2-0.3c-2,0-2.7-0.5-2.7-2.6c-0.1-7.2-0.2-7.2,6.9-7.3c10.2,0,20.5,0,30.7,0
	c7.4,0,12.6-5,12.6-12c0-6.8-5.3-11.6-12.6-11.7c-8.9-0.1-17.8-0.1-26.7-0.1c-1.9-0.8-2.5-2.3-2.7-4.3c-0.8-9.1-0.4-9.5,8.6-9.5
	c34.5,0,69,0,103.5,0c1.2,0,2.5-0.4,3.6,0.4l0,0.1c0.7,0.9,0.4,2,0.4,3c0,18.3,0,36.6,0,54.8c0,4.1-0.3,4.4-4.5,4.4
	c-29.3,0-58.7,0-88,0c-1.4,0-2.7,0.1-4-0.5c-2.2-1.2-1.8-3.4-1.9-5.3C669.2,282.5,667.6,280.3,662.6,278.7z"/>
<path class="st1" d="M611.3,367.1c-0.7,0.2-1.2,0.9-2,0.6c-3.9-0.4-7.8,0-11.7-0.1c-2.8-0.1-5.6,0-7.6,0c3.7,0.3,8.2-0.5,12.6,0.4
	c1.1,0.7,0.9,1.7,0.2,2.2c-3.8,2.9-5.5,7.2-7.8,11.1c-0.4,0.2-0.7,0.4-1.1,0.5c-3.8,0.6-7.7,0.3-11.5,0.2c-2.7-0.1-4.1-1.6-4.2-4.3
	c-0.1-1.1-0.1-2.3-0.1-3.4c0-23.6,0-47.1,0-70.7c0-1.4-0.1-2.7,0.1-4.1c0.4-2.4,1.8-3.8,4.2-4.1c0.8-0.1,1.6-0.1,2.4-0.1
	c22.8,0,45.6,0,68.3,0c0.7,0,1.4,0,2,0c3.2,0.3,4.8,1.7,4.8,4.9c0.2,10.1,0.1,20.3,0.1,30.4c0,1.2-0.4,2.2-1,3.2
	c-0.2,0.1-0.4,0.1-0.5,0.2c-8.5,1.7-15.3,6.1-20,13.3c-2.2,3.4-4.4,5.2-8.4,4.5c-0.4-0.1-0.9,0-1.2,0.3l0,0
	c-6.9,1.7-12.1,5.6-15.1,12.2C613.2,365.7,612.5,366.6,611.3,367.1z"/>
<path d="M688.9,359.9c0.8,1.4,1.5-0.2,2.2-0.1c6.1-1.6,10.4,1.6,13.7,5.9c2.3,3,4.9,5.2,8.3,6.9c7.2,3.5,9.6,12.1,5.8,19.1
	c-1.3,2.4-3.1,3.7-6,3.7c-33.4,0-66.8,0-100.2,0c-0.4,0-0.7-0.1-1-0.2c-7.1-1.4-10.6-6.3-10-13.6c0.5-6.2,5.5-10.8,12.1-10.7
	c3,0,4.6-0.6,4.8-3.8c0.1-1.4,1-2.7,1.9-3.9c2.9-3.7,6.5-5.8,11.3-5.2c2.5,0.3,4.2-2.1,6.6-1.6c2.1,1.2,3.4,2.9,3.8,5.2
	c0.3,1.7,1.4,1.6,2.5,1.4c1.5-0.3,1.1-1.5,0.8-2.4c-0.4-1.6-0.9-3.4-2.2-4.4c-2.7-2-1.9-4-0.5-6.3c0.8-1.3,1.6-2.7,2.9-3.6
	c4.6-3.8,9.8-5.3,15.7-4.3c1.5,0.2,3.2,0.4,4.2,1.8c-0.4,1.9-2,1.5-3.2,1.7c-2.9,0.3-5.8,0.8-8.5,2.5c10.6-3,19.8-1.6,26.6,7.8
	c0.9,1.4,0.7,3.6,2.2,4.4c1.4,0.8,3-0.6,4.5-0.7C687.7,359.3,688.4,359.2,688.9,359.9z"/>
<path class="st1" d="M229.9,297.4c11.3,0,22.6,0.1,33.8,0c3,0,4.2,0.9,4.2,4.1c-0.1,12.5-0.1,25,0,37.6c0,2-0.9,3.1-2.5,4
	c-11.4,6.6-22.8,13.3-34.1,20c-1.5,0.9-2.8,1-4.4,0.1c-11-6.5-22-12.9-33-19.3c-1.8-1-2.4-2.4-2.4-4.4c0.1-12.5,0.1-25,0-37.6
	c0-3.4,1.2-4.5,4.6-4.4C207.3,297.5,218.6,297.3,229.9,297.4C229.9,297.4,229.9,297.4,229.9,297.4z"/>
<path d="M567.1,396.3c-1.5,0-2.9,0.1-4.4,0.1c-66.9,0-133.8-0.1-200.7,0.1c-7.8,0-12.6-3.8-16.4-9.9c-0.9-1.4-0.4-1.8,1-1.8
	c0.7,0,1.4,0,2,0c36,0,72,0,108,0c1.9,0,3.6,0.1,4.8,1.8c1.4,1.9,3.3,2.3,5.6,2.3c11.5-0.1,23-0.1,34.5,0c1.9,0,3.5-0.2,4.8-1.8
	c1.5-1.9,3.5-2.3,6-2.3c18.3,0.1,36.6,0.2,54.8,0.2C569.3,388.7,569.3,392.5,567.1,396.3z"/>
<path d="M659,334.1c0-11.1-0.2-22.1-0.1-33.2c0-3.2-1-4-4.1-3.9c-23.8,0.1-47.6,0.1-71.4,0c-3,0-4.1,0.6-4,3.9
	c0.1,25.4,0.1,50.8,0,76.1c0,3.3,1.1,4,4.1,3.9c3.8-0.2,7.7,0.1,11.5,0.1c0.7,0.4,1,1,1,1.7c0.2,4.7,2.1,8.7,5.4,12.1
	c0.4,0.4,0.6,0.9,0.4,1.5c-8.6,0-17.1,0.1-25.7,0.2c-1.6,0-2.2-0.5-2.1-2.1c0.1-1.7,0-3.4,0-5.1c0-33.4,0-66.7,0-100.1
	c0-6.1,1.3-7.4,7.3-7.4c25.5,0,51,0,76.4,0c5.8,0,7.2,1.3,7.2,7.1c0,13.2,0,26.4,0,39.6C664.7,334.2,664.7,334.2,659,334.1z"/>
<path d="M339.6,164.1c-29.2,0-58.4,0-87.6,0.1c-3.1,0-4.2-0.8-3.9-3.9c0.3-4.2,0.1-8.3,0.2-12.5c0-5.4,2.1-7.4,7.7-7.4
	c36.7,0,73.3,0,110,0c19.1,0,38.1,0,57.2,0c5.9,0,7.8,2,7.9,8c0,4.2-0.1,8.4,0.1,12.5c0.2,2.8-0.9,3.4-3.5,3.3
	C398.3,164.1,369,164.1,339.6,164.1z"/>
<path d="M288.9,334.2c14.6-0.1,29.3-0.2,43.9-0.2c9.9,0,19.8,0.1,29.7,0.2c1.3,1,1.4,2.5,1.4,4c0,5.6,0,11.2,0,16.9
	c0,1.5-0.2,2.9-1.4,4c-0.8,0.1-1.6,0.3-2.3,0.3c-23.1,0-46.2,0-69.3,0c-0.7,0-1.3-0.1-2-0.2c-1.2-1.1-1.4-2.5-1.4-4
	c0-5.6,0-11.3,0-16.9C287.5,336.7,287.7,335.2,288.9,334.2z"/>
<path d="M288.3,363.7c11.2,0,22.3-0.1,33.5-0.1c7.6,0,15.1,0.1,22.7,0.2c1,0.8,1.1,1.9,1.1,3c0,4.3,0,8.6,0,12.9
	c0,1.1-0.1,2.2-1.1,3c-0.6,0.1-1.2,0.2-1.8,0.2c-17.6,0-35.2,0-52.8,0c-0.5,0-1-0.1-1.5-0.2c-0.9-0.8-1.1-1.9-1.1-3
	c0-4.3,0-8.6,0-12.9C287.2,365.6,287.3,364.5,288.3,363.7z"/>
<path class="st1" d="M701.1,178.6c-0.4-19.6,17-35.9,36-35.8c18.7,0.1,36.3,15.9,36,36.6c-0.3,19.3-16.6,35.5-36.3,35.4
	C717.1,214.7,701.1,198.5,701.1,178.6z"/>
<path class="st1" d="M207,294c-8.9,0.4-8.9,0.4-8.9-8.3c0-30.2,0-60.4,0-90.5c0-5.7,0.4-6,5.9-6c9,0,18,0.1,27-0.1
	c3.4-0.1,4.8,1.1,4.4,4.4c-0.1,1.2,0,2.5,0,3.7c-1.1,1.4-2.7,1-4.1,1c-5.4,0.1-10.8,0-16.2,0c-6.6,0-7.2,0.6-7.2,7
	c0,27.8,0,55.6,0,83.5C207.9,290.5,208.4,292.4,207,294z"/>
<path d="M670.9,292.1c30.5,0,61.1,0,91.6,0c5.1,0,5.1,0,5.1-5.1c0-18.6,0-37.2,0-55.8c0.9,1,0.5,2.1,0.5,3.2c0,21.4,0,42.8,0,64.3
	c0,2.8-0.6,4-3.8,4c-30.3-0.1-60.6-0.1-91-0.1c-0.9,0-1.8-0.2-2.6-0.4C668.9,298.8,668.5,295.4,670.9,292.1z"/>
<path class="st1" d="M811.6,232c1,3.3,0.5,6.7,0.5,10c0.1,18.2,0,36.5,0,54.7c0,2.7-0.8,3-3.1,2.1c-5.4-2.2-10.9-4.3-16.3-6.3
	c-1.5-0.5-2.1-1.2-2.1-2.9c0.1-8.9,0.1-17.8,0.1-26.7c2.2-2.1,5.3-2.4,7.9-3.6c2.9-1.2,5.9-2.3,8.8-3.4c2.1-0.8,2.9-2.1,2.9-4.3
	c0.1-3.2-0.6-6.5,0.5-9.7c0.3-0.6,0.4-1.2,0.2-1.7c0.1,0.3,0.1,0.9-0.2,1.4c-0.1,0.3-0.2,0.7-0.5,0.9c-5.1,2.9-10.4,5.3-16.4,5.9
	c-0.7-2.6,0.4-5.1,3.3-6.3c2-0.8,3.1-1.9,4-4c1.3-3.1,4.8-4,7.8-4.6C810.6,233.3,810.9,232.6,811.6,232z"/>
<path class="st1" d="M643.7,187.6c0-15.1,11.9-27,27.1-26.9c14.9,0,27.2,12.5,27,27.2c-0.2,14.7-12.6,26.9-27.1,26.9
	C655.6,214.7,643.7,202.7,643.7,187.6z"/>
<path d="M700.5,194.2c2.8,5,5.8,9.1,9.3,12.7c11.7,12.2,32.8,14.9,47.9,5.4c0.8-0.5,1.6-1.6,2.7-1c1,0.6,0.4,1.9,0.5,2.8
	c0.1,0.6-0.1,1.1,0,1.7c0.4,2.9-0.7,3.9-3.7,3.8c-32.9-0.1-65.8-0.1-98.8-0.1c-1.9,0-3.9,0.5-3.9-2.6c0-2.9,0.6-3.2,3.1-1.9
	c16.3,7.9,35.7-0.2,41.6-17.2C699.5,196.9,699.9,195.9,700.5,194.2z"/>
<path d="M750,363.2c-0.3-1.4-1.5-1.9-2.5-2.6c-8.7-6.1-12-16-8.8-26.2c2.6-8.4,11.4-14.9,20.4-15.2c10.4-0.3,19.1,5.7,22.6,15.5
	c3.2,9-0.3,19.5-8.4,25.5c-1.1,0.8-2.7,1.2-3,3C767.1,365.2,753.3,365.2,750,363.2z"/>
<path d="M632.9,259.6c0-3,0-6.1-0.2-9.1c-0.1-1.7,0.5-2.4,2.3-2.4c15.8,0.1,31.5,0,47.3,0.1c6.4,0,10,7.1,7.5,11.4
	c-1.2,1.2-2.8,1.4-4.4,1.4c-16,0-32.1,0-48.1,0C635.6,261,634.1,260.8,632.9,259.6z"/>
<path d="M611.8,395.1c7.3,0,14.6-0.1,22-0.1c25.3,0,50.7,0,76,0c6.4,0,10.4-4.6,9.7-11.1c-0.6-5.6-3.6-9.4-8.9-11.1
	c-2.3-0.8-3.8-1.7-5.1-4.1c-2.9-5.5-8.1-8.2-14.3-8.9c8.8-6,21.2-2.8,25.5,6.9c1.2,2.6,2.2,3.9,5.4,4.2c5.6,0.6,9.7,5.9,9.8,11.6
	c0.1,6.4-3.5,11.2-9.5,12.6c-3.6,0.8-7.2,0.5-10.8,0.5c-32.1,0.1-64.2,0-96.4,0C613.9,395.6,612.8,395.8,611.8,395.1z"/>
<path d="M670.7,306.3c1-0.7,2.2-0.4,3.3-0.4c25.7,0,51.4,0,77.1,0c3.5,0,4.8,1.9,3.7,5.4c-0.5,1.6-1.8,1.1-2.8,1.1
	c-5.5,0-11.1,0-16.6,0c-21.5,0-43.1-0.1-64.6-0.1C669,310.3,669.2,308.3,670.7,306.3z"/>
<path d="M434.5,198c1.8-1.4,3.9-0.7,5.9-0.6c2.9,0.2,3.9-1,3.6-3.7c-0.1-0.7,0-1.4,0-2c-0.1-1.9,0.8-2.5,2.6-2.5
	c10.2,0,20.5,0.1,30.7,0c2.6,0,3.8,1.4,3.8,3.7c0.1,7.8,0,15.5,0.1,23.3c0,1.6-0.7,2.2-2.2,2.2c-2.1,0-4.3,0.1-6.4,0.1
	c-0.2-0.1-0.3-0.2-0.5-0.4c-1.5-2.3-0.9-4.8-1-7.2c-0.1-2.7-0.1-5.4,0-8.1c0.1-2.5-1-3.4-3.4-3.4c-6.6,0-13.3,0-19.9,0
	c-1.5,0-2.9,0-4.4-0.2C440.3,199.2,437.2,200.2,434.5,198z"/>
<path d="M707.4,315.8c8.1,0,16.2,0,24.3,0c1.7,0,4-1,4.1,2.3c0.1,3.7-1.1,5.9-4,6.4c-0.8,0.1-1.6,0.1-2.4,0.1
	c-15.2,0-30.4-0.1-45.6,0.1c-5.8,0.1-6-3.4-5.6-7.3c0.2-2.1,1.9-1.6,3.1-1.6C690,315.8,698.7,315.8,707.4,315.8z"/>
<path class="st1" d="M771.6,267.1c0-6.8-0.1-13.5-0.2-20.3c0-1.6,0.6-2.2,2.2-2.1c3.8,0.1,7.7,0.1,11.5,0c1.9-0.1,2.2,0.8,2.2,2.4
	c-0.1,6.6-0.1,13.3-0.1,19.9c-0.6,0.7-1.4,1.2-2.3,1.2C780.5,268,775.9,269.6,771.6,267.1z"/>
<path d="M707.4,227.2c-12.5,0-25,0-37.5,0c-1.4,0-3.2,0.6-3.2-2.1c0-2.7,1.7-2.1,3.2-2.1c25.1,0,50.2,0,75.4,0
	c1.5,0,3.3-0.6,3.3,2.1c0,2.6-1.7,2.1-3.2,2.1C732.7,227.2,720,227.2,707.4,227.2z"/>
<path class="st1" d="M811.5,241.4c0,2.7,0,5.4,0.1,8.1c0,6.1,0.1,6.4-5.5,8.3c-5.1,1.7-9.8,4.6-15.3,5.1c0-4.5,0-9,0-13.5
	c0.6-1.6,1.8-1.7,3.2-1.3c5.6-2.2,11.6-3.8,16.9-6.8C811.3,240.9,811.5,240.9,811.5,241.4z"/>
<path d="M632.9,259.6c19,0,37.9,0,56.9,0c-1.1,3.5-3.6,5.4-7.2,5.4c-15.7,0.1-31.5,0.1-47.2,0C630.7,265,633.5,261.5,632.9,259.6z"
	/>
<path d="M665.3,344.2c-5.7-2.2-11.2-1.6-16.6,0.9c-1,0.5-1.9,1.2-3.1,1.2c5.9-7.4,13.9-9.9,22.8-8.4c9.5,1.6,16,7.3,19.2,16.5
	c0.6,1.8,0.8,3.7,1.2,5.6c-0.4,0.1-0.9,0.2-1.3,0.3c-2,0.6-4.3,2-5.9,1.4c-1.2-0.4-1.5-3.4-2.1-5.2c1.4-1.8,0.8-3.3-0.8-4.7
	c-3-2.6-6.3-4.7-10.2-5.7C667.4,345.8,666,345.6,665.3,344.2z"/>
<path class="st1" d="M567.1,376c0-12.2-0.1-24.4,0.1-36.5c0-2.9-1.1-3.4-3.6-3.3c-5.1,0.1-10.1,0.1-15.2,0c-1,0-2.6,0.4-2.7-1.2
	c-0.1-1.8,1.6-1.5,2.8-1.5c5.2,0,10.4-0.1,15.6,0c2.4,0.1,3.1-0.8,3.1-3.1c-0.1-6.9,0-13.8,0-20.6c2.4-0.5,3.5,0.4,3.4,3
	c-0.2,3.8,0,7.6,0,11.5c0,16.2-0.1,32.4,0.1,48.6C570.6,375.4,569.8,376.5,567.1,376z"/>
<path class="st1" d="M617.8,256.5c0-3.8,0.1-7.6,0-11.5c-0.1-2.6,0.9-2.6,2.7-1.6c0.1,0.1,0.2,0.1,0.3,0.1c7.3,1.8,9.1,6.3,8.8,13.7
	c-0.2,6.1-1.3,9.9-7.6,11.8c-4.4,1.3-4.2,1.9-4.2-2.8C617.8,263,617.8,259.8,617.8,256.5z"/>
<path class="st1" d="M771.6,267.1c5.2,0,10.4,0,15.6,0c0,4.7,0,9.4,0.1,14.2c0.1,2-0.5,2.9-2.6,2.8c-3.5-0.1-7-0.1-10.5,0
	c-2,0.1-2.8-0.7-2.7-2.7C771.6,276.5,771.6,271.8,771.6,267.1z"/>
<path d="M767.5,231.2c-37,0-73.9,0-110.9-0.1c-2.6,0-3.9,0.7-3.5,3.4c0.5,3.4-1.1,7,1.4,10.1c-3.5,0.1-7.8,1.5-10.1-0.4
	c-2.2-1.9-0.4-6.4-0.8-9.7c-0.4-3.1,0.7-4.1,3.9-4c39,0.1,77.9,0,116.9,0.1C765.5,230.5,766.7,230,767.5,231.2z"/>
<path class="st1" d="M567.2,307c0-8.2,0-8.2-8.3-8.2c-3.1,0-6.3,0.1-9.4,0c-1.4,0-3.7,0.6-3.6-1.7c0-2.1,2.1-1.5,3.5-1.5
	c4.8-0.1,9.7-0.1,14.5,0c2.5,0.1,3.8-0.6,3.5-3.4c-0.2-1.7,0-3.4,0-5.1c0.1-5.7,3.2-8.7,8.9-8.5c-4.2,1.9-5.7,5.2-5.6,9.7
	c0.2,5.1-0.1,10.2,0.1,15.3C570.6,306.3,569.9,307.5,567.2,307z"/>
<path d="M434.5,198c3,0,5.9,0,8.9,0.1c0.9,0.9,1.2,2.1,1.2,3.4c-0.2,5.1-0.7,10.2-1.5,15.2c-0.1,0.7-0.4,1.3-1,1.7
	c-2.5,0.3-5,0.5-7.5-0.1C434.5,211.5,434.5,204.7,434.5,198z"/>
<path d="M750,363.2c6.8,0,13.5,0,20.3,0c0.1,1,0.1,2,0.2,3c0.1,1.6-0.5,2.4-2.3,2.4c-5.4-0.1-10.7,0.2-16.1-0.1
	C748,368.3,750.5,365.1,750,363.2z"/>
<path class="st1" d="M794,248.1c-1.1,0.4-2.2,0.9-3.2,1.3c-0.5-9.8-0.5-9.9,8.6-13.1c4.1-1.5,7.9-3.7,12.3-4.3c0,1,0,2,0,3.1
	c-2.4-0.8-9,1-9.1,3c0,4.4-3.5,4-5.8,5.6C795.6,244.6,794.4,246.2,794,248.1z"/>
<path class="st2" d="M628.8,352.4c2.8-1,7.4-4.5,9.6-7.1c5.3-6.2,11.6-10.5,20-11c-5.2,2.3-10.7,4.1-14.6,8.7
	c-1.7,2-3.4,3.9-4.4,6.3c-1,2.4-2.6,3.4-5.2,3.1C632.4,352.2,630.6,352.4,628.8,352.4z"/>
<path d="M670.9,292.1c0,3.4-0.1,6.8-0.1,10.2c-2.1,0.3-2.8-0.6-2.7-2.6c0.1-3.6-0.2-7.2,0.1-10.7c0.4-4.8-1.6-7.9-5.5-10.2
	c4.8,0,8,3.1,8.2,7.7C670.8,288.3,670.8,290.2,670.9,292.1z"/>
<path class="st1" d="M567.2,309.7c-6.2,0-12.4,0.1-18.6,0c-1.2,0-2.9,0.3-2.8-1.5c0.1-1.5,1.6-1.2,2.7-1.2c6.2,0,12.4,0,18.6,0.1
	C567.2,307.9,567.2,308.8,567.2,309.7z"/>
<path d="M760.3,388.3c2.1,0,4.3,0,6.4,0c0.7,0,1.8-0.3,1.9,0.8c0.1,0.9-0.5,2.1-1.3,2.2c-4.8,0.7-9.7,0.5-14.5,0.1
	c-0.9-0.1-1.4-1.2-1.2-2.2c0.2-1,1.1-0.9,1.9-0.9C755.7,388.3,758,388.3,760.3,388.3z"/>
<path class="st3" d="M601.6,396.3c-5-3.9-7.2-9-6.7-15.3c0-0.1,0-0.3,0.1-0.4c1.1-0.8,2.2-0.9,3.2,0.1c-0.2,6,1.3,11.3,6.4,15.2
	C603.5,396.6,602.5,396.4,601.6,396.3z"/>
<path class="st2" d="M611.3,367.1c1.9-3.5,3.1-7.4,6.4-10.1c3.3-2.7,6.7-4.7,11.1-4.7c-4,2.1-8.2,4-10.7,8.1c-0.7,1.2-1.6,2.4-2,3.8
	C615.2,366.7,613.8,367.8,611.3,367.1z"/>
<path d="M603.1,368.7c-5.3,0-10.5-0.1-15.8-0.1c-1,0-2.7,0.4-2.7-1.1c0-1.6,1.8-0.9,2.8-0.9c6.3-0.1,12.5-0.1,18.8,0
	c1.1,0,2.6-0.5,3.1,1.2c-1,0.3-2,0.6-3,0.9C605.2,369.2,604.2,369.7,603.1,368.7z"/>
<path class="st2" d="M603.1,368.7c1.1,0,2.1,0,3.2-0.1c-3.9,3.3-7.4,6.8-8.1,12.1c-1.1,0-2.1-0.1-3.2-0.1
	C595.5,375.1,599.1,371.8,603.1,368.7z"/>
<path d="M760.2,382.9c2.7,0,5.4,0,8.1,0c0.8,0,2-0.2,2,1.1c0,1.1-1.1,0.9-1.8,0.9c-5.5,0-11,0-16.5,0c-0.7,0-1.8,0.1-1.8-0.9
	c0-1.4,1.2-1.1,2-1.1C754.8,382.9,757.5,382.9,760.2,382.9z"/>
<path d="M760.4,377.5c2.8,0,5.6,0,8.4,0c0.7,0,1.4,0.1,1.4,1c0,0.9-0.8,1-1.5,1c-5.7,0-11.4,0-17.1,0c-0.6,0-1.5,0-1.6-0.9
	c-0.1-1.2,0.8-1.2,1.6-1.2C754.6,377.4,757.5,377.5,760.4,377.5z"/>
<path d="M760.2,374c-2.7,0-5.4,0-8.1,0c-0.8,0-2,0.3-2-1.1c0-1.1,1.1-0.9,1.8-0.9c5.5,0,11,0,16.5,0c0.7,0,1.8-0.1,1.8,1
	c0,1.4-1.2,1.1-2,1.1C765.5,374.1,762.8,374,760.2,374z"/>
<path class="st4" d="M434.5,218.2c2.5,0,5,0,7.4,0c1.2-1.3,2.8-1.4,4.4-1.4c7.3,0,14.6,0,21.9,0c1.5,0,2.9,0,4.1,1.2
	c0.1,0.1,0.2,0.2,0.3,0.3c-0.6,0.5-1.4,0.6-2.2,0.6c-11.2,0-22.4,0-33.7-0.1C435.8,218.9,435,219,434.5,218.2z"/>
<path d="M670.7,306.3c0.1,2,0.1,4,0.2,6c-2.2,0.4-3-0.5-2.9-2.7C668.1,307.6,668,305.8,670.7,306.3z"/>
<path d="M762.3,395.7c-1.6,1-2.7,0.8-4.3,0.2C759.5,394.7,760.6,394.8,762.3,395.7z"/>
<path d="M504.2,210.1c-1.4-0.7-0.7-2-0.8-3c-0.1-4.2-0.2-8.4,0-12.5c0.1-2.3-0.7-2.9-2.9-2.8c-3,0.2-6.1,0-9.1,0.1
	c-1.6,0-2.1-0.6-2.1-2.2c0-16,0-32,0-48.1c0-1.6,0.5-2.2,2.1-2.2c2.9,0.1,5.9,0,8.8,0c40.1,0,80.1,0,120.2,0c1.5,0,2.9,0.1,4.4,0.2
	c1.4,1.4,1.3,3.3,1.3,5.1c0,13.1,0,26.2,0,39.3c0,5.5-1,6.5-6.6,6.5c-31.1,0-62.3,0-93.4,0c-2.8,0-5,0.6-6.8,2.8
	C514.5,199.1,508.9,204.2,504.2,210.1z"/>
<path class="st5" d="M504.2,210.1c0.2-2.6,2.5-3.9,3.9-5.7c3.5-4.4,7.3-8.5,10.9-12.8c1.6-1.9,3.5-2.5,5.9-2.5
	c31.8,0.1,63.6,0,95.4,0c4.4,0,4.4,0,4.4-4.5c0-15,0-30,0-45c0.3,0,0.7-0.1,1-0.1c4.5-0.1,4.5-0.1,4.5,4.2c0,14.9-0.1,29.8,0.1,44.7
	c0,2.9-0.8,3.5-3.6,3.5c-33.5-0.1-67,0-100.5-0.1c-2.3,0-4,0.7-5.6,2.3C515.2,199.5,510.2,205.3,504.2,210.1z"/>
<path class="st1" d="M444.9,322.7c-17.6,0-35.2-0.1-52.8,0.1c-3,0-3.8-0.8-3.8-3.8c0.1-20.2,0.1-40.4,0-60.6c0-2.8,0.7-3.7,3.6-3.7
	c35.5,0.1,71.1,0.1,106.6,0c3,0,3.8,0.8,3.7,3.8c-0.1,20-0.1,39.9,0,59.9c0,3.3-0.7,4.4-4.3,4.4
	C480.4,322.6,462.6,322.7,444.9,322.7C444.9,322.7,444.9,322.7,444.9,322.7z"/>
<path class="st1" d="M524.5,290.7c4.5,0,9,0.1,13.5,0c1.9,0,2.6,0.6,2.6,2.5c-0.1,9-0.1,18,0,27c0,1.7-0.6,2.4-2.3,2.4
	c-9-0.1-18-0.1-27,0c-1.8,0-2.4-0.6-2.4-2.3c0.1-9,0.1-18,0-27c0-2.2,0.9-2.6,2.8-2.5C515.9,290.8,520.2,290.7,524.5,290.7z"/>
<path class="st1" d="M524.7,358.4c-4.3,0-8.6-0.1-12.9,0c-1.9,0-2.9-0.4-2.9-2.6c0.1-8.9,0.1-17.8,0-26.7c0-1.9,0.8-2.6,2.6-2.5
	c8.8,0.1,17.6,0,26.4,0c2,0,2.8,0.9,2.8,2.9c0,8.8-0.1,17.6,0,26.4c0,2.2-1,2.6-2.9,2.6C533.5,358.4,529.1,358.4,524.7,358.4z"/>
<path class="st1" d="M524.5,286.7c-4.3,0-8.6-0.1-12.8,0c-2,0-2.8-0.7-2.8-2.7c0.1-8.8,0.1-17.6,0-26.3c0-2,0.6-2.8,2.7-2.8
	c8.7,0.1,17.3,0.1,26,0c2,0,3,0.9,3.1,2.7c0.1,9,0,18,0.1,27c0,2-1.2,2.1-2.7,2.1C533.5,286.6,529,286.7,524.5,286.7z"/>
<path class="st1" d="M438.3,344.3c-14.7,0-29.3,0-44,0c-1,0-2,0-3-0.1c-0.9-0.1-1.5-0.5-1.5-1.5c0-0.9,0.5-1.5,1.4-1.7
	c1-0.2,2-0.2,3-0.2c29.3,0,58.6,0,87.9,0c1.8,0,4.6-0.8,4.6,1.9c-0.1,2.5-2.9,1.4-4.5,1.4C467.6,344.3,453,344.3,438.3,344.3z"/>
<path class="st1" d="M567.2,275.2c-6.2,0-12.4,0-18.6,0c-1.2,0-2.8,0.2-2.9-1.6c-0.1-2,1.6-1.8,2.9-1.8c12.3,0,24.6,0,36.9,0
	c1.3,0,3.1-0.2,3.1,1.7c0,1.8-1.8,1.7-3.2,1.7C579.3,275.2,573.3,275.2,567.2,275.2z"/>
<path class="st1" d="M567.5,261.8c-6.2,0-12.4,0-18.6,0c-1.2,0-2.8,0.2-2.9-1.6c-0.1-2,1.6-1.8,2.9-1.8c12.3,0,24.6,0,36.9,0
	c1.3,0,3.1-0.2,3.1,1.7c0,1.8-1.8,1.7-3.2,1.7C579.7,261.8,573.6,261.8,567.5,261.8z"/>
<path class="st1" d="M411.2,327.9c6.2,0,12.4,0,18.6,0c1.2,0,2.9-0.3,2.8,1.5c0,1.5-1.5,1.8-2.8,1.8c-12.4,0-24.8,0-37.2,0
	c-1.2,0-2.7-0.2-2.8-1.8c-0.1-2,1.6-1.5,2.8-1.5C398.8,327.9,405,327.9,411.2,327.9z"/>
<path class="st1" d="M326.2,346c7.3,0,14.7,0,22,0c1.4,0,3.4-0.3,3.3,1.5c0,1.5-1.7,1.8-3.3,1.8c-14.7,0-29.3,0-44,0
	c-1.5,0-3.2-0.2-3.3-1.8c-0.1-2,1.9-1.5,3.3-1.5C311.5,346,318.9,346,326.2,346z"/>
<path class="st1" d="M315.9,371.3c4.6,0,9.3,0,13.9,0c0.9,0,2.1-0.3,2.1,1.1c0,1.1-1.1,1.4-2.1,1.4c-9.3,0-18.6,0-27.9,0
	c-0.9,0-2.1-0.1-2.1-1.3c0-1.5,1.2-1.1,2.1-1.1C306.6,371.3,311.2,371.3,315.9,371.3z"/>
<path class="st1" d="M366.9,190c-0.1,9.5-0.1,19-0.2,28.5c0,1.3-0.1,2.7-0.1,4c-2.8,3-4.1,6.5-4,10.7c0.1,6,0,12.1,0,18.1
	c0,1.3,0.2,2.7-0.5,3.9c-1,0.1-2,0.2-3,0.2c-31.4,0-62.7,0-94.1,0c-4.4,0-4.4,0-4.4-4.4c0-19.3,0.1-38.6-0.1-57.8
	c0-3.3,1-4.2,4.2-4.1c32.6,0.1,65.2,0.1,97.8,0.1C364,189.1,365.6,188.6,366.9,190z"/>
<path class="st1" d="M393.8,199.7c0,2.6-0.1,5.2,0,7.8c0.1,2.1-0.8,2.7-2.8,2.7c-5.2-0.1-10.4-0.1-15.5,0c-2.1,0-2.7-0.8-2.7-2.8
	c0.1-5.2,0.1-10.4,0-15.5c0-2.1,0.8-2.7,2.8-2.7c5.2,0.1,10.4,0.1,15.5,0c2.1,0,2.8,0.8,2.7,2.8
	C393.7,194.5,393.8,197.1,393.8,199.7z"/>
<path class="st1" d="M306,281.2c-12.7,0-25.5,0-38.2,0c-0.8,0-1.6,0-2.4,0c-1.7,0-2.6-1-2.7-2.5c-0.1-1.5,1.1-2.1,2.5-2.2
	c0.8-0.1,1.6,0,2.4,0c25.6,0,51.2,0,76.8,0c0.6,0,1.1,0,1.7,0c1.7,0,3.4,0.3,3.3,2.4c-0.1,1.9-1.7,2.4-3.5,2.4
	C332.6,281.2,319.3,281.2,306,281.2z"/>
<path class="st1" d="M316.2,311.7c10,0,20.1,0,30.1,0c1,0,2.8-0.5,2.8,1c0,1.5-1.7,1-2.8,1c-20.3,0-40.6,0-60.9,0
	c-1,0-2.8,0.5-2.8-1c0-1.5,1.7-1,2.8-1C295.7,311.7,306,311.7,316.2,311.7z"/>
<path class="st1" d="M292.3,291.5c-8.8,0-17.6,0-26.3,0c-1,0-2.7,0.5-2.6-1.1c0-1.4,1.6-0.9,2.5-0.9c17.8,0,35.6,0,53.4,0
	c0.9,0,2.5-0.4,2.5,1c0,1.7-1.7,1.1-2.7,1.1C310.1,291.5,301.2,291.5,292.3,291.5z"/>
<path class="st1" d="M414.2,200.7c-3.6,0-7.2,0-10.8,0c-0.8,0-1.8,0.1-1.8-1c0-1.1,1-1,1.8-1c7.4,0,14.9,0,22.3,0c0.8,0,1.8,0,1.8,1
	c0,1.1-1,1-1.8,1C421.8,200.7,418,200.7,414.2,200.7z"/>
<path class="st1" d="M414.4,194.5c-3.6,0-7.2,0-10.8,0c-0.8,0-2.1,0.2-2.1-1.1c0-1.1,1.1-1,1.8-1c7.4,0,14.9,0,22.3,0
	c0.8,0,1.8,0,1.8,1c-0.1,1-1.1,1-1.9,1C421.9,194.5,418.1,194.5,414.4,194.5z"/>
<path class="st1" d="M407.8,206.8c-1.6,0-3.1,0-4.7,0c-0.7,0-1.5-0.1-1.5-0.9c-0.1-0.9,0.7-1.1,1.4-1.1c3.3,0,6.5,0,9.8,0
	c0.7,0,1.5,0.1,1.6,0.9c0,1.1-1,1.1-1.7,1.1C410.9,206.9,409.3,206.8,407.8,206.8z"/>
<path class="st6" d="M314.2,302.2c0.8,0.2,2.1-0.3,2.2,0.9c0.1,1.6-1.3,1.1-2.2,1.2c-0.8,0-2.1,0.2-2.1-1
	C312,302,313.3,302.3,314.2,302.2z"/>
<path class="st1" d="M672.8,277.2c-2.2-2-1.5-3,1.1-3.4c0.2,0,0.4,0,0.7,0c27.2,0,54.4,0,81.7,0c2.3,0,4,0.5,2.5,3.3
	c-0.8,0.6-1.7,0.4-2.6,0.4c-27,0-54,0-81.1,0C674.3,277.5,673.5,277.7,672.8,277.2z"/>
<path class="st1" d="M749.4,255.5c-4.1,0-7.4-3.1-7.5-7.1c0-4.5,3.2-7.8,7.5-7.8c3.4,0.1,7.3,4.1,7.3,7.6
	C756.8,252.1,753.3,255.5,749.4,255.5z"/>
<path class="st1" d="M717.5,285.4c-1.1-0.1-2.1-0.2-1.9-1.7c0.2-1.2,1-1.7,2.1-1.7c3.4,0,6.8,0,10.2,0c9.5,0,19,0,28.4,0
	c1.1,0,2.4-0.2,2.9,1.2c0.5,1.4-0.5,2-1.8,2.3c-7.3,0.6-14.5,0.2-21.8,0.2C729.6,285.6,723.5,286,717.5,285.4z"/>
<path class="st1" d="M748.6,264.3c-3.6,0-7.2,0-10.8,0c-1.4,0-2.6-0.2-2.6-1.9c0-1.5,1.2-1.9,2.3-1.9c7.4-0.1,14.8-0.1,22.3,0
	c1.1,0,2.4,0.3,2.3,1.9c-0.1,1.6-1.3,1.9-2.7,1.9C755.8,264.3,752.2,264.3,748.6,264.3z"/>
<path class="st1" d="M716,264.3c-3.5,0-7,0-10.5,0c-1.4,0-2.6-0.4-2.6-1.9c0-1.4,1.3-1.9,2.4-1.9c7.4-0.1,14.8-0.1,22.2,0
	c1.1,0,2.2,0.7,2.1,2.1c-0.2,1.4-1.3,1.7-2.5,1.7C723.4,264.3,719.7,264.3,716,264.3z"/>
<path d="M609.3,340c0-3,0-6.1,0-9.1c0-1.7,0.4-2.7,2.3-1.6c5.4,3.2,10.9,6.3,16.3,9.5c1.5,0.9,2.2,1.6,0.2,2.8
	c-5.6,3.2-11.1,6.4-16.6,9.6c-1.7,1-2.2,0.2-2.3-1.4C609.2,346.5,609.2,343.2,609.3,340C609.2,340,609.3,340,609.3,340z"/>
<path class="st0" d="M665.3,344.2c6.2,1.1,11.7,3.5,15.8,8.5c2,2.4,1.3,3.5-1.6,3.8c-5.6-8.1-15.7-11-24.7-7.1
	c-1.5,0.7-2.7,1.3-3.4-0.7c-0.7-2,1.1-1.8,2-2.3C657.2,344.4,661.3,344.2,665.3,344.2z"/>
<path d="M218.3,328.1c0-3.5,0.1-7,0-10.5c0-2.1,0.6-2.8,2.5-1.6c6.1,3.6,12.2,7.1,18.4,10.6c1.9,1.1,2,1.9,0,3
	c-6.3,3.5-12.5,7.1-18.7,10.8c-2.1,1.3-2.2,0.1-2.2-1.5C218.3,335.3,218.3,331.7,218.3,328.1z"/>
<path class="st7" d="M209.1,346.4c14.1,0,28.2,0,42.3,0c0,0.1,0,0.3,0,0.4c-14.1,0-28.3,0-42.4,0
	C209.1,346.7,209.1,346.6,209.1,346.4z"/>
<path class="st8" d="M619.6,287.3c2.8,0,5.6,0,8.4,0c1.2,0,2.2,0.1,2.1,1.8c-0.1,1.4-0.7,1.7-1.9,1.7c-6.1,0-12.1,0-18.2,0
	c-1.3,0-1.8-0.5-1.8-1.8c0-1.5,0.8-1.6,2-1.6C613.3,287.3,616.5,287.3,619.6,287.3z"/>
<path d="M339.3,163.5c-28.8,0-57.5,0-86.3,0c-1.3,0-3.4,0.8-3.9-1c-0.6-2.6-0.8-5.4,0.2-7.9c0.4-1,1.9-0.5,2.8-0.5
	c8.2,0,16.5-0.2,24.7,0.1c3.4,0.1,4.9-1.1,5.7-4.1c1.4-5.1,2-5.4,7.3-5.4c6,0,12,0,17.9,0c4.1,0,5.6,1.1,6.7,5.1
	c0.8,3,2.2,4.5,5.8,4.5c35.2-0.2,70.4-0.1,105.6-0.1c1.4,0,3.6-1,4.1,1.1c0.6,2.5,0.8,5.2-0.1,7.7c-0.5,1.4-2.4,0.7-3.7,0.7
	C397.3,163.5,368.3,163.5,339.3,163.5z"/>
<path d="M766.3,178.8c0.9,14.4-12.6,29.6-29.3,29.3c-15.8-0.3-29.4-12-29.3-29.4c0.1-16.6,12.4-29.3,29.5-29.3
	C754.6,149.3,767.1,164.1,766.3,178.8z"/>
<path class="st1" d="M811.5,241.4c-0.2-0.1-0.4-0.1-0.6-0.1c-0.1-1.3-1.3-2.7,0.6-4.3C811.5,238.7,811.5,240.1,811.5,241.4z"/>
<path d="M670.8,208.8c-11.6,0.8-21.8-9.5-21.6-21.1c0.2-12.7,9.4-21.6,21.7-21.4c12.6,0.2,20.8,10.1,21,21.4
	C692.1,198.9,681.9,209.7,670.8,208.8z"/>
<path class="st1" d="M777.1,341.5c-0.1,9.5-7,17.6-17,17.3c-10.7-0.3-17.1-6.6-17.2-17c-0.1-9.9,7-17.2,17.1-17.1
	C769.2,324.7,776.9,331.8,777.1,341.5z"/>
<path d="M472.2,218.1c-10.1,0.6-20.2,0.3-30.3,0.2c0.5-6.7,1-13.5,1.5-20.2c9-0.6,17.9-0.1,26.9-0.3c2.1,0,1.9,1.4,1.9,2.8
	C472.2,206.4,472.2,212.3,472.2,218.1z"/>
<path class="st1" d="M824.4,265.3c0,10.5-0.1,21,0.1,31.4c0.1,3.4-1.1,4.5-4.2,4c-0.1,0-0.2,0-0.3,0c-3.3,0.5-4.8-0.5-4.4-4.2
	c0.3-3.2,0.1-6.5,0.1-9.8c0-17.6,0.2-35.2-0.1-52.7c-0.1-4.7,2.8-3.3,5.3-3.7c3.1-0.4,3.8,0.9,3.7,3.8
	C824.3,244.6,824.4,255,824.4,265.3z"/>
<path d="M819.6,286.6c1.7-0.1,3.3-0.1,3.1,1.9c-0.1,2.1-2,1.4-3.2,1.4c-1.2,0.1-2.7,0.3-2.6-1.7C817,286,818.7,286.7,819.6,286.6z"
	/>
<path d="M819.8,274.6c-1.1-0.1-2.9,0.5-2.8-1.7c0-2.2,1.8-1.6,3-1.6c1.2,0,2.7-0.3,2.8,1.5C822.8,274.8,821.2,274.5,819.8,274.6z"/>
<path d="M819.7,237.2c-1.2-0.1-2.6,0.3-2.7-1.6c0-2.2,1.6-1.7,2.8-1.8c1.2,0,2.9-0.4,2.8,1.7C822.5,237.7,820.8,237,819.7,237.2z"/>
<path d="M819.6,263.7c1.3,0.2,3-0.5,3,1.8c0,2-1.5,1.6-2.7,1.6c-1.2,0-2.9,0.5-2.9-1.7C817,263.3,818.5,263.8,819.6,263.7z"/>
<path d="M819.7,256.2c1.2,0.2,2.9-0.5,2.9,1.7c0,1.9-1.5,1.6-2.7,1.6c-1.2,0-2.9,0.5-2.9-1.7C817,255.8,818.5,256.3,819.7,256.2z"/>
<path d="M819.7,252.1c-1.3,0-2.7,0.2-2.7-1.7c0.1-2.2,1.8-1.6,3-1.6c1.2-0.1,2.7-0.2,2.6,1.7C822.5,252.7,820.8,251.9,819.7,252.1z"
	/>
<path d="M819.7,297.4c-1.4,0-2.7,0.1-2.7-1.8c0.1-2.2,1.8-1.5,3-1.6c1.2-0.1,2.6-0.2,2.6,1.7C822.5,298,820.8,297.2,819.7,297.4z"/>
<path d="M819.7,244.7c-1.1-0.1-2.6,0.4-2.7-1.6c-0.1-2.1,1.4-1.9,2.7-1.8c1.3,0,2.9-0.4,2.9,1.7
	C822.6,245.2,820.9,244.5,819.7,244.7z"/>
<path d="M819.7,282.1c-1.1-0.2-2.7,0.4-2.6-1.6c0.1-1.9,1.7-1.4,2.8-1.4c1.1,0,2.7-0.4,2.6,1.5C822.4,282.6,820.8,281.8,819.7,282.1
	z"/>
<path class="st1" d="M557.5,177c15.8,0,31.6,0,47.4,0c0.9,0,1.8,0,2.7,0c0.9,0,1.5,0.4,1.5,1.4c0,0.9-0.5,1.6-1.3,1.7
	c-1,0.2-2,0.2-3,0.2c-31.6,0-63.1,0-94.7,0c-1.7,0-4.4,0.7-4.5-1.7c-0.1-2.7,2.7-1.6,4.3-1.6C525.7,176.9,541.6,177,557.5,177z"/>
<path class="st1" d="M569.2,147.2c11.7,0,23.5,0,35.2,0c0.8,0,1.6,0,2.4,0c1.1,0,2.2,0.3,2.2,1.6c0,1.5-1.2,1.7-2.4,1.8
	c-0.7,0-1.4,0-2,0c-23.6,0-47.2,0-70.7,0c-0.6,0-1.1,0-1.7,0c-1.3,0-2.8,0-2.7-1.8c0.1-1.7,1.6-1.6,2.8-1.6
	C544.6,147.2,556.9,147.2,569.2,147.2z"/>
<path class="st1" d="M569.2,165.5c-11.7,0-23.5,0-35.2,0c-0.8,0-1.6,0-2.4,0c-1.1,0-2.2-0.3-2.2-1.6c0-1.5,1.2-1.7,2.4-1.8
	c0.6,0,1.1,0,1.7,0c23.8,0,47.6,0,71.4,0c0.7,0,1.4,0,2,0c1.1,0.1,2.1,0.4,2,1.7c-0.1,1.3-1.1,1.6-2.2,1.6c-0.8,0-1.6,0-2.4,0
	C592.7,165.5,580.9,165.5,569.2,165.5z"/>
<path class="st1" d="M507,166.2c0-6.2,0-12,0-18.4c5.3,3,10.4,5.9,16,9.1C517.5,160.2,512.4,163.1,507,166.2z"/>
<g>
	<path class="st1" d="M93.9,248.9c-0.1-19.9,14.8-36.3,34.9-38.4c19-2,37.2,11.4,41.2,30.1c1.7,8.1,0.9,15.9-2.3,23.5
		c-0.6,1.5-0.7,2.9-0.4,4.5c0.9,4.5,1.5,9.1,2.3,13.6c0.3,2,0.3,3.3-2.5,2.5c-3.6-0.9-7.3-1.3-10.9-2.3c-2.5-0.7-4.4-0.4-6.7,0.7
		c-24.7,11.8-52.2-3.2-55.6-30.2C93.7,251.6,93.9,250.2,93.9,248.9z"/>
	<path d="M129.8,240.3c-3.8-1-7,0.5-9.9,2.7c-0.1-0.3-0.2-0.5-0.2-0.8c0-0.2,0-0.5,0.1-0.7c2-5.8,6.2-9,12.2-9.6
		c1.5-0.2,2.2-0.5,2.1-2.2c-0.1-1.8-1.4-1.5-2.4-1.4c-1.7,0.2-3.4,0.4-4.9,1c-10.5,3.8-15.5,17.6-10.1,27.6
		c2.3,4.3,7.4,6.7,11.9,5.6c5.3-1.3,8.5-5.5,8.7-11C137.4,245.4,134.9,241.7,129.8,240.3z M126.5,259.3c-4,0.2-7.2-3.7-7.4-8.9
		c-0.1-3.5,3.2-6.9,6.9-7c3.9-0.1,6.8,3.2,6.9,7.7C132.9,255.6,130.2,259.2,126.5,259.3z"/>
	<path d="M149.8,249.6c-1.8-0.2-3.3-0.2-3.7,1.4c-0.4,1.6,1.1,2,2.2,2.5c0.6,0.3,1.3,0.4,1.9,0.8c1.6,0.9,2.7,2,2.5,4
		c-0.2,1.9-1.3,3-3.1,3.6c-1.4,0.5-2.9,0.7-4.3,0.2c-0.8-0.3-2.3-0.2-2-1.7c0.4-1.4,1.4-0.5,2.2-0.3c1.7,0.2,3.7,0.7,4.3-1.4
		c0.6-2.1-1.5-2.3-2.9-3c-2.1-1-4.3-2.2-3.4-5c0.9-2.8,3.4-3.4,6-3.1c0.9,0.1,2.4,0.1,2.3,1.4C151.6,250.7,150.3,249.6,149.8,249.6z
		"/>
</g>
<path d="M434.2,286.4c0-3.5,0-7,0-10.5c0-1.6,0.5-2.1,2-1.3c6.1,3.5,12.3,7.1,18.4,10.6c1.1,0.6,1.4,1.4,0,2.2
	c-6.2,3.5-12.3,7.1-18.5,10.6c-1.7,1-2.2,0-2.2-1.5c0-3.4,0-6.8,0-10.1C434.1,286.4,434.2,286.4,434.2,286.4z"/>
<path d="M446.3,319.3c-16.1,0-32.2,0-48.4,0c-0.9,0-1.8,0-2.7-0.1c-0.6,0-1.2-0.3-1.1-1c0.1-0.3,0.6-0.8,0.9-0.8
	c0.9-0.2,1.8-0.2,2.7-0.2c32.6,0,65.2,0,97.8,0c1.3,0,3.4-0.5,3.5,1c0,1.8-2.1,1-3.3,1C479.2,319.3,462.8,319.3,446.3,319.3z"/>
<path d="M302.5,222.3c0-3.4,0-6.8,0-10.1c0-1.9,0.7-2.5,2.4-1.5c5.9,3.4,11.8,6.9,17.8,10.3c1.7,1,1.4,1.7-0.1,2.6
	c-5.9,3.4-11.9,6.8-17.8,10.3c-1.8,1-2.4,0.5-2.3-1.5C302.6,229.1,302.5,225.7,302.5,222.3C302.5,222.3,302.5,222.3,302.5,222.3z"/>
<path d="M313.5,247.4c13.7,0,27.5,0,41.2,0c1.1,0,2.9-0.7,3,1.2c0.1,2.2-1.9,1.5-3,1.5c-27.5,0-55,0-82.5,0c-1.1,0-2.9,0.6-2.9-1.3
	c0-1.9,1.8-1.3,2.9-1.3C286,247.3,299.8,247.4,313.5,247.4z"/>
<path class="st1" d="M349.1,162.1c-20.5,0-41.1,0-61.6,0c-1.7,0-3.5,0.3-3.4-2.4c0.1-1.5,0.5-2.4,2.1-2.3c0.7,0,1.4,0,2,0
	c40.8,0,81.7,0,122.5,0c1.3,0,3.1-0.8,3.9,1c1,2.1-0.2,3.7-3,3.7c-15.6,0-31.1,0-46.7,0C359.7,162.1,354.4,162.1,349.1,162.1z"/>
<path d="M753.4,341.5c0-2.4,0-4.7,0-7.1c0-1.9,0.6-2.6,2.4-1.5c4.3,2.6,8.6,5.2,13,7.8c1.4,0.8,1.5,1.5,0,2.3
	c-4.4,2.5-8.8,5-13.1,7.6c-2,1.2-2.3,0.4-2.3-1.4C753.4,346.7,753.4,344.1,753.4,341.5z"/>
<g>
	<g>
		<path class="st1" d="M794,348c0.7-8,4.2-13.9,11.4-17.1c8.2-3.6,17.4-1,22.9,6.4c0.7,0.9,2.1,1.8,3.1,1.6
			c10.3-1.3,17.3,3.8,18.9,14.1c0,0.3,0.2,0.6,0.3,1c1.3,0.2,2.7,0.3,4,0.6c5.9,1.6,9.9,7.4,9.2,13.3c-0.7,6.5-5.9,11.2-12.6,11.2
			c-11.2,0.1-22.4,0-33.6,0c-8.3,0-16.6,0.1-24.8,0c-6.4-0.1-11.7-2.5-14.8-8.3c-2.9-5.3-2.6-10.8,0.7-15.8
			C782.1,349.6,787.4,347.6,794,348z"/>
	</g>
	<g>
		<path d="M794,356.4c0.7-8,4.2-13.9,11.4-17.1c8.2-3.6,17.4-1,22.9,6.4c0.7,0.9,2.1,1.8,3.1,1.6c10.3-1.3,17.3,3.8,18.9,14.1
			c0,0.3,0.2,0.6,0.3,1c1.3,0.2,2.7,0.3,4,0.6c5.9,1.6,9.9,7.4,9.2,13.3c-0.7,6.5-5.9,11.2-12.6,11.2c-11.2,0.1-22.4,0-33.6,0
			c-8.3,0-16.6,0.1-24.8,0c-6.4-0.1-11.7-2.5-14.8-8.3c-2.9-5.3-2.6-10.8,0.7-15.8C782.1,358,787.4,356,794,356.4z"/>
	</g>
	<path class="st1" d="M827.6,362.7c-4.8,2.8-9.3,5.4-13.8,8c-1.1,0.7-1.5,0.4-1.5-0.9c0-4.8,0-9.6,0-14.4c0-1.1,0.2-1.4,1.3-0.8
		C818.2,357.3,822.8,359.9,827.6,362.7z"/>
</g>
<g>
	<g>
		<path class="st1" d="M119,356.7c1-10.6,5.5-18.4,15.1-22.6c10.9-4.8,23-1.3,30.4,8.5c0.9,1.1,2.8,2.3,4.1,2.2
			c13.7-1.7,23,5.1,25.1,18.6c0.1,0.4,0.3,0.8,0.4,1.3c1.8,0.3,3.6,0.4,5.3,0.8c7.8,2.1,13.1,9.8,12.2,17.7
			c-1,8.6-7.8,14.8-16.7,14.9c-14.9,0.1-29.7,0-44.6,0c-11,0-21.9,0.1-32.9,0c-8.5-0.1-15.5-3.3-19.6-11.1c-3.8-7.1-3.4-14.3,0.9-21
			C103.2,358.9,110.2,356.2,119,356.7z"/>
	</g>
	<g>
		<path d="M119,367.8c1-10.6,5.5-18.4,15.1-22.6c10.9-4.8,23-1.3,30.4,8.5c0.9,1.1,2.8,2.3,4.1,2.2c13.7-1.7,23,5.1,25.1,18.6
			c0.1,0.4,0.3,0.8,0.4,1.3c1.8,0.3,3.6,0.4,5.3,0.8c7.8,2.1,13.1,9.8,12.2,17.7c-1,8.6-7.8,14.8-16.7,14.9c-14.9,0.1-29.7,0-44.6,0
			c-11,0-21.9,0.1-32.9,0c-8.5-0.1-15.5-3.3-19.6-11.1c-3.8-7.1-3.4-14.3,0.9-21C103.2,370,110.2,367.3,119,367.8z"/>
	</g>
	<path class="st1" d="M163.4,376.2c-6.3,3.7-12.3,7.1-18.3,10.6c-1.5,0.9-2,0.5-2-1.1c0-6.4,0-12.7,0-19.1c0-1.4,0.3-1.9,1.7-1.1
		C150.9,369,157,372.5,163.4,376.2z"/>
</g>
</svg>
