<?xml version="1.0" encoding="utf-8"?>
<!-- Generator: Adobe Illustrator 19.0.0, SVG Export Plug-In . SVG Version: 6.00 Build 0)  -->
<svg version="1.1" id="Layer_1" xmlns="http://www.w3.org/2000/svg" xmlns:xlink="http://www.w3.org/1999/xlink" x="0px" y="0px"
	 viewBox="0 0 87 21" style="enable-background:new 0 0 87 21;" xml:space="preserve">
<style type="text/css">
	.st0{fill:#F36E34;}
</style>
<g id="XMLID_2_">
	<path id="XMLID_11_" class="st0" d="M22.8,4.5l-2.4,9.1c-0.1,0.6-0.4,1-0.7,1.5c-0.3,0.5-0.7,0.9-1.1,1.2c-0.4,0.3-0.9,0.6-1.4,0.7
		c-0.5,0.2-1.1,0.3-1.6,0.3H2.1L5.5,4.4c0-0.2,0.2-0.4,0.3-0.6C6,3.7,6.3,3.6,6.5,3.6h1.8c0.2,0,0.4,0.1,0.5,0.3C9,4.1,9,4.3,9,4.5
		L6.4,14h3.5l2.6-9.5c0-0.2,0.2-0.4,0.3-0.6c0.2-0.1,0.4-0.2,0.6-0.2h1.8c0.2,0,0.4,0.1,0.5,0.3c0.1,0.2,0.2,0.3,0.1,0.6L13.3,14
		h2.1c0.4,0,0.8-0.1,1.1-0.3c0.3-0.3,0.5-0.6,0.7-1l2.2-8.2c0-0.2,0.2-0.4,0.3-0.6c0.2-0.1,0.4-0.2,0.7-0.2h1.8
		c0.2,0,0.4,0.1,0.5,0.3C22.8,4.1,22.8,4.3,22.8,4.5z"/>
	<path id="XMLID_10_" class="st0" d="M25.6,10.3c-0.1,0.1-0.2,0.3-0.3,0.4l-0.8,2.9c0,0.2,0,0.3,0.1,0.4c0.1,0.1,0.2,0.2,0.4,0.2h7
		l-0.6,2c-0.1,0.3-0.3,0.6-0.5,0.7s-0.5,0.3-0.9,0.3h-6.3c-0.5,0-0.9-0.1-1.3-0.3c-0.4-0.2-0.7-0.5-1-0.8c-0.3-0.3-0.4-0.7-0.5-1.1
		c-0.1-0.4-0.1-0.9,0-1.3l1-3.9c0.1-0.4,0.3-0.8,0.5-1.2s0.5-0.7,0.8-0.9c0.3-0.3,0.7-0.4,1.1-0.6c0.4-0.1,0.8-0.2,1.3-0.2h4.6
		c0.5,0,0.9,0.1,1.3,0.3s0.7,0.5,1,0.8c0.3,0.3,0.4,0.7,0.5,1.1c0.1,0.4,0.1,0.9,0,1.3l-0.3,1.2c-0.1,0.5-0.4,0.9-0.8,1.2
		c-0.4,0.3-0.9,0.5-1.4,0.5h-5.2l0.3-1.3c0.1-0.3,0.3-0.6,0.5-0.7c0.3-0.2,0.5-0.3,0.9-0.3h2.1c0.2,0,0.3-0.1,0.4-0.3l0.1-0.3
		c0-0.1,0-0.2-0.1-0.3c-0.1-0.1-0.2-0.2-0.3-0.2H26C25.9,10.1,25.7,10.2,25.6,10.3z"/>
	<path id="XMLID_9_" class="st0" d="M37.2,3.7c0.2,0,0.4,0,0.7,0.2c0.2,0.1,0.3,0.2,0.5,0.4c0.1,0.2,0.2,0.3,0.3,0.6
		c0,0.2,0,0.4,0,0.7L36.3,14h2.9c0.4,0,0.8-0.1,1.1-0.4c0.3-0.3,0.5-0.6,0.7-1c0.1-0.3,0.1-0.6,0-0.8c0-0.3-0.2-0.5-0.3-0.7
		c-0.2-0.2-0.3-0.4-0.6-0.5c-0.3-0.1-0.5-0.2-0.8-0.2H39c-0.3,0-0.5-0.1-0.6-0.3c-0.1-0.2-0.2-0.4-0.1-0.7L38.9,7h0.4
		c0.8,0,1.6,0.2,2.3,0.5c0.7,0.3,1.3,0.8,1.7,1.4c0.4,0.6,0.8,1.3,1,2c0.2,0.7,0.1,1.5-0.1,2.3l-0.1,0.3c-0.1,0.6-0.4,1-0.7,1.5
		c-0.3,0.5-0.7,0.9-1.1,1.2c-0.4,0.3-0.9,0.6-1.4,0.7c-0.5,0.2-1.1,0.3-1.6,0.3h-5.4c-0.2,0-0.4,0-0.7-0.2c-0.2-0.1-0.3-0.2-0.5-0.4
		c-0.1-0.2-0.2-0.3-0.3-0.6c0-0.2,0-0.4,0-0.7l3.2-11.8L37.2,3.7L37.2,3.7z"/>
	<path id="XMLID_8_" class="st0" d="M44,16.5L46.5,7h10.8c0.8,0,1.6,0.2,2.3,0.5c0.7,0.3,1.3,0.8,1.7,1.4c0.4,0.6,0.8,1.3,1,2
		c0.2,0.7,0.1,1.5-0.1,2.3l-0.9,3.2c0,0.2-0.2,0.4-0.3,0.6c-0.2,0.1-0.4,0.2-0.6,0.2h-1.8c-0.2,0-0.4-0.1-0.5-0.3
		c-0.1-0.2-0.2-0.3-0.1-0.6l1-3.9c0.1-0.3,0.1-0.6,0-0.8c0-0.3-0.2-0.5-0.3-0.7c-0.2-0.2-0.3-0.4-0.6-0.5c-0.3-0.1-0.5-0.2-0.8-0.2
		H56l-1.6,6.2c0,0.2-0.2,0.4-0.3,0.6c-0.2,0.1-0.4,0.2-0.7,0.2h-1.8c-0.2,0-0.4-0.1-0.5-0.3c-0.1-0.2-0.2-0.3-0.1-0.6l1.6-6.1H49
		l-1.6,6.2c0,0.2-0.2,0.4-0.3,0.6c-0.2,0.1-0.4,0.2-0.7,0.2h-1.8c-0.2,0-0.4-0.1-0.5-0.3C44,16.9,43.9,16.7,44,16.5z"/>
	<path id="XMLID_7_" class="st0" d="M71.3,10.6l0-0.2c0-0.1,0-0.2,0-0.2c0,0-0.1-0.1-0.2-0.1h-5.5c-0.2,0-0.4,0-0.7-0.2
		c-0.2-0.1-0.3-0.2-0.5-0.4c-0.1-0.2-0.2-0.3-0.3-0.6c0-0.2,0-0.4,0-0.7L64.5,7H72c0.5,0,0.9,0.1,1.3,0.3c0.4,0.2,0.7,0.5,1,0.8
		c0.3,0.3,0.4,0.7,0.5,1.1s0.1,0.9,0,1.3l-1.3,5c-0.1,0.5-0.4,0.9-0.8,1.3c-0.4,0.3-0.9,0.5-1.4,0.5h-5.5c-0.5,0-1-0.1-1.3-0.3
		c-0.4-0.2-0.7-0.5-1-0.8c-0.3-0.3-0.4-0.7-0.6-1.2c-0.1-0.4-0.1-0.9,0-1.4l0.1-0.3c0.1-0.3,0.2-0.6,0.4-0.9
		c0.2-0.3,0.4-0.5,0.7-0.7c0.3-0.2,0.5-0.3,0.8-0.4c0.3-0.1,0.6-0.2,1-0.2h4.6l-0.3,1.3c-0.1,0.3-0.3,0.6-0.5,0.7
		c-0.3,0.2-0.5,0.3-0.9,0.3h-2.1c-0.2,0-0.3,0.1-0.4,0.3c0,0.1,0,0.2,0.1,0.3c0.1,0.1,0.2,0.1,0.3,0.1h3.3c0.1,0,0.2,0,0.3-0.1
		c0.1-0.1,0.1-0.2,0.2-0.3l0-0.1L71.3,10.6z"/>
	<path id="XMLID_4_" class="st0" d="M73.7,17.3l2.2-8.2c0.1-0.3,0.2-0.6,0.4-0.8c0.2-0.3,0.4-0.5,0.6-0.7c0.2-0.2,0.5-0.3,0.8-0.4
		c0.3-0.1,0.6-0.2,0.9-0.2h1.3l-2.2,8.2c-0.1,0.3-0.2,0.6-0.4,0.8c-0.2,0.3-0.4,0.5-0.6,0.7c-0.2,0.2-0.5,0.3-0.8,0.4
		c-0.3,0.1-0.6,0.2-0.9,0.2H73.7z M76.9,5.5l0.3-1c0-0.2,0.2-0.4,0.3-0.6c0.2-0.1,0.4-0.2,0.7-0.2H80c0.2,0,0.4,0.1,0.5,0.3
		c0.1,0.2,0.2,0.3,0.1,0.6l-0.3,1c0,0.2-0.2,0.4-0.3,0.6c-0.2,0.1-0.4,0.2-0.6,0.2h-1.8c-0.2,0-0.4-0.1-0.5-0.3
		C76.9,5.9,76.8,5.6,76.9,5.5z"/>
	<path id="XMLID_3_" class="st0" d="M78,17.3l3.4-12.8c0-0.2,0.2-0.4,0.3-0.6c0.2-0.1,0.4-0.2,0.7-0.2h1.8c0.2,0,0.4,0.1,0.5,0.3
		c0.1,0.2,0.2,0.3,0.1,0.6L82.3,14c-0.1,0.5-0.3,1-0.6,1.3c-0.3,0.4-0.6,0.7-1,1c-0.4,0.3-0.8,0.5-1.3,0.7
		C79,17.2,78.5,17.3,78,17.3z"/>
</g>
</svg>
