<?xml version="1.0" encoding="utf-8"?>
<!-- Generator: Adobe Illustrator 19.0.0, SVG Export Plug-In . SVG Version: 6.00 Build 0)  -->
<svg version="1.1" id="Layer_1" xmlns="http://www.w3.org/2000/svg" xmlns:xlink="http://www.w3.org/1999/xlink" x="0px" y="0px"
	 viewBox="0 0 87 21" style="enable-background:new 0 0 87 21;" xml:space="preserve">
<style type="text/css">
	.st0{fill:#F36E34;}
</style>
<g id="XMLID_23_">
	<g id="XMLID_24_">
		<path id="XMLID_29_" class="st0" d="M38.1,3l-3.2,11.4c-0.2,0.7-0.5,1.3-0.8,1.8c-0.3,0.7-0.8,1-1.3,1.5c-0.5,0.5-1.2,0.7-1.8,1
			c-0.7,0.2-1.3,0.3-2,0.3H12.1l4.4-16.3c0-0.3,0.2-0.5,0.5-0.7c0.2-0.2,0.5-0.3,0.8-0.3H20c0.3,0,0.5,0.2,0.7,0.3
			c0,0.3,0.2,0.5,0,0.8l-3.2,11.9h4.4L25,2.8c0-0.3,0.2-0.5,0.5-0.7C25.8,2,26,2,26.3,2h2.3c0.3,0,0.5,0.2,0.7,0.3
			c0.2,0.2,0.2,0.5,0.2,0.7l-3.2,11.9H29c0.5,0,1-0.2,1.3-0.5c0.5-0.3,0.7-0.7,0.8-1.2l2.8-10.4c0-0.3,0.2-0.5,0.5-0.7
			c0.2-0.2,0.5-0.3,0.8-0.3h2.3c0.3,0,0.5,0.2,0.7,0.3C38.1,2.5,38.2,2.6,38.1,3z"/>
		<path id="XMLID_27_" class="st0" d="M41.1,12.5L39.6,18c0,0.3-0.2,0.5-0.5,0.7c-0.2,0.2-0.5,0.3-0.8,0.3h-2.3
			c-0.3,0-0.5-0.2-0.7-0.3c-0.2-0.2-0.2-0.5-0.2-0.7l4.2-15.3c0-0.3,0.2-0.5,0.5-0.7c0.2-0.2,0.5-0.3,0.8-0.3h3.4l-1.7,6.5h5.4
			l1.5-5.5c0-0.3,0.2-0.5,0.5-0.7c0.2-0.2,0.5-0.3,0.8-0.3h3.4L49.5,18c0,0.3-0.2,0.5-0.5,0.7c-0.2,0.2-0.5,0.3-0.8,0.3h-2.3
			c-0.3,0-0.5-0.2-0.7-0.3C45,18.5,45,18.2,45,18l1.5-5.5H41.1z"/>
		<path id="XMLID_25_" class="st0" d="M50.7,18L55,2h13.6c1,0,2,0.2,2.8,0.7c0.8,0.5,1.7,1,2.2,1.8c0.7,0.7,1,1.7,1.2,2.5
			c0.2,1,0.2,1.8-0.2,3l-2.2,8.2c0,0.3-0.2,0.5-0.5,0.7c-0.2,0.2-0.5,0.3-0.8,0.3h-2.3c-0.3,0-0.5-0.2-0.7-0.3s-0.2-0.5-0.2-0.7
			l2.3-8.7c0.2-0.3,0.2-0.8,0-1.2c-0.2-0.3-0.3-0.7-0.5-1s-0.3-0.7-0.7-0.8c-0.3-0.2-0.7-0.3-1.2-0.3h-1l-3.2,12.1
			c0,0.3-0.2,0.5-0.5,0.7c-0.2,0.2-0.5,0.3-0.8,0.3H60c-0.3,0-0.5-0.2-0.7-0.3c0-0.3-0.2-0.5,0-0.8l3.2-11.9h-4.4L55,18.2
			c0,0.3-0.2,0.5-0.5,0.7c-0.2,0.2-0.5,0.3-0.8,0.3h-2.3c-0.3,0-0.5-0.2-0.7-0.3C50.7,18.5,50.7,18.4,50.7,18z"/>
	</g>
</g>
<g id="XMLID_17_">
	<path id="XMLID_18_" class="st0" d="M42.1,10.5c0-0.3,0-0.5,0.2-0.7c0.2-0.2,0.3-0.5,0.5-0.5c0.2-0.2,0.5-0.2,0.7-0.2
		c0.2,0,0.5,0,0.7,0.2c0.2,0.2,0.5,0.3,0.5,0.5c0,0.2,0.2,0.5,0.2,0.7s0,0.5-0.2,0.7c-0.2,0.2-0.3,0.5-0.5,0.5
		c-0.2,0.2-0.5,0.2-0.7,0.2c-0.2,0-0.5,0-0.7-0.2s-0.5-0.3-0.5-0.5C42.2,11,42.1,10.8,42.1,10.5z M42.2,10.5c0,0.2,0,0.5,0.2,0.7
		c0.2,0.2,0.3,0.3,0.5,0.5s0.5,0.2,0.7,0.2c0.2,0,0.5,0,0.7-0.2c0.2-0.2,0.3-0.3,0.5-0.5c0.2-0.2,0.2-0.5,0.2-0.7s0-0.5-0.2-0.7
		c-0.2-0.2-0.3-0.3-0.5-0.5c-0.2-0.2-0.5-0.2-0.7-0.2c-0.2,0-0.5,0-0.7,0.2c-0.2,0.2-0.3,0.3-0.5,0.5C42.2,10,42.2,10.3,42.2,10.5z
		 M44.3,10.2c0,0.2,0,0.2-0.2,0.3c0,0.2-0.2,0.2-0.2,0.2l0.5,0.7h-0.3l-0.5-0.7h-0.3v0.7h-0.3V9.5h0.5c0.2,0,0.3,0,0.5,0.2
		C44.1,9.8,44.3,10,44.3,10.2z M43.2,10.5h0.2c0.2,0,0.2,0,0.3-0.2l0.2-0.2c0-0.2,0-0.2-0.2-0.2c0,0-0.2,0-0.3,0h-0.2V10.5z"/>
</g>
</svg>
