<?xml version="1.0" encoding="utf-8"?>
<!-- Generator: Adobe Illustrator 19.0.0, SVG Export Plug-In . SVG Version: 6.00 Build 0)  -->
<svg version="1.1" id="Layer_1" xmlns="http://www.w3.org/2000/svg" xmlns:xlink="http://www.w3.org/1999/xlink" x="0px" y="0px"
	 viewBox="0 0 87 21" style="enable-background:new 0 0 87 21;" xml:space="preserve">
<style type="text/css">
	.st0{fill:#7BBF43;}
	.st1{fill:#033855;}
	.st2{fill:#D8DADB;}
</style>
<g id="XMLID_10_">
	<path id="XMLID_8_" class="st0" d="M64.7,14.7c-2.1,0-3.8-1.7-3.8-3.8c0-2.1,1.7-3.8,3.8-3.8c1.5,0,2.9,0.9,3.5,2.4h2.6
		c0-0.2-0.1-0.4-0.2-0.6l1.5-1.3l-0.7-1.3l-2,0.6c-0.2-0.2-0.4-0.4-0.6-0.6l0.6-1.8l-1.3-0.8L66.7,5c-0.2-0.1-0.5-0.2-0.8-0.2
		L65.4,3l-1.5,0l-0.5,1.9c-0.3,0-0.6,0.1-0.8,0.2l-1.4-1.4L60,4.3l0.6,2c-0.2,0.2-0.4,0.3-0.5,0.5l-2-0.6l-0.8,1.2L58.8,9
		c-0.1,0.2-0.2,0.5-0.2,0.8l-1.9,0.6l0,1.5l2,0.5c0,0.3,0.1,0.5,0.2,0.8l-1.5,1.3l0.7,1.3l2-0.6c0.2,0.2,0.3,0.4,0.5,0.5l-0.5,2
		l1.2,0.7l1.5-1.4c0.2,0.1,0.4,0.1,0.7,0.2l0.5,2h1.5l0.5-2c0.3,0,0.5-0.1,0.8-0.2l1.4,1.4l1.3-0.7l-0.6-1.9
		c0.2-0.2,0.4-0.4,0.6-0.6l1.9,0.6l0.8-1.3l-1.2-1.2h-3C67.1,14.2,65.9,14.7,64.7,14.7L64.7,14.7z"/>
	<polygon id="XMLID_7_" class="st1" points="4.8,3.6 7.6,3.6 11.1,14.6 14.7,3.6 16.9,3.6 20.5,14.6 24,3.6 26.7,3.6 21.9,18.6 
		19.2,18.6 15.7,7.9 12.5,18.6 9.7,18.6 	"/>
	<polygon id="XMLID_6_" class="st1" points="27.9,3.6 30.4,3.6 30.4,9.8 36.9,9.8 36.9,3.6 39.4,3.6 39.4,18.4 36.9,18.4 36.9,12.2 
		30.4,12.2 30.4,18.4 27.9,18.4 	"/>
	<polygon id="XMLID_5_" class="st1" points="41.1,3.6 44.1,3.6 48.4,9.8 52.7,3.6 55.7,3.6 55.7,18.4 53,18.4 53,7.5 48.4,14.1 
		43.7,7.5 43.7,18.4 41.1,18.4 	"/>
	<path id="XMLID_4_" class="st1" d="M72.1,14.7v2.8c1.5,0.8,3.1,1.2,4.8,1.2c2.5,0,5.4-1.2,5.4-4.2s-1.8-4.2-4.5-4.8s-3.1-1.2-3.1-2
		c0-0.7,0.6-1.8,3-1.8c1.3,0,2.6,0.4,3.6,1.3V4.5c0,0-2.1-1-4-1c-1.9,0-5.2,0.4-5.2,4.4c0,5.2,7.4,3.2,7.4,6.5
		c0,1.4-1.3,1.8-3.1,1.8C74.3,16.1,72.1,14.7,72.1,14.7z"/>
	<path id="XMLID_11_" class="st2" d="M69.1,4.4c-1.4,0-2.5,1.1-2.5,2.5s1.1,2.5,2.5,2.5c1.4,0,2.5-1.1,2.5-2.5S70.4,4.4,69.1,4.4
		L69.1,4.4z M73.1,7.7C73,7.8,73,8,72.9,8.2l0.9,0.9L73.3,10l-1.2-0.4C72,9.7,71.9,9.8,71.7,10l0.3,1.2l-0.8,0.5l-0.9-1
		c-0.2,0-0.3,0.1-0.5,0.2l-0.3,1.3h-1l-0.3-1.3c-0.2,0-0.3-0.1-0.4-0.1l-1,1l-0.8-0.4l0.3-1.3c-0.1-0.1-0.2-0.2-0.3-0.3L64.8,10
		l-0.4-0.8l1-0.8c-0.1-0.2-0.1-0.3-0.2-0.5l-1.3-0.3l0-1l1.2-0.3c0-0.2,0.1-0.3,0.1-0.5l-1-0.9L64.8,4l1.3,0.3
		c0.1-0.1,0.2-0.2,0.3-0.3l-0.3-1.3L67,2.3l0.9,0.9c0.2-0.1,0.4-0.1,0.5-0.2l0.3-1.2l1,0l0.3,1.2c0.2,0,0.3,0.1,0.5,0.1l1-0.9
		l0.8,0.5L71.9,4c0.1,0.1,0.2,0.2,0.4,0.4L73.5,4L74,4.9l-1,0.9c0.1,0.2,0.1,0.4,0.2,0.6l1.3,0.3v1l-1.3,0.3L73.1,7.7z"/>
</g>
</svg>
