<?xml version="1.0" encoding="utf-8"?>
<!-- Generator: Adobe Illustrator 26.0.1, SVG Export Plug-In . SVG Version: 6.00 Build 0)  -->
<svg version="1.1" id="Layer_1" xmlns="http://www.w3.org/2000/svg" xmlns:xlink="http://www.w3.org/1999/xlink" x="0px" y="0px"
	 viewBox="0 0 60 59" style="enable-background:new 0 0 60 59;" xml:space="preserve">
<style type="text/css">
	.st0{fill:#FCC11A;}
	.st1{fill:#FEE000;}
</style>
<g>
	<path class="st0" d="M-98.6,62c0.2-0.6,0.3-1.2,0.5-1.8c0.7-1.7,2.4-3.5,5.2-3.5c13.9,0,27.8,0.1,41.7,0c3.5,0,5.5,2.7,5.8,5.3
		c0,0.5,0.1,0.9,0.1,1.4c0,7.6,0,15.3,0,22.9c0,0.3,0.1,0.7,0.3,0.9c1.3,1.2,1.2,3,0.1,4l-0.1,0.1c0.2,0.6,0.4,1.2,0.7,1.7
		c0.1,0.2,0.3,0.3,0.5,0.3c1.7,0.2,2.6,1.1,2.6,2.8c0,0.6,0,1.2,0,1.8c0,1.4-1.1,2.5-2.5,2.5c-0.4,0-0.6,0.1-0.7,0.5
		c0,0.1-0.1,0.3-0.1,0.4c-0.4,0.7-0.5,1.3,0.1,2c0.7,0.8,0.5,2.1-0.2,2.9c-0.5,0.6-1.1,1.1-1.7,1.7c-1,0.9-2.4,0.9-3.4,0
		c-0.3-0.3-0.5-0.3-0.9-0.1c0,0,0,0-0.1,0c-0.9,0.3-1.6,0.6-1.7,1.8c-0.1,1-1.2,1.7-2.3,1.7c-0.7,0-1.4,0-2.1,0
		c-1.4,0-2.5-1-2.5-2.4c0-0.5-0.2-0.6-0.6-0.8c-0.8-0.3-1.5-0.7-2.4,0.1c-0.7,0.7-2,0.4-2.8-0.3c-0.6-0.5-1.1-1.1-1.7-1.7
		c-0.9-1-0.9-2.4,0-3.4c0.3-0.3,0.3-0.5,0.1-0.9c-0.1-0.2-0.2-0.5-0.3-0.7c-0.3-0.8-0.3-0.8-1.2-0.8c-2.8,0-5.6,0-8.4,0
		c-0.7,0-1.2-0.4-1.3-0.9c-0.1-0.7,0.4-1.3,1.2-1.3c1.9,0,3.8,0,5.8,0c0.2,0,0.4,0,0.7,0c0-0.7,0-1.4,0-2.1c0-1.7,0.9-2.7,2.6-2.8
		c0.2,0,0.4-0.2,0.5-0.3c0.3-0.5,0.5-1.1,0.7-1.7c-0.1-0.1-0.3-0.3-0.4-0.4c-0.8-1-0.8-2.4,0.1-3.4c0.5-0.5,1-1,1.5-1.5
		c1-1,2.5-1,3.5-0.1c0.3,0.3,0.5,0.3,0.8,0.1c0.1-0.1,0.2-0.1,0.4-0.2c0.8-0.2,1.3-0.6,1.4-1.5c0.1-1,1-1.8,2.1-1.8
		c0.8-0.1,1.6-0.1,2.4,0c1.4,0.1,2.4,1,2.5,2.4c0,0.4,0.1,0.6,0.5,0.7s0.9,0.4,1.3,0.5c0.2,0.1,0.4,0,0.5-0.1
		c0.6-0.6,1.3-0.9,2.2-0.8c0-3.8,0-7.5,0-11.3c-16.2,0-32.4,0-48.7,0c0,0.2,0,0.4,0,0.6c0,6.5,0,13,0,19.6c0,0.7,0.1,1.5,0.4,2.1
		c0.5,1.3,1.6,2.1,3.1,2c2,0,4,0,5.9,0c0.9,0,1.4,0.4,1.4,1.1s-0.5,1.1-1.4,1.1c-1.9,0-3.9-0.1-5.8,0c-3.4,0.2-5.4-2.5-5.8-4.9
		c0-0.1-0.1-0.2-0.1-0.4C-98.6,84.2-98.6,73.1-98.6,62z M-96.3,71.7c16.2,0,32.5,0,48.7,0c0-0.5,0-1,0-1.4c0-2.6,0-5.1,0-7.7
		c-0.1-2.2-1.5-3.5-3.7-3.5c-1.8,0-3.7,0-5.5,0c-12,0-24.1,0-36.1,0c-1.1,0-1.9,0.4-2.5,1.2C-96,61-96.3,62-96.3,63
		c0,2.7,0,5.4,0,8.1C-96.3,71.3-96.3,71.5-96.3,71.7z M-46.2,104.7c-0.1-0.1-0.2-0.2-0.3-0.3c-0.2-0.2-0.4-0.4-0.6-0.6
		c-0.5-0.6-0.6-0.9-0.2-1.7c0.4-0.8,0.8-1.7,1.1-2.5c0.3-1,0.5-1.2,1.6-1.2c1.3,0,1.2,0.1,1.2-1.2c0-1.4,0-1.4-1.4-1.4
		c-0.8,0-1.1-0.3-1.3-1.1c-0.3-0.9-0.7-1.7-1.1-2.6c-0.4-0.9-0.4-1.2,0.2-1.9c0.9-0.9,0.9-0.9,0-1.8s-0.9-0.9-1.9,0
		c-0.6,0.6-1,0.6-1.8,0.2c-0.9-0.4-1.8-0.8-2.7-1.1c-0.8-0.3-1.1-0.6-1.1-1.5c0-1.3,0-1.3-1.2-1.3c-1.3,0-1.3,0-1.4,1.3
		c0,0.9-0.3,1.1-1.1,1.4c-0.9,0.3-1.7,0.6-2.5,1c-0.9,0.4-1.2,0.4-1.9-0.2c-1-1-0.7-1-1.7,0c-0.9,0.9-0.9,0.9,0,1.9
		c0.6,0.6,0.6,1,0.2,1.8s-0.8,1.7-1.1,2.6c-0.3,0.8-0.6,1.1-1.5,1.1c-1.3,0-1.3,0-1.3,1.3c0,1.5-0.2,1.3,1.3,1.3
		c0.9,0,1.2,0.3,1.4,1.1c0.3,0.8,0.6,1.7,1,2.5c0.5,0.9,0.5,1.2-0.3,2c-1,1-0.9,0.7,0,1.7c1,1,1,1,2,0c0.6-0.5,1-0.6,1.7-0.2
		c0.8,0.4,1.6,0.8,2.5,1.1c1,0.3,1.3,0.6,1.3,1.7c0,1.3-0.1,1.1,1.1,1.1c1.4,0,1.4,0,1.4-1.4c0-0.1,0-0.1,0-0.2
		c0-0.6,0.3-0.9,0.8-1.1c1-0.4,2-0.8,3-1.3c0.5-0.2,1-0.2,1.4,0.2c0.3,0.2,0.5,0.5,0.8,0.8c0.2,0.2,0.4,0.3,0.6,0
		c0.4-0.4,0.8-0.8,1.2-1.2C-46.3,104.9-46.3,104.8-46.2,104.7z"/>
	<path class="st0" d="M-73.3,86.1c-0.9-1-1.8-2-2.7-3c-0.4-0.4-0.4-0.9-0.2-1.3c0.2-0.5,0.7-0.7,1.2-0.6c0.3,0.1,0.5,0.2,0.7,0.4
		c1,1.1,2.1,2.3,3.1,3.5c0.6,0.7,0.6,1.4,0,2.1c-1,1.2-2.1,2.4-3.1,3.5c-0.5,0.5-1.2,0.6-1.6,0.1c-0.5-0.4-0.5-1.1,0-1.6
		C-75.1,88.2-74.2,87.2-73.3,86.1z"/>
	<path class="st0" d="M-89.6,86.2c0.8,0.9,1.6,1.8,2.4,2.7c0.1,0.2,0.3,0.3,0.4,0.5c0.4,0.5,0.3,1.1-0.2,1.5
		c-0.4,0.4-1.1,0.4-1.5-0.1c-0.5-0.5-1-1.1-1.5-1.6c-0.6-0.6-1.2-1.3-1.7-1.9c-0.6-0.7-0.6-1.5,0-2.2c1-1.2,2-2.3,3.1-3.4
		c0.5-0.5,1.2-0.6,1.6-0.2c0.5,0.4,0.5,1.1,0,1.7c-0.8,0.9-1.5,1.7-2.3,2.6C-89.4,85.9-89.5,86-89.6,86.2z"/>
	<path class="st0" d="M-79.2,81.6c-0.2,0.9-0.5,1.9-0.7,3c-0.5,2.1-1,4.2-1.5,6.3c0,0.1,0,0.1,0,0.2c-0.2,0.7-0.8,1.1-1.4,0.9
		s-1-0.7-0.8-1.4c0.5-2,0.9-4,1.4-6c0.3-1.1,0.5-2.3,0.8-3.4c0.2-0.6,0.7-0.9,1.2-0.8C-79.6,80.4-79.2,80.9-79.2,81.6z"/>
	<path class="st0" d="M-81.6,98.3c0.6,0,1.2,0.5,1.2,1.1s-0.5,1.1-1.1,1.1s-1.1-0.5-1.1-1.1C-82.8,98.9-82.3,98.3-81.6,98.3z"/>
	<path class="st0" d="M-59.9,69.2c-1.7,0-3.4,0-5.2,0c-1.9,0-3.5-1.5-3.7-3.4c-0.2-1.8,1-3.5,2.8-4c0.4-0.1,0.8-0.2,1.2-0.2
		c3.2,0,6.5,0,9.7,0c1.6,0,2.9,0.7,3.6,2.2c0.6,1.4,0.4,2.8-0.6,4c-0.8,0.9-1.8,1.4-3,1.4C-56.6,69.2-58.3,69.2-59.9,69.2
		L-59.9,69.2z M-59.9,63.9c-1.7,0-3.3,0-5,0c-0.9,0-1.6,0.7-1.6,1.5c0,0.9,0.7,1.5,1.6,1.5c3.3,0,6.6,0,9.9,0c0.6,0,1.2-0.3,1.5-0.9
		c0.5-1-0.2-2.2-1.5-2.2C-56.6,63.9-58.3,63.9-59.9,63.9z"/>
	<path class="st0" d="M-74.5,65.4c0,2.1-1.7,3.8-3.8,3.8c-2.1,0-3.8-1.7-3.8-3.8c0-2.1,1.7-3.8,3.8-3.8
		C-76.2,61.6-74.4,63.3-74.5,65.4z M-76.7,65.4c0-0.8-0.7-1.5-1.6-1.5c-0.8,0-1.5,0.7-1.5,1.5c0,0.9,0.7,1.5,1.5,1.5
		C-77.4,66.9-76.7,66.2-76.7,65.4z"/>
	<path class="st0" d="M-91.8,65.4c0-2.1,1.7-3.8,3.8-3.8c2.1,0,3.8,1.7,3.8,3.8s-1.7,3.8-3.8,3.8C-90.2,69.2-91.8,67.5-91.8,65.4z
		 M-86.6,65.4c0-0.9-0.7-1.5-1.5-1.5s-1.5,0.7-1.5,1.5s0.7,1.6,1.5,1.6C-87.3,67-86.6,66.3-86.6,65.4z"/>
	<path class="st0" d="M-62.5,97c0-3.8,3.1-6.9,6.9-6.9c3.8,0,6.9,3.1,6.9,6.9s-3.1,6.9-6.9,6.9S-62.5,100.8-62.5,97z M-60.3,97.1
		c0,2.6,2.1,4.6,4.6,4.6s4.6-2.1,4.6-4.6c0-2.6-2.1-4.6-4.7-4.6C-58.2,92.4-60.3,94.5-60.3,97.1z"/>
</g>
<g>
	<path class="st0" d="M-158.9,52.6c0.9,0.3,1.9,0.4,2.7,0.9c2.9,1.5,4.5,3.9,4.7,7.2c0.1,1.1,0,2.3,0,3.4c0,1.2-0.9,2.1-2.1,2.1
		c-1.2,0-2-0.9-2.1-2.1c0-1,0-2,0-3c0-2.6-1.8-4.3-4.3-4.3c-4.4,0-8.8,0-13.3,0c-2.1,0-4.2,0-6.4,0c-2.7,0-4.4,1.8-4.4,4.4
		c0,12,0,23.9,0,35.9c0,2.7,1.8,4.4,4.5,4.4c6.5,0,13,0,19.5,0c2.7,0,4.5-1.8,4.5-4.5c0-1.1,0-2.3,0-3.4c0-1.3,0.9-2.2,2.1-2.2
		c1.2,0,2.1,0.9,2.1,2.2c0,1.6,0.1,3.3-0.1,4.9c-0.4,3.9-3.9,7-7.8,7.1c-1.3,0-2.5,0-3.8,0c-5.5,0-11.1,0-16.6,0
		c-3.7,0-6.8-2.2-8-5.6c-0.3-0.9-0.5-1.8-0.5-2.7c0-12.1,0-24.3,0-36.4c0-4.2,2.9-7.6,7.1-8.3c0.1,0,0.2-0.1,0.2-0.1
		C-173.5,52.6-166.2,52.6-158.9,52.6z"/>
	<path class="st0" d="M-169.9,87.9c-0.4-0.2-0.9-0.4-1.3-0.7c-1.7-1.4-3.4-2.8-5-4.2c-2.4-2-2.4-5.4,0-7.5c1.6-1.4,3.3-2.8,5-4.2
		c1-0.9,2.3-0.8,3,0.1c0.8,0.9,0.6,2.2-0.4,3.1c-1.6,1.3-3.1,2.6-4.7,3.9c-0.7,0.6-0.7,0.9,0,1.6c1.6,1.3,3.2,2.7,4.8,4
		c0.6,0.5,0.9,1.2,0.7,2.1c-0.2,0.8-0.7,1.3-1.5,1.5c-0.2,0-0.3,0.1-0.5,0.1C-169.9,87.8-169.9,87.8-169.9,87.9z"/>
	<path class="st0" d="M-143.3,79.3c-0.1,1.3-0.5,2.5-1.5,3.4c-1.7,1.6-3.5,3.1-5.3,4.6c-0.9,0.7-2.2,0.6-2.9-0.3s-0.7-2.1,0.3-2.9
		c1.6-1.4,3.2-2.7,4.8-4.1c0.7-0.6,0.7-0.9,0-1.5c-1.6-1.3-3.1-2.7-4.7-4c-0.9-0.8-1.1-2-0.4-2.9c0.8-1,2.1-1.1,3.1-0.2
		c1.3,1.1,2.5,2.2,3.8,3.2c0.4,0.4,0.9,0.8,1.3,1.2C-143.8,76.7-143.4,77.9-143.3,79.3z"/>
	<path class="st0" d="M-162.9,89.5c-1.3,0-2.2-1.2-1.9-2.5c0.5-2.1,1.1-4.1,1.7-6.1c1-3.4,1.9-6.8,2.9-10.2c0.3-0.9,0.7-1.6,1.7-1.8
		c1.5-0.4,2.9,1,2.5,2.4c-0.6,2.5-1.4,5-2.1,7.5c-0.9,3-1.7,6.1-2.6,9.1C-161,88.9-161.9,89.5-162.9,89.5z"/>
	<path class="st0" d="M-169.9,64.1c-0.7,0-1.3,0-2,0c-1.2,0-2-0.9-2.1-2c0-1.1,0.8-2.1,1.9-2.1c1.5-0.1,2.9-0.1,4.4,0
		c1.2,0,2,1,1.9,2.1c0,1.1-0.9,1.9-2.1,2C-168.5,64.1-169.2,64.1-169.9,64.1z"/>
	<path class="st0" d="M-169.9,98.3c-1.1,0-2.1-1-2-2.1c0-1.1,1-2,2.1-2s2.1,1,2.1,2.1C-167.8,97.4-168.8,98.3-169.9,98.3z"/>
</g>
<g>
	<path class="st0" d="M-281.1-38.3c0.8,0,1.6,0,2.4,0c0.6,0,1,0.3,1,0.9c0,0.5-0.4,0.8-1,0.8c-0.8,0-1.5,0-2.4,0c0,0.2,0,0.4,0,0.6
		c0,7.2,0,14.3,0,21.5c0,0.9-0.3,1.3-0.8,1.3s-0.8-0.3-0.9-1.2c-0.2-2.3-2.1-3.9-4.4-3.8c-2.2,0.1-3.9,2-3.9,4.2s1.8,4,4,4.1
		c0.9,0,1.8,0,2.7,0c13.1,0,26.2,0,39.3,0c0.2,0,0.4,0,0.8,0c0-0.2,0-0.4,0-0.6c0-8.8,0-17.5,0-26.3c0-0.1,0-0.2,0-0.4
		c0-0.8,0.3-1.1,0.8-1.1s0.8,0.4,0.8,1.1c0,9.3,0,18.5,0,27.8c0,0.9-0.3,1.1-1.1,1.1c-14.3,0-28.6,0-42.9,0c-3.5,0-6.1-2.5-6.1-6.1
		c0-8.8,0-17.6,0-26.4c0-3.5,2.7-6.1,6.1-6c3,0.1,5.5,2.6,5.6,5.6C-281.1-40.2-281.1-39.3-281.1-38.3z M-291.1-18.3
		c2.8-2.3,5.6-2.2,8.3,0c0-0.3,0-0.4,0-0.6c0-5.2,0-10.5,0-15.7c0-2.1,0-4.2,0-6.3c0-2.3-1.9-4.1-4.2-4.1c-2.3,0-4.2,1.8-4.2,4.1
		c0,7.4,0,14.8,0,22.2C-291.1-18.6-291.1-18.5-291.1-18.3z"/>
	<path class="st0" d="M-247.7-48.3c-0.6,0-1.1,0-1.6,0c0,6.4,0,12.7,0,19.1c0.5,0,1.1,0,1.6,0c0-0.2,0-0.4,0-0.6c0-4.1,0-8.2,0-12.3
		c0-0.2,0-0.4,0-0.5c0.1-0.5,0.3-0.7,0.8-0.7c0.4,0,0.8,0.3,0.8,0.8c0,0.1,0,0.3,0,0.4c0,4.5,0,9,0,13.5c0,0.4-0.1,0.7-0.2,1.1
		c-1,2.6-2,5.2-3.1,7.7c-0.1,0.3-0.3,0.6-0.6,0.7c-0.4,0.3-0.9,0-1.1-0.5c-1.1-2.7-2.2-5.4-3.3-8.2c-0.1-0.2-0.1-0.4-0.1-0.7
		c0-8.5,0-17,0-25.5c0-2.4,1.8-4.3,4.2-4.3c2.3,0,4.2,1.9,4.2,4.2c0,2.7,0,5.4,0,8.1c0,0.6-0.3,1-0.9,1c-0.5,0-0.8-0.4-0.8-1
		c0-0.2,0-0.3,0-0.5C-247.7-47.1-247.7-47.7-247.7-48.3z M-252.7-48.3c0,6.4,0,12.8,0,19.1c0.6,0,1.1,0,1.6,0c0-6.4,0-12.8,0-19.1
		C-251.6-48.3-252.1-48.3-252.7-48.3z M-247.7-53.4c0.1-1.3-0.1-2.4-1.3-3c-0.9-0.5-1.9-0.4-2.7,0.2c-0.9,0.7-1.1,1.7-0.9,2.8
		C-251-53.4-249.4-53.4-247.7-53.4z M-247.7-50.1c0-0.6,0-1.1,0-1.6c-1.7,0-3.3,0-4.9,0c0,0.6,0,1.1,0,1.6
		C-251-50.1-249.4-50.1-247.7-50.1z M-252.3-27.5c0.2,0.5,0.4,1,0.6,1.4c0.1,0.1,0.2,0.2,0.4,0.2c0.8,0,1.5,0,2.3,0
		c0.1,0,0.3-0.1,0.4-0.2c0.2-0.5,0.4-0.9,0.6-1.5c-1.2,0-2.4,0-3.5,0C-251.8-27.5-252-27.5-252.3-27.5z M-251-24.1
		c0.2,0.6,0.5,1.2,0.8,1.9c0.3-0.7,0.5-1.3,0.7-1.9C-250-24.1-250.5-24.1-251-24.1z"/>
	<path class="st0" d="M-271-31.9c-0.2-0.1-0.4-0.2-0.6-0.3c-1.7-0.9-2.6-2.3-2.8-4.2c0-0.3-0.1-0.5-0.4-0.7c-1.7-1-1.7-3.3,0-4.3
		c0.5-0.3,0.5-0.4,0.1-0.9c-2.2-2.2-2.8-5.5-1.6-8.3c1.3-2.9,4.1-4.6,7.3-4.5c1.1,0.1,2.2,0.4,3.2,0.9c0.6,0.3,0.8,0.8,0.6,1.2
		c-0.2,0.5-0.7,0.6-1.3,0.3c-3.1-1.6-6.6-0.4-8.1,2.6c-1.1,2.3-0.6,5.2,1.4,6.8c0.5,0.4,0.6,0.9,0.5,1.5c0.3,0,0.5,0,0.7,0
		c-0.2-1.4-0.3-2.8-0.5-4.2c-0.1-0.7-0.2-1.4-0.2-2.2c-0.1-0.8,0.5-1.3,1.2-1c1.4,0.6,2.8,0.7,4.2,0c0.8-0.4,1.3,0.2,1.2,1.1
		c-0.2,2-0.5,4-0.7,6.1c0,0.1,0,0.1,0,0.2c0.2,0,0.4,0,0.7,0c-0.2-0.8,0.4-1.3,0.9-1.8c1.8-1.8,2.1-4.5,1-6.7c0-0.1-0.1-0.2-0.1-0.3
		c-0.2-0.5-0.1-1,0.3-1.2s0.9-0.1,1.1,0.4c0.3,0.8,0.7,1.7,0.9,2.5c0.4,2.5-0.3,4.7-2.2,6.6c-0.4,0.4-0.3,0.5,0.1,0.8
		c0.9,0.5,1.3,1.2,1.3,2.2s-0.5,1.7-1.3,2.2c-0.2,0.1-0.3,0.3-0.3,0.5c-0.2,2.4-1.8,4.3-4.2,4.7c-0.2,0-0.4,0.1-0.5,0.3
		c-1.5,1.8-3.4,2.8-5.7,3.3c-1.3,0.3-2,1.1-2.1,2.2c-0.1,1.4,0.9,2.6,2.4,2.7c0.6,0,1.1,0,1.7,0s0.9,0.4,0.9,0.9s-0.4,0.8-0.9,0.8
		c-0.8,0-1.6,0-2.4-0.1c-1.9-0.3-3.2-1.9-3.3-3.8c-0.1-2,1.1-3.6,2.9-4.2c0.7-0.2,1.5-0.4,2.2-0.6C-272.5-30.6-271.7-31.2-271-31.9z
		 M-272.7-36.7c-0.1,1.8,1.5,3.4,3.4,3.3c1.8-0.1,3.3-1.7,3.2-3.3C-268.3-36.7-270.5-36.7-272.7-36.7z M-269.4-38.3c1.3,0,2.6,0,4,0
		c0.7,0,1-0.3,1.1-0.8c0-0.5-0.4-0.8-1-0.8c-2.6,0-5.3,0-7.9,0c-0.7,0-1,0.3-1.1,0.8c0,0.5,0.4,0.8,1,0.8
		C-272.1-38.3-270.8-38.3-269.4-38.3z M-270.3-41.7c0.6,0,1.2,0,1.8,0c0.2-1.8,0.4-3.6,0.6-5.6c-1.1,0.7-2,0.6-3.1,0.1
		C-270.7-45.3-270.5-43.5-270.3-41.7z"/>
	<path class="st0" d="M-264.4-16.6c0.6,0,1.1,0,1.7,0c0-0.3,0-0.6,0-1c0-0.5,0.2-0.8,0.6-1s0.8-0.4,1.1-0.6c0.4-0.3,0.9-0.4,1.3-0.1
		c0.2,0.2,0.5,0.3,0.8,0.4c0.3-0.5,0.5-0.9,0.8-1.4c-0.3-0.2-0.6-0.4-0.9-0.5c-0.4-0.2-0.5-0.5-0.4-1c0-0.4,0.1-0.9,0-1.3
		c-0.1-0.5,0.1-0.9,0.5-1.1c0.3-0.1,0.5-0.3,0.8-0.5c-0.3-0.5-0.5-0.9-0.8-1.4c-0.3,0.2-0.6,0.3-0.9,0.5c-0.4,0.2-0.7,0.2-1.1-0.1
		c-0.3-0.2-0.7-0.5-1.1-0.6c-0.6-0.2-0.8-0.6-0.8-1.2c0-0.3,0-0.5,0-0.8c-0.6,0-1.1,0-1.7,0c0,0.3,0,0.6,0,0.9c0,0.5-0.2,0.8-0.7,1
		c-0.4,0.2-0.8,0.4-1.1,0.6c-0.4,0.3-0.8,0.4-1.3,0.1c-0.2-0.2-0.5-0.3-0.8-0.4c-0.3,0.5-0.5,0.9-0.8,1.4c0.3,0.2,0.6,0.4,0.9,0.5
		c0.4,0.2,0.6,0.6,0.5,1c0,0.4-0.1,0.9,0,1.3c0.1,0.5-0.1,0.8-0.5,1c-0.5,0.3-1.1,0.6-1.6,0.9c-0.5,0.2-0.9,0.1-1.1-0.3
		s-0.1-0.9,0.3-1.2c0.2-0.1,0.4-0.3,0.7-0.4c0.4-0.2,0.5-0.5,0.5-0.9c0-0.3-0.1-0.4-0.3-0.6c-0.3-0.1-0.5-0.3-0.8-0.5
		c-0.5-0.3-0.6-0.7-0.3-1.2c0.5-1,1.1-1.9,1.7-2.9c0.3-0.4,0.7-0.5,1.1-0.3c0.2,0.1,0.5,0.2,0.7,0.4c0.4,0.3,0.8,0.3,1.1,0
		c0.1-0.1,0.2-0.3,0.2-0.4c0-0.3,0-0.7,0-1c0-0.5,0.3-0.9,0.8-0.9c1.1,0,2.2,0,3.3,0c0.5,0,0.8,0.3,0.8,0.8c0,0.2,0,0.5,0,0.7
		c-0.1,0.5,0.1,0.8,0.6,1c0.2,0,0.4,0.1,0.5,0c0.3-0.1,0.6-0.3,0.9-0.5c0.5-0.3,0.9-0.2,1.2,0.3c0.6,1,1.1,1.9,1.7,2.9
		c0.2,0.4,0.1,0.9-0.3,1.1c-0.2,0.2-0.5,0.3-0.7,0.4c-0.4,0.2-0.5,0.4-0.5,0.8c0,0.3,0.1,0.5,0.4,0.6s0.5,0.3,0.8,0.4
		c0.5,0.3,0.6,0.7,0.3,1.2c-0.5,1-1.1,1.9-1.6,2.8c-0.3,0.5-0.7,0.6-1.2,0.3c-0.3-0.1-0.5-0.3-0.8-0.4c-0.3-0.2-0.5-0.2-0.8,0
		c-0.4,0.2-0.5,0.4-0.4,0.8c0,1.6-0.1,1.7-1.7,1.7c-0.8,0-1.5,0-2.3,0s-1-0.3-1.1-1c0-0.2,0-0.4,0-0.6c0-0.8-0.6-1.2-1.3-0.8
		c-0.3,0.2-0.5,0.3-0.8,0.5c-0.4,0.2-0.8,0.1-1-0.3s-0.2-0.8,0.2-1.1c0.6-0.4,1.2-0.8,1.9-1.1c0.2-0.1,0.6,0,0.9,0.1
		c0.4,0.2,0.7,0.5,1.1,0.6c0.5,0.2,0.8,0.6,0.7,1.1C-264.4-17.2-264.4-17-264.4-16.6z"/>
	<path class="st0" d="M-257.6-11.6c-1.6,0-3.3,0-4.9,0c-0.7,0-1.1-0.3-1.1-0.9c0-0.5,0.4-0.8,1.1-0.8c3.2,0,6.3,0,9.5,0
		c1.3,0,2-0.6,2-1.9c0-0.5,0-1,0-1.5s0.4-0.8,0.8-0.8c0.5,0,0.8,0.3,0.8,0.7c0,0.8,0.1,1.5,0,2.3c-0.2,1.7-1.6,2.8-3.3,2.8
		C-254.4-11.6-256-11.6-257.6-11.6z"/>
	<path class="st0" d="M-261.1-22.5c0,1.4-1.1,2.5-2.5,2.5s-2.5-1.1-2.5-2.5s1.1-2.5,2.5-2.5S-261.1-23.9-261.1-22.5z M-262.7-22.5
		c0-0.4-0.4-0.8-0.8-0.8s-0.8,0.4-0.8,0.8c0,0.5,0.4,0.9,0.8,0.9C-263.1-21.7-262.7-22-262.7-22.5z"/>
	<path class="st0" d="M-275.3-17.5c1.4,0,2.5,1.1,2.5,2.5s-1.1,2.5-2.5,2.5s-2.5-1.1-2.5-2.5C-277.8-16.3-276.7-17.5-275.3-17.5z
		 M-275.3-14.1c0.4,0,0.8-0.4,0.8-0.8c0-0.5-0.4-0.9-0.8-0.9s-0.8,0.4-0.8,0.8C-276.1-14.5-275.7-14.1-275.3-14.1z"/>
	<path class="st0" d="M-259-36.7c-0.6,0-1.3,0-1.9,0s-0.9-0.3-0.9-0.8s0.4-0.8,0.9-0.8c1.3,0,2.6,0,4,0c0.6,0,0.9,0.3,0.9,0.8
		s-0.4,0.8-0.9,0.8C-257.7-36.7-258.3-36.7-259-36.7z"/>
	<path class="st0" d="M-269.4-56.7c-0.5,0-0.8-0.4-0.8-0.9s0.4-0.8,0.9-0.8s0.8,0.4,0.8,0.9C-268.6-57.1-269-56.7-269.4-56.7z"/>
	<path class="st0" d="M-279.4-46.7c-0.5,0-0.8-0.4-0.8-0.8c0-0.5,0.4-0.8,0.8-0.8c0.5,0,0.8,0.4,0.8,0.8
		C-278.6-47.1-279-46.7-279.4-46.7z"/>
	<path class="st0" d="M-258.6-47.6c0,0.5-0.4,0.8-0.8,0.9c-0.5,0-0.8-0.4-0.9-0.8c0-0.5,0.4-0.8,0.8-0.9
		C-259-48.4-258.6-48-258.6-47.6z"/>
	<path class="st0" d="M-259.9-52.5c0,0.5-0.4,0.8-0.8,0.8s-0.8-0.4-0.8-0.8c0-0.5,0.4-0.9,0.9-0.8C-260.3-53.4-259.9-53-259.9-52.5z
		"/>
	<path class="st0" d="M-278.1-43.4c0.4,0,0.8,0.4,0.8,0.8c0,0.4-0.4,0.8-0.8,0.9c-0.5,0-0.9-0.4-0.9-0.8
		C-278.9-43-278.6-43.3-278.1-43.4z"/>
	<path class="st0" d="M-260.7-43.4c0.5,0,0.8,0.4,0.8,0.8c0,0.5-0.4,0.9-0.9,0.8c-0.4,0-0.8-0.4-0.8-0.9
		C-261.6-43-261.2-43.4-260.7-43.4z"/>
	<path class="st0" d="M-273.6-56.2c0,0.4-0.4,0.8-0.8,0.8s-0.8-0.4-0.9-0.8c0-0.5,0.4-0.9,0.8-0.9C-274-57-273.6-56.7-273.6-56.2z"
		/>
	<path class="st0" d="M-264.4-55.4c-0.4,0-0.8-0.4-0.9-0.8c0-0.5,0.3-0.8,0.8-0.8s0.8,0.3,0.9,0.8
		C-263.6-55.8-263.9-55.4-264.4-55.4z"/>
	<path class="st0" d="M-278.1-51.7c-0.4,0-0.8-0.4-0.8-0.8c0-0.5,0.4-0.8,0.8-0.8c0.5,0,0.9,0.4,0.8,0.9
		C-277.3-52.1-277.7-51.7-278.1-51.7z"/>
</g>
<g>
	<path class="st0" d="M-428.4,95.1c0-0.3,0-0.5,0-0.7c0-3,0-6.1,0-9.1c0-1.8,1.1-2.9,3-2.9c8.3,0,16.7,0,25,0c1.8,0,3,1.1,3,3
		c0,3,0,6,0,9c0,0.2,0,0.4,0,0.7c0.3,0,0.5,0,0.8,0c1.6,0,3.1-0.1,4.6,0.1c2.1,0.3,3.6,2.2,3.7,4.3c0,0.9,0,1.9,0,2.9
		c0.6,0,1.2,0,1.8,0c0.6,0,1.2,0,1.8,0c0,5.5,0,10.9,0,16.4c-1.2,0-2.3,0-3.6,0c0,0.2,0,0.4,0,0.6c0,1.9,0,3.7,0,5.6
		c0,2.8-2,4.7-4.7,4.7c-3.4,0-6.7,0-10.1,0c-0.2,0-0.4,0-0.6,0c0,1.2,0,2.4,0,3.6c1.9-0.1,3.5,0.4,4.7,2c0.6,1,0.9,2.1,0.7,3.4
		c-9.6,0-19.3,0-29,0c-0.2-1.6,0.2-2.9,1.3-4.1c1.1-1.1,2.5-1.4,4.1-1.3c0-1.2,0-2.4,0-3.6c-0.2,0-0.4,0-0.6,0c-3.3,0-6.7,0-10,0
		c-2.9,0-4.8-1.9-4.8-4.8c0-2.2,0-4.4,0-6.5c0-0.4-0.1-0.6-0.4-0.8c-4.3-2.9-4.3-9.1,0-12c0.3-0.2,0.4-0.4,0.4-0.8
		c0-1.6,0-3.3,0-4.9c0-2.7,2-4.7,4.7-4.7C-431.4,95.1-430,95.1-428.4,95.1z M-397.5,102.4c1.3,0,2.5,0,3.7,0s2.4,0,3.6,0
		c0-1,0-1.9,0-2.9c-0.1-1.4-1.2-2.5-2.6-2.6c-1.5,0-3,0-4.5,0c-0.1,0-0.4,0.1-0.4,0.2c-0.6,1.1-1.5,1.6-2.8,1.6c-2.6,0-5.2,0-7.8,0
		c-0.5,0-0.9,0.1-1.3,0.4c-1.4,1-2.8,1.9-4.3,2.8c-0.8,0.5-1.6,0.6-2.4,0.2c-0.8-0.5-1.2-1.2-1.2-2.1c0-0.4,0-0.8,0-1.2
		c-0.3,0-0.5,0-0.7,0c-2.5,0-4.9,0-7.4,0c-1.1,0-1.9-0.5-2.5-1.5c-0.1-0.2-0.4-0.3-0.5-0.3c-1.5,0-2.9,0-4.4,0c-1.4,0-2.6,1-2.6,2.4
		c-0.1,1.7,0,3.4,0,5.1c2.1-0.5,4.1-0.2,5.9,1s2.8,2.9,3.1,5.1c1.2,0,2.4,0,3.7,0c0-0.9,0-1.8,0-2.7c1.8,0,3.6,0,5.5,0c0,3,0,6,0,9
		c0.6,0,1.2,0,1.8,0c0-4.2,0-8.5,0-12.7c1.8,0,3.6,0,5.4,0c0,4.2,0,8.5,0,12.7c0.6,0,1.2,0,1.8,0c0-3.6,0-7.2,0-10.8
		c1.8,0,3.6,0,5.5,0c0,1.5,0,3,0,4.5c1.8,0,3.6,0,5.4,0C-397.5,107.8-397.5,105.1-397.5,102.4z M-390.3,122.4c-15.2,0-30.3,0-45.5,0
		c0,0.8,0,1.6,0,2.3c0,2,1.1,3.1,3.1,3.1c13.1,0,26.1,0,39.2,0c0.2,0,0.4,0,0.6,0c1.4-0.1,2.5-1.2,2.5-2.5
		C-390.2,124.3-390.3,123.4-390.3,122.4z M-415.7,96.9c0,1,0,1.9,0,2.8c0,0.2,0.1,0.6,0.3,0.7c0.1,0.1,0.5,0,0.7-0.2
		c1.6-1,3.1-2.1,4.7-3.1c0.3-0.2,0.6-0.3,0.9-0.3c2.8,0,5.7,0,8.5,0c1,0,1.2-0.3,1.3-1.2c0-3.4,0-6.8,0-10.2c0-1-0.3-1.3-1.3-1.3
		c-8.3,0-16.5,0-24.8,0c-1,0-1.2,0.3-1.2,1.3c0,3.4,0,6.8,0,10.2c0,1,0.3,1.2,1.3,1.2c3,0,6,0,9,0C-416.2,96.9-416,96.9-415.7,96.9z
		 M-435.7,120.5c15.2,0,30.3,0,45.4,0c0-0.6,0-1.2,0-1.8c-2.4,0-4.8,0-7.2,0c0-2.1,0-4.2,0-6.3c-1.8,0-3.6,0-5.4,0c0,1.5,0,3,0,4.5
		c0.6,0,1.2,0,1.7,0c0,0.6,0,1.2,0,1.8c-7.9,0-15.7,0-23.6,0c0-0.6,0-1.2,0-1.8c0.6,0,1.2,0,1.8,0c0-1.5,0-3,0-4.5
		c-1.2,0-2.4,0-3.6,0c-0.7,4.3-4.7,7.1-9,6.1C-435.7,119.2-435.7,119.8-435.7,120.5z M-386.6,104.2c-3,0-6,0-9,0c0,4.3,0,8.5,0,12.7
		c3,0,6,0,9,0C-386.6,112.7-386.6,108.5-386.6,104.2z M-405.7,129.7c-4.9,0-9.7,0-14.5,0c0,1.2,0,2.4,0,3.6c4.8,0,9.6,0,14.5,0
		C-405.7,132.1-405.7,130.9-405.7,129.7z M-439.4,111.5c0,3,2.5,5.4,5.5,5.4s5.4-2.5,5.4-5.5s-2.5-5.4-5.5-5.4
		C-436.9,106-439.4,108.5-439.4,111.5z M-400.5,136.9c-0.1-0.1-0.1-0.3-0.1-0.3c-0.6-1-1.4-1.4-2.6-1.4c-6.2,0-12.3,0-18.5,0
		c-0.5,0-0.9,0-1.4,0c-1.1,0-2.1,0.8-2.4,1.8C-417.1,136.9-408.8,136.9-400.5,136.9z M-412.1,116.9c0-3.6,0-7.2,0-10.9
		c-0.6,0-1.2,0-1.7,0c0,3.6,0,7.2,0,10.9C-413.3,116.9-412.7,116.9-412.1,116.9z M-406.6,116.9c0.6,0,1.2,0,1.7,0c0-3,0-6,0-9
		c-0.6,0-1.2,0-1.7,0C-406.6,110.9-406.6,113.9-406.6,116.9z M-421.1,109.7c0,2.4,0,4.8,0,7.2c0.6,0,1.2,0,1.8,0c0-1.2,0-2.4,0-3.6
		s0-2.4,0-3.6C-420,109.7-420.5,109.7-421.1,109.7z"/>
	<path class="st0" d="M-415.7,125.1c0,0.5-0.4,0.9-0.9,0.9s-0.9-0.4-0.9-0.9s0.4-0.9,0.9-0.9C-416.2,124.2-415.7,124.6-415.7,125.1z
		"/>
	<path class="st0" d="M-412.1,125.1c0,0.5-0.4,0.9-0.9,0.9s-0.9-0.4-0.9-0.9s0.4-0.9,0.9-0.9S-412.1,124.6-412.1,125.1z"/>
	<path class="st0" d="M-409.4,124.2c0.5,0,0.9,0.4,0.9,0.9s-0.4,0.9-0.9,0.9s-0.9-0.4-0.9-0.9S-409.8,124.2-409.4,124.2z"/>
	<path class="st0" d="M-423,92.4c0.3,0.8,0.5,0.9,1.3,0.9c0.5,0,1,0,1.5,0c0.6,0,0.9-0.4,0.9-0.9s-0.4-0.9-0.9-0.9
		c-0.6,0-1.2,0-1.8,0c-1.5,0-2.7-1.2-2.7-2.7s1.1-2.7,2.6-2.8c0.7,0,1.4,0,2.1,0c1.5,0.1,2.6,1.3,2.6,2.7c-0.6,0-1.1,0-1.7,0
		c-0.2-0.8-0.7-0.9-1.4-0.9c-0.4,0-0.9,0-1.3,0c-0.6,0-0.9,0.4-0.9,0.9s0.4,0.8,0.9,0.9c0.6,0,1.2,0,1.8,0c1.6,0,2.8,1.2,2.8,2.7
		s-1.2,2.7-2.8,2.7c-0.7,0-1.3,0-2,0c-1.4-0.1-2.5-1.3-2.5-2.7C-424.2,92.4-423.6,92.4-423,92.4z"/>
	<path class="st0" d="M-401.2,90.6c0,0.6,0,1.2,0,1.8c0,1.5-1.2,2.7-2.7,2.7c-0.7,0-1.3,0-2,0c-1.4,0-2.6-1.2-2.6-2.6
		c0-1.3,0-2.6,0-3.9c0-1.4,1.2-2.6,2.6-2.6c0.7,0,1.3,0,2,0c1.5,0.1,2.6,1.2,2.7,2.7C-401.2,89.4-401.2,90-401.2,90.6z M-406.6,90.5
		c0,0.6,0,1.2,0,1.8c0,0.7,0.3,1,1,1c0.5,0,1.1,0,1.6,0c0.7,0,1-0.3,1-1c0-1.1,0-2.3,0-3.4c0-0.6-0.3-1-1-1c-0.6,0-1.1,0-1.7,0
		s-0.9,0.4-1,1C-406.6,89.4-406.6,89.9-406.6,90.5z"/>
	<path class="st0" d="M-413.8,89.7c1.2,0,2.4,0,3.6,0c0,0.6,0,1.2,0,1.8c-1.2,0-2.4,0-3.6,0c0,0.3,0,0.6,0,0.8c0,0.6,0.3,1,1,1
		c0.9,0,1.7,0,2.6,0c0,0.6,0,1.2,0,1.8c-1.1,0-2.1,0.1-3.2,0c-1.3-0.1-2.2-1.3-2.2-2.6c0-1.3,0-2.6,0-3.9c0-1.4,1.1-2.4,2.5-2.6
		c0.2,0,0.3,0,0.5,0c0.8,0,1.6,0,2.5,0c0,0.6,0,1.2,0,1.8c-0.7,0-1.3,0-2,0C-413.8,87.8-414,88.1-413.8,89.7z"/>
	<path class="st0" d="M-393.9,107.8c0-0.6,0-1.2,0-1.7c1.8,0,3.6,0,5.4,0c0,0.6,0,1.1,0,1.7C-390.2,107.8-392,107.8-393.9,107.8z"/>
	<path class="st0" d="M-393.9,111.4c0-0.6,0-1.2,0-1.8c1.8,0,3.6,0,5.4,0c0,0.6,0,1.1,0,1.8C-390.2,111.4-392,111.4-393.9,111.4z"/>
	<path class="st0" d="M-393.9,115.1c0-0.6,0-1.2,0-1.8c0.9,0,1.8,0,2.7,0c0.9,0,1.8,0,2.7,0c0,0.6,0,1.2,0,1.8
		C-390.2,115.1-392,115.1-393.9,115.1z"/>
	<path class="st0" d="M-430.3,111.5c0,2-1.7,3.6-3.7,3.6s-3.6-1.7-3.6-3.7s1.7-3.6,3.6-3.6C-431.9,107.8-430.3,109.5-430.3,111.5z
		 M-432.1,111.4c0-1-0.8-1.8-1.8-1.8s-1.8,0.8-1.8,1.8s0.8,1.8,1.8,1.8C-432.9,113.3-432.1,112.4-432.1,111.4z"/>
</g>
<g>
	<path class="st0" d="M27.2,249c0,1.9,0,3.7,0,5.5c0.2,0,0.4,0,0.6,0c2.7,0,5.5,0,8.2,0c0.9,0,1.2,0.3,1.2,1.2c0,1.1,0,2.1,0,3.2
		c0,0.8-0.3,1.1-1.1,1.1c-10.3,0-20.6,0-30.9,0c-0.8,0-1.1-0.3-1.1-1.1c0-1.1,0-2.2,0-3.3c0-0.8,0.3-1.1,1.1-1.1c3,0,6,0,9,0
		c0-1.8,0-3.6,0-5.5c-0.2,0-0.4,0-0.7,0c-6.4,0-12.8,0-19.1,0c-1.1,0-1.4-0.2-1.4-1.4c0-11.4,0-22.7,0-34.1c0-1.1,0.2-1.4,1.4-1.4
		c6.7,0,13.3,0,20,0c0.2,0,0.5,0,0.7,0c0-1.2,0-2.4,0-3.6c-0.1,0-0.3,0-0.4,0c-2.5,0-5,0-7.5,0c-0.3,0-0.5,0.1-0.7,0.4
		c-0.6,1.2-1.9,1.7-3.1,1.4s-2.1-1.4-2.1-2.7s0.8-2.3,2.1-2.7c1.2-0.3,2.5,0.2,3.1,1.4c0.2,0.3,0.4,0.4,0.7,0.4c2.8,0,5.6,0,8.5,0
		c1,0,1.3,0.3,1.3,1.3c0,1.4,0,2.8,0,4.2c2.5,0,4.9,0,7.3,0c0-0.2,0-0.3,0-0.5c0-1.3,0-2.5,0-3.8c0-0.9,0.3-1.2,1.2-1.2
		c2.8,0,5.7,0,8.5,0c0.4,0,0.6-0.1,0.8-0.4c0.6-1.1,1.9-1.6,3.1-1.3c1.2,0.3,2.1,1.4,2.1,2.7s-0.8,2.3-2.1,2.7
		c-1.2,0.3-2.5-0.2-3.1-1.3c-0.2-0.3-0.4-0.4-0.7-0.4c-2.5,0-4.9,0-7.4,0c-0.2,0-0.3,0-0.5,0c0,1.2,0,2.4,0,3.7c0.2,0,0.4,0,0.7,0
		c6.7,0,13.4,0,20.1,0c1.1,0,1.3,0.3,1.3,1.3c0,11.4,0,22.8,0,34.2c0,1.1-0.3,1.3-1.3,1.3c-6.4,0-12.8,0-19.1,0
		C27.7,249,27.4,249,27.2,249z M-5.1,243.5c17.2,0,34.4,0,51.6,0c0-9.8,0-19.6,0-29.4c-6.8,0-13.5,0-20.3,0c0,2.1,0,4.1,0,6.2
		c0,0.9-0.3,2,0.1,2.8c0.3,0.8,1.3,1.4,1.9,2.1l0.1,0.1c0.6,0.6,0.6,1.1,0,1.7c-0.3,0.3-0.6,0.6-0.9,0.9c2.3,0.2,2.3,0.2,2.5,1.8
		c0,0,0.1,0,0.2,0c2.9,0,5.9,0,8.8,0c0.2,0,0.4-0.2,0.5-0.4c0.7-1.1,1.9-1.7,3.1-1.3c1.2,0.3,2.1,1.4,2.1,2.7s-0.8,2.3-2.1,2.7
		c-1.2,0.3-2.5-0.2-3.1-1.4c-0.2-0.3-0.3-0.4-0.7-0.4c-2.7,0-5.5,0-8.2,0c-0.2,0-0.4,0-0.7,0c0,0.2,0,0.4,0,0.6
		c0,0.9-0.3,1.2-1.3,1.2c-0.4,0-0.7,0-1.1,0c0,0.1,0.1,0.2,0.1,0.2c0.3,0.3,0.5,0.5,0.8,0.8c0.5,0.5,0.5,1,0,1.6
		c-0.8,0.8-1.6,1.6-2.4,2.4c-0.6,0.6-1,0.5-1.6,0c-0.3-0.3-0.6-0.6-1-1c0,0.6,0,1,0,1.4c0,0.8-0.3,1.1-1.1,1.1c-1.1,0-2.2,0-3.3,0
		c-0.8,0-1.1-0.3-1.1-1.1c0-0.4,0-0.8,0-1.3c-0.1,0-0.1-0.1-0.2-0.1c-0.3,0.3-0.6,0.7-0.9,1c-0.5,0.5-1,0.5-1.5,0
		c-0.8-0.8-1.6-1.6-2.4-2.4c-0.5-0.5-0.5-1,0-1.6c0.3-0.3,0.6-0.6,0.9-1c-0.7-0.1-1.4,0-1.9-0.2c-0.8-0.3-0.4-1.1-0.6-1.7
		c-0.2,0-0.3,0-0.5,0c-2.8,0-5.5,0-8.3,0c-0.4,0-0.6,0.1-0.7,0.4c-0.6,1.1-1.9,1.6-3.1,1.3s-2.1-1.4-2.1-2.7s0.8-2.3,2.1-2.7
		c1.2-0.3,2.5,0.2,3.1,1.3c0.2,0.3,0.4,0.5,0.7,0.4c2.8,0,5.5,0,8.3,0c0.2,0,0.4,0,0.6,0c0-0.3,0-0.5,0-0.7c0-0.9,0.3-1.2,1.2-1.2
		c0.4,0,0.8,0,1.2,0c0-0.1,0.1-0.1,0.1-0.2c-0.3-0.3-0.7-0.6-1-0.9c-0.5-0.5-0.5-1,0-1.5c0.6-0.6,1.2-1.2,1.8-1.8
		c0.2-0.2,0.3-0.6,0.3-0.8c0-2.7,0-5.3,0-8c0-0.2,0-0.4,0-0.5c-6.8,0-13.5,0-20.2,0C-5.1,223.9-5.1,233.6-5.1,243.5z M46.5,245.4
		c-17.2,0-34.4,0-51.6,0c0,0.6,0,1.2,0,1.8c17.2,0,34.4,0,51.6,0C46.5,246.6,46.5,246,46.5,245.4z M13.3,231.6
		c1.1-0.1,1.8,0,2.3,1.2s-0.1,1.8-0.8,2.4c0.5,0.4,0.9,0.8,1.3,1.2c0.7-0.8,1.3-1.3,2.5-0.8c1.3,0.5,1.2,1.4,1.1,2.3
		c0.6,0,1.2,0,1.9,0c-0.1-1-0.1-1.8,1.1-2.3s1.8,0.1,2.5,0.8c0.4-0.5,0.8-0.9,1.3-1.3c-0.8-0.7-1.3-1.2-0.9-2.5
		c0.5-1.3,1.4-1.1,2.3-1.1c0-0.6,0-1.2,0-1.9c-1,0.1-1.8,0.1-2.3-1.1c-0.5-1.2,0-1.8,0.8-2.5c-0.5-0.5-0.9-0.9-1.3-1.3
		c-0.7,0.7-1.2,1.4-2.4,0.8c-1.2-0.5-1.2-1.3-1.2-2.3c-0.6,0-1.2,0-1.9,0c0.4,1.5-0.3,2.1-1.6,2.5c-1.1,0.4-1.4-0.6-1.9-0.9
		c-0.4,0.4-0.9,0.8-1.3,1.3c0.7,0.6,1.3,1.2,0.8,2.4c-0.5,1.3-1.4,1.1-2.3,1.1C13.3,230.3,13.3,230.9,13.3,231.6z M17,214
		c0,0.2,0,0.5,0,0.7c0,2.5,0,5.1,0,7.6c0,0.7,0.4,1.1,0.8,1.5c0.1,0,0.1,0,0.1-0.1c0-0.4,0-0.8,0-1.3c0-0.7,0.3-1,1-1.1
		c1.2,0,2.3,0,3.5,0c0.6,0,1,0.4,1,1c0,0.4,0,0.9,0,1.4c0.6-0.4,1-0.9,0.9-1.6c-0.1-2.3,0-4.6,0-7c0-0.4,0-0.8,0-1.2
		C21.9,214,19.5,214,17,214z M6,258.2c9.9,0,19.7,0,29.5,0c0-0.6,0-1.2,0-1.8c-9.8,0-19.6,0-29.5,0C6,257,6,257.6,6,258.2z
		 M25.3,249.1c-3.1,0-6.1,0-9.2,0c0,0.9,0,1.8,0,2.7s0,1.8,0,2.7c3.1,0,6.2,0,9.2,0C25.3,252.7,25.3,250.9,25.3,249.1z M5,207.6
		c0-0.5-0.4-0.9-0.9-0.9s-0.9,0.4-1,0.9c0,0.5,0.4,1,0.9,1C4.6,208.5,5,208.1,5,207.6z M38.2,207.5c0-0.5-0.4-0.9-0.9-0.9
		s-0.9,0.4-0.9,1c0,0.5,0.5,0.9,0.9,0.9C37.8,208.4,38.2,208,38.2,207.5z M-0.5,231.5c0.5,0,0.9-0.4,0.9-0.9s-0.4-0.9-1-0.9
		c-0.5,0-0.9,0.5-0.9,0.9C-1.4,231.1-1,231.5-0.5,231.5z M41.9,229.7c-0.5,0-0.9,0.4-0.9,0.9s0.4,1,0.9,0.9c0.5,0,0.9-0.4,0.9-0.9
		C42.8,230.1,42.4,229.7,41.9,229.7z"/>
	<path class="st0" d="M4.1,224.1c1.6,0,3,0,4.5,0c0.6,0,1,0.4,1,0.9s-0.4,0.9-0.9,0.9c-1.8,0-3.7,0-5.5,0c-0.6,0-0.9-0.4-0.9-1.1
		c0-2.2,0-4.3,0-6.5c0-0.2,0-0.4,0-0.7c-0.3,0-0.6,0-0.8,0c-1.2,0-2.5,0-3.7,0c-0.6,0-1-0.4-1-0.9s0.4-0.9,1-0.9c1.8,0,3.6,0,5.4,0
		c0.7,0,1,0.4,1,1.1c0,2.2,0,4.3,0,6.5C4.1,223.6,4.1,223.9,4.1,224.1z"/>
	<path class="st0" d="M39.1,217.7c0,1.5,0,3,0,4.4c0,0.9,0,1.9,0,2.8c0,0.7-0.4,1-1,1c-1.8,0-3.5,0-5.3,0c-0.6,0-1-0.4-1-0.9
		c0-0.6,0.4-0.9,1.1-0.9c1.5,0,2.9,0,4.5,0c0-0.2,0-0.4,0-0.6c0-2.1,0-4.3,0-6.4c0-0.9,0.3-1.2,1.2-1.2c1.7,0,3.3,0,5,0
		c0.8,0,1.2,0.3,1.2,0.9c0,0.6-0.4,0.9-1.2,0.9C42,217.7,40.6,217.7,39.1,217.7z"/>
	<path class="st0" d="M20.7,234.3c-2,0-3.7-1.7-3.7-3.7s1.7-3.7,3.7-3.7s3.7,1.7,3.6,3.7C24.4,232.6,22.7,234.3,20.7,234.3z
		 M22.5,230.6c0-1-0.8-1.8-1.8-1.8s-1.9,0.9-1.8,1.9c0,1,0.9,1.8,1.9,1.8C21.7,232.4,22.5,231.6,22.5,230.6z"/>
</g>
<g>
	<path class="st0" d="M-736.9,310.8c0-6.2,0-12.3,0-18.4c-0.3,0-0.7,0-1,0c-1.5,0-3,0-4.5,0c-1.8,0-3.1-1.2-3.1-3.1
		c0-3.9,0-7.8,0-11.6c0-1.1,0.5-2,1.5-2.5c0.1,0,0.2-0.1,0.2-0.1c0.5-0.3,1.3-0.5,1.6-1s0.1-1.3,0.1-1.9c0-0.4,0-0.8,0-1.2
		c0-1.1,0.8-1.8,1.9-1.8c1.2,0,2.5,0,3.8,0c0-0.3,0-0.4,0-0.6c0-1.6,0-3.2,0-4.8c0-1.1,0.5-1.5,1.5-1.5c8.6,0,17.1,0,25.7,0
		c1.1,0,1.5,0.5,1.5,1.5c0,1.6,0,3.3,0,4.9c0,0.2,0,0.4,0,0.6c1.2,0,2.4,0,3.5,0c1.5,0,2.1,0.7,2.1,2.1c0,0.8,0,1.6,0,2.4
		c0,0.3,0.1,0.5,0.4,0.7c0.5,0.3,1,0.6,1.5,0.9c1,0.6,1.5,1.4,1.5,2.5c0,3.9,0,7.8,0,11.8c0,1.8-1.3,3-3.1,3c-3.8,0-7.5,0-11.3,0
		c-0.2,0-0.4,0-0.7,0c0,0.2,0,0.5,0,0.7c0,6.1,0,12.1,0,18.2c0,4-2.7,6.7-6.6,6.7c-6.3,0-12.5,0-18.8,0c-3.5,0-6.2-2.5-6.5-5.9
		c-0.1-0.9,0.2-1.2,1.1-1.2c2.3,0,4.7,0,7,0C-737.3,310.8-737.1,310.8-736.9,310.8z M-735.3,310.8c0.3,0,0.5,0,0.7,0
		c2.9,0,5.8,0,8.7,0c0.9,0,1.1,0.2,1.2,1.1c0.2,2.5,2.1,4.4,4.6,4.5c2.7,0.1,4.9-2,4.9-4.9c0-8,0-16,0-24c0-1.7,0.6-3.2,1.8-4.5
		c0.1-0.1,0.2-0.2,0.3-0.3c-0.1,0-0.2,0-0.3,0c-5.7,0-11.4,0-17.1,0c-0.4,0-0.8,0.1-1.2,0.2c-2.1,0.6-3.5,2.4-3.5,4.8
		c0,7.6,0,15.1,0,22.7C-735.3,310.4-735.3,310.6-735.3,310.8z M-713.7,287.4c0.1,0,0.2,0,0.3,0c3,0,6.1,0,9.1,0
		c0.5,0,0.7-0.2,0.7-0.7c0-5,0-10,0-15c0-1.2,0.2-1.1-1.1-1.1c-11.6,0-23.3,0-34.9,0c-0.8,0-0.8,0-0.8,0.8c0,5.1,0,10.2,0,15.4
		c0,0.1,0,0.3,0,0.4c0.1,0.1,0.2,0.3,0.3,0.3c1.1,0,2.2,0,3.2,0c0.2-0.9,0.4-1.8,0.6-2.7c-0.3,0-0.6,0-0.9,0c-0.9,0-1.4-0.5-1.4-1.4
		c0-1.1,0-2.1,0-3.2c0-0.8,0.5-1.3,1.3-1.3c0.1,0,0.3,0,0.4,0c10,0,20,0,30,0c0.1,0,0.3,0,0.4,0c0.9,0,1.3,0.5,1.3,1.4c0,1,0,2,0,3
		c0,1.1-0.4,1.5-1.5,1.5c-1.8,0-3.7,0-5.5,0c-0.2,0-0.5,0.1-0.6,0.2C-713.4,285.7-713.7,286.5-713.7,287.4z M-734.8,263.6
		c0,1.8,0,3.6,0,5.4c8.5,0,17,0,25.5,0c0-1.8,0-3.6,0-5.4C-717.8,263.6-726.3,263.6-734.8,263.6z M-743.9,312.4
		c0.1,0.3,0.1,0.4,0.2,0.6c0.6,2,2.4,3.3,4.6,3.3c4.8,0,9.7,0,14.5,0c0.1,0,0.2,0,0.3,0c-0.9-0.9-1.5-1.8-1.9-3
		c-0.3-0.9-0.3-0.9-1.2-0.9c-5.3,0-10.6,0-15.9,0C-743.5,312.4-743.7,312.4-743.9,312.4z M-701.3,276.4c0,0.2,0,0.5,0,0.7
		c0,3.3,0,6.6,0,9.9c0,1.7-1.1,2.7-2.7,2.7c-0.7,0-1.5,0-2.2,0c-2.3,0-4.6,0-6.9,0c-0.5,0-0.7,0.1-0.6,0.6c0,0.1,0,0.3,0,0.5
		c0.2,0,0.4,0,0.6,0c2.8,0,5.6,0,8.4,0c0.9,0,1.9,0,2.8,0c0.9,0,1.5-0.5,1.5-1.4c0-3.9,0-7.8,0-11.8
		C-700.3,277-700.5,276.7-701.3,276.4z M-736.9,290.8c0.1-1.1,0.1-1.1-0.9-1.1c-0.7,0-1.5,0-2.2,0c-1.8,0-2.7-1-2.7-2.7
		c0-3.3,0-6.6,0-9.9c0-0.2,0-0.4,0-0.7c-0.7,0.2-1,0.6-1,1.2c0,4,0,7.9,0,11.9c0,0.7,0.4,1.1,1,1.3c0.1,0,0.2,0.1,0.3,0.1
		C-740.7,290.8-738.8,290.8-736.9,290.8z"/>
	<path class="st0" d="M-725.3,307.7c-2.2,0-4.4,0-6.5,0c-0.2,0-0.4,0-0.6,0c-0.4-0.1-0.6-0.4-0.6-0.8s0.2-0.7,0.6-0.7
		c0.2,0,0.4,0,0.6,0c4.4,0,8.7,0,13.1,0c0.8,0,1.2,0.2,1.2,0.8c0,0.5-0.4,0.8-1.3,0.8C-720.9,307.7-723.1,307.7-725.3,307.7z"/>
	<path class="st0" d="M-725.3,291.7c2.2,0,4.5,0,6.7,0c0.3,0,0.7,0.1,0.9,0.3c0.4,0.4,0.2,1-0.3,1.2c-0.2,0.1-0.5,0.1-0.7,0.1
		c-4.4,0-8.7,0-13.1,0c-0.1,0-0.2,0-0.3,0c-0.6,0-0.9-0.3-0.9-0.8s0.3-0.8,0.9-0.8C-729.8,291.7-727.6,291.7-725.3,291.7z"/>
	<path class="st0" d="M-725.3,302.8c-2.3,0-4.5,0-6.8,0c-0.5,0-0.8-0.2-0.9-0.7c-0.1-0.4,0.2-0.8,0.7-0.9c0.2,0,0.4,0,0.6,0
		c4.4,0,8.7,0,13.1,0c0.1,0,0.3,0,0.4,0c0.5,0,0.9,0.4,0.9,0.8s-0.4,0.7-0.9,0.7C-720.7,302.8-723,302.8-725.3,302.8z"/>
	<path class="st0" d="M-725.3,288.4c-2.3,0-4.5,0-6.8,0c-0.5,0-0.8-0.1-0.9-0.6c-0.1-0.5,0.2-0.8,0.6-0.9c0.2,0,0.3,0,0.5,0
		c4.4,0,8.8,0,13.2,0c0.1,0,0.2,0,0.3,0c0.6,0,0.9,0.4,0.9,0.8s-0.4,0.7-0.9,0.7c-2.2,0-4.4,0-6.5,0
		C-725.1,288.4-725.2,288.4-725.3,288.4z"/>
	<path class="st0" d="M-725.3,296.5c2.3,0,4.5,0,6.8,0c0.3,0,0.6,0.1,0.8,0.2c0.5,0.4,0.3,1.1-0.3,1.3c-0.2,0-0.4,0-0.5,0
		c-4.4,0-8.8,0-13.2,0c-0.1,0-0.2,0-0.3,0c-0.6,0-0.9-0.3-0.9-0.8s0.3-0.8,0.9-0.8c1.5,0,3,0,4.5,0
		C-726.9,296.5-726.1,296.5-725.3,296.5z"/>
	<g>
		<path class="st0" d="M-735.9,272.2c-1.2,0-2.1,0.9-2.1,2.1s1,2.2,2.1,2.2c1.2,0,2.1-1,2.1-2.1
			C-733.8,273.1-734.7,272.2-735.9,272.2z M-735.6,274.6c-0.1,0.1-0.2,0.1-0.3,0.1s-0.2-0.1-0.3-0.1c-0.1-0.1-0.1-0.2-0.1-0.3
			c0-0.2,0.2-0.4,0.4-0.4c0.1,0,0.2,0.1,0.3,0.1c0.1,0.1,0.1,0.2,0.1,0.3S-735.5,274.6-735.6,274.6z"/>
	</g>
	<g>
		<path class="st0" d="M-728.4,272.2c-1.2,0-2.1,0.9-2.1,2.1s1,2.2,2.1,2.2c1.2,0,2.1-1,2.1-2.1
			C-726.3,273.1-727.2,272.2-728.4,272.2z M-728.1,274.6c-0.1,0.1-0.2,0.1-0.3,0.1s-0.2-0.1-0.3-0.1c-0.1-0.1-0.1-0.2-0.1-0.3
			c0-0.2,0.2-0.4,0.4-0.4c0.1,0,0.2,0.1,0.3,0.1c0.1,0.1,0.1,0.2,0.1,0.3S-728,274.6-728.1,274.6z"/>
	</g>
</g>
<g>
	<path class="st0" d="M110.4,202.7c0-0.6,0-1.1,0-1.6c0-4.5,0.1-9.1,0.1-13.6c0-1.7,1.2-2.8,2.7-2.5c1,0.2,1.7,1.1,1.7,2.2
		c0,1.6,0,3.2,0,4.7c0,0.3,0,0.6,0,1c2.1-1.2,3.4-0.3,4,1.3c1-0.8,2.1-0.9,3.1-0.1c1.1,0.8,0.9,2,0.9,3.1c0.4-0.1,0.7-0.3,1-0.4
		c1.3-0.3,2.5,0.6,2.5,1.9c0,2.7,0.1,5.4-0.2,8.1c-0.6,5-6.4,8.6-11,7c-1.1-0.4-2-1.1-2.8-1.9c-2.8-2.8-5.6-5.6-8.3-8.5
		c-0.8-0.9-0.9-2.2-0.1-3.1c0.8-0.9,2.1-1.1,3.1-0.4c1,0.7,1.9,1.5,2.8,2.3C110,202.4,110.2,202.5,110.4,202.7z"/>
	<path class="st0" d="M140.8,162.8c-0.1,0.9-0.3,1.6-0.4,2.3c0,0.2,0.1,0.5,0.2,0.7c0.4,0.5,0.8,1,1.3,1.5c0.3,0.3,0.3,0.6,0,1
		s-0.6,0.8-1,1.2c-0.5,0.5-0.6,1-0.4,1.6c0.1,0.5,0.2,1,0.3,1.5c0.1,0.4-0.1,0.6-0.4,0.8c-0.6,0.2-1.3,0.4-1.9,0.7
		c-0.2,0.1-0.5,0.3-0.6,0.6c-0.3,0.6-0.5,1.2-0.7,1.9c-0.1,0.4-0.4,0.5-0.8,0.5c-0.5-0.1-1-0.1-1.4-0.2c-0.7-0.2-1.2,0-1.6,0.4
		c-0.3,0.3-0.8,0.6-1.1,0.9c-0.3,0.3-0.6,0.3-1,0c-0.5-0.4-0.9-0.8-1.4-1.2c-0.3-0.3-0.6-0.4-1-0.3c-0.6,0.1-1.1,0.2-1.7,0.3
		c-0.5,0.1-0.8,0-1-0.5c-0.2-0.7-0.4-1.6-0.9-2.1s-1.4-0.6-2.1-0.9c-0.5-0.2-0.7-0.5-0.6-1c0.1-0.3,0-0.6,0.1-0.9
		c0.4-1,0-1.7-0.7-2.5c-1.2-1.3-1.2-1.1,0-2.4c0.7-0.8,0.9-1.5,0.7-2.5c-0.4-1.8-0.6-1.5,1.3-2.2c1-0.3,1.4-0.8,1.7-1.8
		c0.6-1.8,0.4-1.6,2.1-1.3c1,0.2,1.7,0,2.5-0.7c1.4-1.2,1.1-1.3,2.5,0c0.8,0.7,1.5,0.9,2.5,0.7c1.8-0.4,1.6-0.5,2.1,1.2
		c0.3,1,0.8,1.7,1.9,1.8c0.4,0.1,0.7,0.2,1,0.4C140.6,162.5,140.7,162.7,140.8,162.8z M131.7,173.9c3.3,0,6-2.7,6-6s-2.7-6-6-6
		s-6,2.7-6,6S128.4,173.9,131.7,173.9z"/>
	<path class="st0" d="M116.3,190c0-0.7,0-1.3,0-1.9c0.1-1.8-0.4-3.3-2.1-4.2c0.9-0.7,1.7-1.4,2.5-2.1c0.5-0.4,1.1-0.9,1.6-1.3
		c0.7-0.6,0.8-1.5,0.2-2.1c-0.5-0.6-1.3-0.7-2-0.1c-1.7,1.4-3.4,2.8-5.2,4.2c-0.1,0.1-0.2,0.2-0.4,0.3c-0.6-0.7-1.2-1.4-1.7-2
		c-0.6-0.7-1.5-0.8-2.1-0.3s-0.7,1.4-0.1,2.1c0.8,0.9,1.5,1.8,2.3,2.7c0.2,0.2,0.3,0.5,0.2,0.8c-0.1,0.5-0.2,1-0.2,1.5
		c0,0.8,0,1.6,0,2.5c-2.2-0.5-5.3-3.6-5.4-7.5c-0.1-4.8,3.1-8.5,7.9-9c4.2-0.4,8.2,2.3,9.3,6.8C122,184.9,119.3,188.8,116.3,190z"/>
	<path class="st0" d="M94,192.6c5.1,0,10.2,0,15.2,0c0,2.5,0,4.9,0,7.4c-1.1-0.6-2-1.2-1.4-2.7c-5.1,0-10,0-15.1,0
		c0-10,0-19.9,0-29.8c9.1,0,18.1,0,27.2,0c0.1,0.4,0.1,0.9,0.2,1.4c-8.7,0-17.4,0-26.1,0C94,176.7,94,184.6,94,192.6z"/>
	<path class="st0" d="M132.3,197.2c-1.6,0-3.2,0-4.8,0c-0.1,0-0.2-0.1-0.3-0.2c-0.6-0.9-1.5-1.4-2.6-1.4c-0.1,0-0.4-0.1-0.4-0.2
		c-0.2-1.2-1-2-2-2.7c2.9,0,5.8,0,8.8,0c0-4.4,0-8.7,0-13c0.4,0,0.8,0,1.2,0C132.3,185.4,132.3,191.3,132.3,197.2z"/>
	<path class="st0" d="M121.6,170.7c-0.1,0.5-0.2,1-0.3,1.5c-7.8,0-15.5,0-23.3,0c0-0.5,0-1,0-1.5
		C105.9,170.7,113.7,170.7,121.6,170.7z"/>
	<path class="st0" d="M127.4,166.9c0.7,0,1.4,0,2.2,0c1.1,0,1.1,0,1.4-1c0.2-0.7,0.4-1.3,0.6-2c0,0,0.1,0,0.1-0.1
		c0.3,0.9,0.6,1.8,0.9,2.7c0.1,0.4,0.3,0.5,0.7,0.5c0.9,0,1.8,0,2.7,0.1c-0.7,0.5-1.4,1-2.1,1.5c-0.4,0.3-0.5,0.6-0.3,1
		c0.3,0.8,0.5,1.6,0.9,2.6c-1-0.7-1.9-1.4-2.8-2c-0.9,0.6-1.8,1.3-2.6,1.9c0,0-0.1,0-0.1-0.1c0.3-0.8,0.5-1.7,0.8-2.5
		c0.2-0.5,0.1-0.7-0.3-1C128.8,168,128.1,167.5,127.4,166.9C127.3,167,127.4,166.9,127.4,166.9z"/>
</g>
<g>
	<path class="st0" d="M328.5,215.2c0.3-0.6,0.6-1.3,1-1.9c0.5-0.6,1.2-1,2-1c1.8-0.1,3.6,0,5.4,0c0,0.5,0,1,0,1.6
		c-0.2,0-0.4,0-0.6,0c-1.4,0-2.8,0-4.2,0c-1.2,0-2,0.8-2,2c0,9.4,0,18.7,0,28.1c0,0.1,0,0.1,0,0.3c1.4,0,2.7,0,4.1,0
		c0-0.2,0-0.4,0-0.6c0-4.3,0-8.7,0-13c0-0.2,0.1-0.4,0.2-0.6c0.1,0,0.1,0,0.2,0c-0.4-1.1-0.8-2.1-1.2-3.2c-0.1-0.2-0.1-0.5,0-0.6
		c1.3-1.8,2.6-3.5,3.9-5.3l0.1-0.1c1.4,1.8,2.7,3.7,4.1,5.5c0.1,0.1,0.1,0.4,0,0.5c-0.4,1.1-0.8,2.2-1.2,3.3c0.2,0,0.4,0,0.6,0.1
		c0,4.7,0,9.4,0,14.2c1.4,0,2.8,0,4.2,0c0.1-1.3,0.2-2.5,0.3-3.8c0.2-3.2,0.5-6.3,0.7-9.5c0-0.2-0.1-0.5-0.3-0.7
		c-1-1-1.5-2.1-1.5-3.5c0-1.7,0.3-3.3,1-4.7c0.9-1.8,2.4-2.9,4.4-3.3c0.1,0.3,0.2,0.5,0.3,0.8c0.5,1.3,1.2,2.5,2.2,3.5
		c2,2,2.2,5.4,0,7.4c-0.1,0.1-0.2,0.3-0.2,0.5c0.3,4.4,0.7,8.8,1,13.2c0,0.1,0,0.1,0,0.2c1.2,0,2.4,0,3.6,0c0-5.9,0-11.8,0-17.7
		c2.9,0,5.7,0,8.5,0c0,5.9,0,11.8,0,17.7c1.3,0,2.5,0,3.8,0c0-0.2,0-0.4,0-0.6c0-5.5,0-11.1,0-16.6c0-0.3,0.1-0.7,0.3-0.9
		c0.9-1.5,1.8-2.9,2.7-4.4c0.1-0.1,0.2-0.3,0.3-0.5c0.5,0.9,1,1.8,1.6,2.5c1.3,1.7,1.7,3.6,1.7,5.8c-0.1,4.6,0,9.3,0,13.9
		c0,0.2,0,0.5,0,0.7c2.5,0,5,0,7.6,0c0-0.2,0-0.4,0-0.6c0-9.2,0-18.3,0-27.5c0-1.5-0.7-2.3-2.3-2.3c-13.9,0-27.7,0-41.6,0
		c-0.2,0-0.5,0-0.7,0c0-0.6,0-1.1,0-1.7c0.2,0,0.4,0,0.6,0c14,0,27.9,0,41.9,0c2.3,0,3.8,1.5,3.8,3.8c0,11.4,0,22.8,0,34.2
		c0,2.3-1.5,3.8-3.8,3.8c-1.6,0-3.1,0-4.7,0c0-0.6,0-1.1,0-1.7c0.2,0,0.4,0,0.6,0c1.4,0,2.7,0,4.1,0s2.1-0.8,2.1-2.2s0-2.8,0-4.3
		c-17.7,0-35.4,0-53.1,0c0,0.1,0,0.3,0,0.4c0,1.3,0,2.6,0,4c0,1.2,0.8,2,2,2.1c0.2,0,0.4,0,0.6,0c13.7,0,27.5,0,41.2,0
		c0.3,0,0.5,0,0.8,0c0,0.5,0,1.1,0,1.6c-3.6,0-7.3,0-11,0c0.4,1.8,0.7,3.5,1,5.2c1.9,0,3.7,0,5.6,0c0,2.2,0,4.2,0,6.4
		c-9.1,0-18.2,0-27.4,0c0-2.1,0-4.2,0-6.4c1.9,0,3.7,0,5.6,0c0.3-1.7,0.7-3.4,1-5.2c-0.3,0-0.5,0-0.7,0c-5.3,0-10.7,0-16,0
		c-2.7,0-3.5-0.5-4.5-2.9C328.5,239.1,328.5,227.2,328.5,215.2z M368.7,260.9c-8,0-16,0-24,0c0,1,0,2,0,3c8,0,16,0,24,0
		C368.7,262.9,368.7,261.9,368.7,260.9z M358.7,239c0,0.7,0,1.3,0,1.9c1,0,2,0,3,0c0,0.6,0,1.1,0,1.7c-1,0-2,0-3,0
		c0,0.6,0,1.1,0,1.7c1.7,0,3.4,0,5.2,0c0-5.4,0-10.7,0-16.1c-1.7,0-3.4,0-5.2,0c0,0.7,0,1.3,0,2c0.7,0,1.3,0,2,0c0,0.6,0,1.1,0,1.7
		c-0.7,0-1.3,0-2,0c0,0.7,0,1.3,0,1.9c1,0,2,0,3,0c0,0.6,0,1.1,0,1.6c-1,0-2,0-3,0c0,0.7,0,1.3,0,1.9c0.7,0,1.4,0,2,0
		c0,0.6,0,1.1,0,1.6C360,239,359.3,239,358.7,239z M363.1,259.2c-0.3-1.7-0.6-3.3-1-4.9c0-0.1-0.3-0.3-0.4-0.3c-3.3,0-6.6,0-9.9,0
		c-0.3,0-0.4,0.1-0.5,0.4c-0.1,0.7-0.3,1.4-0.4,2.2c-0.2,0.9-0.3,1.7-0.5,2.6C354.6,259.2,358.8,259.2,363.1,259.2z M351.6,244.2
		c-0.3-4.3-0.7-8.5-1-12.7c-0.9,0-1.8,0-2.7,0c-0.3,4.3-0.6,8.5-1,12.7C348.5,244.2,350,244.2,351.6,244.2z M371,230.3
		c0,4.6,0,9.2,0,13.9c1,0,2,0,3,0c0-4.7,0-9.4,0-13.9C373,230.3,372,230.3,371,230.3z M348.8,220.8c-0.7,0.3-1.2,0.9-1.7,1.7
		c-0.8,1.3-1,2.8-1,4.3c0,1.2,0.6,2.1,1.7,2.6c1,0.5,2.1,0.4,3.1-0.2c1.7-1.1,1.8-3.4,0.5-5.1C350.6,223.1,349.8,222,348.8,220.8z
		 M336,238.4c0,1.9,0,3.9,0,5.8c1.2,0,2.3,0,3.4,0c0-2,0-3.9,0-5.8C338.2,238.4,337.1,238.4,336,238.4z M339.4,236.7
		c0-1.7,0-3.3,0-5c-1.2,0-2.3,0-3.5,0c0,1.7,0,3.3,0,5C337.1,236.7,338.3,236.7,339.4,236.7z M336.7,224.6c-0.2,0.3-0.3,0.4-0.5,0.6
		c-1,1-1.2,2-0.5,3.2c0.3,0.5,0.3,1.3,0.7,1.6c0.4,0.3,1.2,0.1,1.8,0.1c0.3,0,0.5-0.1,0.6-0.4c0.3-0.9,0.7-1.8,1-2.7
		c0-0.1,0.1-0.3,0.1-0.4c-0.4-0.6-0.9-1.3-1.4-1.9c0,0-0.1,0-0.1,0.1c0,0.5,0,1.1,0,1.7c-0.6,0-1.1,0-1.7,0
		C336.7,225.8,336.7,225.3,336.7,224.6z M372.5,224.4c-0.4,0.6-0.7,1.2-1.1,1.8c-0.4,0.5-0.5,1.1-0.5,1.8c0,0.3,0.1,0.5,0.4,0.6
		c0.8,0.3,1.6,0.3,2.4,0c0.1-0.1,0.3-0.2,0.3-0.2c0-0.5,0.1-1.1-0.1-1.5C373.5,225.9,373,225.2,372.5,224.4z"/>
	<path class="st0" d="M380.8,236.7c-0.5,0-1,0-1.6,0c0-2.5,0-5,0-7.6c0.5,0,1,0,1.6,0C380.8,231.7,380.8,234.2,380.8,236.7z"/>
	<path class="st0" d="M357.5,248.4c0,0.5,0,1,0,1.6c-0.5,0-1,0-1.6,0c0-0.5,0-1,0-1.6C356.4,248.4,356.9,248.4,357.5,248.4z"/>
	<path class="st0" d="M380.8,224.2c-0.5,0-1,0-1.6,0c0-0.5,0-1.1,0-1.6c0.5,0,1,0,1.6,0C380.8,223.1,380.8,223.6,380.8,224.2z"/>
	<path class="st0" d="M380.8,227.5c-0.5,0-1,0-1.6,0c0-0.5,0-1,0-1.6c0.5,0,1,0,1.6,0C380.8,226.4,380.8,226.9,380.8,227.5z"/>
</g>
<g>
	<path class="st1" d="M57.6,43.2c-0.7,1.3-1.7,1.8-3.2,1.8c-2.8-0.1-5.6,0-8.5,0c0,0.6,0,1.1,0,1.8c1.2,0,2.4,0,3.6,0
		c1.3,0,2,0.7,2.1,2c0.1,0.6-0.1,1-0.8,1c-5.2,0-10.4,0-15.5,0c-0.6,0-0.8-0.3-0.8-0.8c0-1.3,0.8-2.1,2.1-2.1c1.2,0,2.4,0,3.7,0
		c0-0.6,0-1.1,0-1.8C40,45,39.7,45,39.4,45c-2.5,0-5,0-7.6,0c-2.4,0-3.3-0.9-3.3-3.3c0-0.2,0-0.3,0-0.6c-0.3,0-0.7,0-1,0
		c-7.3,0-14.5,0-21.8,0c-1.2,0-1.3-0.1-1.3-1.3c0-1,0-2,0-3c0-0.3,0.4-0.8,0.6-0.9c0.6-0.1,0.7,0.4,0.7,0.9c0,0.9,0,1.9,0,2.9
		c0.3,0,0.5,0.1,0.8,0.1c7.1,0,14.1,0,21.2,0c0.5,0,1,0.1,0.7-0.8c-1.3,0-2.7,0-4.1,0c-0.8,0-1.1-0.3-1.1-1.1c0-1.9,0-3.9,0-5.8
		c0-0.5,0-1,0.6-1c0.7,0,0.7,0.5,0.7,1c0,1.8,0,3.6,0,5.4c1.3,0,2.5,0,3.8,0c0-1.2,0-2.4,0-3.8c-0.5,0-1-0.1-1.5-0.1
		s-0.8-0.3-0.9-0.8c-0.1-0.2-0.2-0.5-0.2-0.7c-0.1-1.5-1.2-1.8-2.3-2.2c-0.2-0.1-0.6,0.1-0.8,0.2c-2.2,1.1-2.2,1.1-3.9-0.6
		c-1.6-1.6-1.6-1.6-0.5-3.5c0.6-1.2,0-2.8-1.3-3.2c-2.2-0.7-2.2-0.7-2.2-2.9c0-0.1,0-0.1,0-0.2c0-2.3,0-2.3,2.2-2.9
		c1.3-0.4,1.9-2,1.3-3.2c-1-1.9-1-1.9,0.5-3.5c1.7-1.8,1.7-1.8,3.9-0.6c1,0.5,2.6-0.2,3-1.3c0.1-0.3,0.2-0.6,0.3-0.9
		C26,6.5,26.4,6,27.2,5.9c1,0,2,0,3,0c0.7,0.1,1,0.5,1.2,1.2c0,0.3,0.2,0.6,0.3,0.9c0.4,1.3,1.9,2,3.2,1.3c1.9-1,1.9-1,3.5,0.5
		c1.8,1.8,1.8,1.8,0.6,4c-0.1,0.3-0.3,0.6-0.2,0.8c0.4,1.1,0.7,2.2,2.2,2.3c0.2,0,0.5,0.1,0.7,0.2c0.3,0.2,0.7,0.5,0.7,0.9
		c0.1,0.9,0.1,1.7,0.1,2.6c0,1.5,0,1.6-1.5,1.9c-1.4,0.3-1.9,1.2-2.2,2.4c2.2,0,4.4,0,6.7,0c0-3.2,0-6.4,0-9.7c-1.4,0-2.8,0-4.2,0
		c-0.5,0-1-0.1-0.9-0.7c0-0.6,0.5-0.7,1-0.7c1.5,0,3,0,4.5,0c0.9,0,1.1,0.2,1.1,1.1c0,3,0,6,0,9c0,0.3,0,0.6,0,0.9
		c2.5,0,5,0.1,7.4,0c1.5-0.1,2.6,0.4,3.3,1.7C57.6,32.3,57.6,37.8,57.6,43.2z M23.2,28.5c0.7,0.3,1.4,0.7,2.1,0.9
		c0.8,0.2,1.2,0.7,1.4,1.5c0.5,1.8,0.5,1.7,2.4,1.7h0.1c0.7,0.1,1-0.2,1.1-0.8c0.2-1.3,0.8-2.3,2.2-2.5c0.2,0,0.4-0.1,0.5-0.2
		c0.6-0.4,1.2-0.3,1.8,0c1.8,1,1.8,0.9,3.1-0.5c0.4-0.4,0.5-0.8,0.1-1.2c-0.8-1.1-1.1-2.3-0.2-3.5c0.1-0.1,0.2-0.4,0.2-0.6
		c0.1-0.7,0.6-1,1.2-1.2c1.9-0.6,1.9-0.6,1.8-2.6c0-0.6-0.2-0.9-0.8-1c-1.2-0.4-2.2-1-2.5-2.5c0-0.2-0.1-0.3-0.2-0.5
		c-0.4-0.6-0.4-1.1,0-1.8c1-1.8,0.9-1.8-0.6-3.2c-0.4-0.3-0.7-0.4-1.1-0.1c-1.2,0.8-2.4,1.2-3.7,0.2c-0.1-0.1-0.3-0.1-0.5-0.2
		c-0.7-0.1-1-0.6-1.2-1.2c-0.6-2-0.6-2-2.7-1.9c-0.5,0-0.8,0.2-0.9,0.7c-0.2,1.5-1,2.3-2.5,2.8c-1,0.3-1.7,0.4-2.6-0.1
		C20.5,10,20.4,10,19.4,11c-0.9,0.9-1,1-0.3,2.2c0.5,0.8,0.6,1.5,0.2,2.5c-0.6,1.6-1.4,2.4-3,2.7c-0.2,0-0.5,0.4-0.5,0.7
		c-0.1,0.6-0.1,1.2,0,1.8c0,0.2,0.3,0.6,0.5,0.6c1.7,0.2,2.6,1.2,3.1,2.8c0.2,0.7,0.4,1.2,0,1.9c-1,1.7-0.9,1.7,0.6,3.1
		c0,0,0,0,0.1,0.1c0.3,0.4,0.6,0.4,1.1,0.1C21.9,29.1,22.6,28.8,23.2,28.5z M53.2,43.7c0.4,0,0.8,0,1.2,0c1.6,0,2-0.4,2-2
		c0-4.5,0-8.9,0-13.4c0-1.4-0.4-1.8-1.8-1.8c-4.8,0-9.6,0-14.4,0c-0.3,0-0.5,0-1,0.1c1.2,1.2,0.4,1.9-0.3,2.7
		c-0.2,0.2-0.4,0.4-0.6,0.6c-1.5,1.5-1.5,1.5-3.5,0.5c-0.2-0.1-0.4-0.2-0.6-0.3c-0.2-0.1-0.4-0.1-0.5,0c-1.2,0.3-2.1,0.9-2.3,2.3
		c-0.1,0.8-0.4,1.5-1.5,1.4c0,3,0,5.8,0,8.7c0,0.7,0.5,1.1,1.1,1.2c0.6,0.1,1.3,0,1.9,0c0-0.4,0-0.6,0-0.9c0-1.3,0-2.6,0-3.9
		c0-1,0.1-1.1,1.2-1.1c0.7,0,1.3,0,2,0c0.6,0,0.9,0.3,0.9,0.9c0,0.9,0,1.8,0,2.8c0,0.8,0,1.5,0,2.3c0.5,0,0.8,0,1.3,0
		c0-0.3,0-0.6,0-0.9c0-1.7,0-3.3,0-5c0-1,0.1-1.1,1.1-1.1c0.7,0,1.3,0,2,0s1,0.3,1,1c0,1.7,0,3.5,0,5.2c0,0.3,0,0.5,0,0.8
		c0.5,0,0.8,0,1.2,0c0-0.4,0-0.7,0-1c0-2,0-4.1,0-6.1c0-0.7,0.3-1,1-1s1.4,0,2.1,0c0.8,0,1,0.3,1,1.1c0,1.8,0,3.6,0,5.5
		c0,0.5,0,1,0,1.6c0.5,0,0.8,0,1.3,0c0-0.3,0-0.6,0-0.9c0-2.4,0-4.7,0-7.1c0-0.7,0.2-1,1-1c0.7,0,1.3-0.1,2-0.1c1,0,1.1,0.1,1.1,1.1
		c0,1.6,0,3.1,0,4.7C53.2,41.4,53.2,42.5,53.2,43.7z M50.4,35.9c0,2.5,0,4.9,0,7.3c0.5,0,0.9,0,1.4,0c0-2.5,0-4.9,0-7.3
		C51.3,35.9,50.9,35.9,50.4,35.9z M45.1,36.9c0,2.1,0,4.2,0,6.3c0.5,0,0.9,0,1.4,0c0-1.1,0-2.1,0-3.1s0-2.1,0-3.2
		C46,36.9,45.6,36.9,45.1,36.9z M39.7,43.2c0.5,0,0.9,0,1.4,0c0-1.7,0-3.4,0-5.1c-0.5,0-0.9,0-1.4,0C39.7,39.8,39.7,41.4,39.7,43.2z
		 M34.4,39c0,1.5,0,2.8,0,4.2c0.5,0,0.9,0,1.3,0c0-1.4,0-2.8,0-4.2C35.2,39,34.8,39,34.4,39z M41.7,45c0,0.6,0,1.2,0,1.7
		c0.9,0,1.8,0,2.7,0c0-0.6,0-1.1,0-1.7C43.5,45,42.6,45,41.7,45z M50.1,48.4C49.4,48,36.6,48,36,48.4C40.8,48.4,45.4,48.4,50.1,48.4
		z"/>
	<path class="st1" d="M1.3,27.9c0.1-0.2,0.2-0.4,0.2-0.6c0.1-0.8,0.6-1.2,1.5-1.2s1.4-0.6,1-1.5s-0.1-1.5,0.7-2
		C5,22.4,5.3,22.2,5.6,22c0.5-0.4,0.9-0.3,1.4,0.1c1.1,0.9,1.6,0.8,2.2-0.4c0.3-0.6,0.7-0.8,1.3-0.7c0.4,0.1,0.8,0.1,1.2,0.2
		c0.8,0.1,1.2,0.5,1.2,1.4c0,1.1,0.6,1.5,1.6,1.1c0.8-0.3,1.3-0.1,1.8,0.6c0.2,0.3,0.4,0.6,0.6,0.9c0.4,0.6,0.4,1.1-0.1,1.6
		c-0.8,0.9-0.7,1.5,0.4,2.1c0.7,0.3,0.9,0.8,0.7,1.5c-0.1,0.4-0.2,0.8-0.2,1.2c-0.1,0.7-0.5,1.1-1.3,1.1c-1.2,0.1-1.5,0.6-1.1,1.7
		c0.3,0.7,0.1,1.2-0.6,1.6c-0.3,0.2-0.5,0.3-0.8,0.5c-0.7,0.5-1.3,0.5-2-0.1c-0.7-0.7-1.4-0.5-1.8,0.3c-0.4,0.9-1,1.1-1.9,0.9
		c-0.3-0.1-0.7-0.1-1-0.2c-0.7-0.1-1-0.5-1-1.2C6.1,35,5.6,34.6,4.5,35c-0.7,0.2-1.2,0.1-1.6-0.5c-0.2-0.4-0.5-0.7-0.7-1
		c-0.4-0.6-0.3-1.1,0.1-1.6C3.1,31,3,30.4,1.9,29.8c-0.2-0.1-0.5-0.2-0.7-0.4C1.3,28.9,1.3,28.4,1.3,27.9z M6.2,23.2
		c-0.5,0.4-1.1,0.5-0.9,1.3c0.4,1.3-0.5,2.7-1.9,2.9c-0.4,0-0.7,0.1-0.8,0.6c-0.1,0.5,0.1,0.7,0.5,0.9c1.2,0.6,1.5,2.3,0.7,3.3
		c-0.3,0.4-0.4,0.6-0.1,1.1s0.6,0.4,1.1,0.3c1.2-0.4,2.6,0.5,2.8,1.8c0.1,0.4,0.1,0.8,0.7,0.9c0.6,0.1,0.8-0.2,1-0.6
		c0.6-1,2.3-1.4,3.2-0.6c0.4,0.3,0.7,0.5,1.2,0.1c0.5-0.3,0.4-0.7,0.3-1.1c-0.3-1.2,0.6-2.6,1.9-2.7c0.5,0,0.8-0.1,0.9-0.7
		c0.1-0.5-0.1-0.7-0.6-1c-1.1-0.6-1.4-2.3-0.7-3.3c0.3-0.3,0.5-0.6,0.2-1.1c-0.3-0.4-0.6-0.5-1.1-0.3c-1.2,0.4-2.7-0.6-2.8-1.9
		c0-0.5-0.2-0.7-0.7-0.8c-0.5-0.1-0.7,0.1-0.9,0.5c-0.2,0.6-0.7,0.8-1.4,1C7.6,24.2,6.9,23.9,6.2,23.2z"/>
	<path class="st1" d="M28.2,20.4c0.9,0.9,1.6,1.6,2.4,2.4c0.4,0.4,0.7,0.7,0.3,1.2c-0.5,0.5-0.9,0-1.2-0.3c-0.8-0.8-1.5-1.5-2.5-2.4
		c0,0.9,0.1,1.5,0,2.1c0,0.3-0.4,0.5-0.6,0.8c-0.2-0.3-0.7-0.5-0.7-0.8c-0.1-2.3,0-4.6,0-7c0-0.5,0.3-0.8,0.8-0.8c0.6,0,1.3,0,1.9,0
		c1.4,0,2.4,1,2.4,2.3c0.1,1.4-0.9,2.3-2.3,2.5C28.6,20.4,28.5,20.4,28.2,20.4z M27.2,19.1c0.9-0.2,1.8,0.4,2.4-0.6
		c0.2-0.3,0.1-0.8-0.1-1.1C28.9,16.6,28,17,27.2,17C27.2,17.7,27.2,18.3,27.2,19.1z"/>
	<path class="st1" d="M21.5,17c0,0.2,0,0.4,0,0.5c0,0.6,0,1.1,0,1.8c0.7,0,1.3,0,1.9,0c0.5,0,1.2-0.1,1.2,0.6c0,0.8-0.7,0.7-1.3,0.7
		c-0.6,0-1.2,0-1.8,0c0,0.8,0,1.5,0,2.3c0.9,0,1.8,0,2.8,0c0.5,0,1,0.1,1,0.7s-0.5,0.7-1,0.7c-1,0-2.1,0-3.1,0c-0.7,0-1-0.3-1-0.9
		c0-2.2,0-4.5,0-6.7c0-0.6,0.3-0.9,0.9-0.9c1.1,0,2.2,0,3.4,0c0.5,0,0.9,0.2,0.8,0.7c0,0.2-0.5,0.6-0.8,0.6C23.4,17,22.5,17,21.5,17
		z"/>
	<path class="st1" d="M33.2,20.4c0,1,0.1,2,0,2.9c0,0.3-0.4,0.8-0.6,0.9c-0.6,0.1-0.7-0.4-0.7-0.9c0-2.2,0-4.4,0-6.6
		c0-0.6,0.2-0.9,0.9-0.9s1.3,0,2,0c1.2,0,2.2,1,2.2,2.2c0,1.3-1,2.3-2.3,2.4C34.2,20.4,33.7,20.4,33.2,20.4z M33.2,19.1
		c0.8-0.1,1.7,0.4,2.3-0.5c0.2-0.3,0.2-0.9,0-1.1c-0.6-0.8-1.5-0.4-2.3-0.4C33.2,17.7,33.2,18.3,33.2,19.1z"/>
	<path class="st1" d="M50.9,30.8c-0.3,0.1-0.6,0.2-0.8,0.4c-0.7,0.5-1.4,1.1-2.1,1.6c-0.5,0.4-0.9,0.7-1,1.3c-0.2,0.9-1.3,1-2.1,0.5
		c-1.2-0.9-2.6-1.2-4.1-0.7c-0.1,0-0.3,0.1-0.4,0.1c-1.6-0.3-2.5,1.1-3.7,1.7c-0.2,0.1-0.2,0.5-0.4,0.7c-0.3,0.6-0.8,0.9-1.5,0.7
		s-1.1-0.8-1-1.4c0.1-0.7,0.5-1.2,1.2-1.1c0.8,0.1,1.4-0.2,2-0.7c0.8-0.5,1.8-0.8,2.2-1.9c0.2-0.7,1.3-0.9,1.8-0.3
		c0.6,0.7,1.4,0.8,2.2,0.9c0.7,0.1,1.4,0,2.1-0.1c1.9-0.2,2.8-1.7,4.3-2.6c0.2-0.1,0.3-0.4,0.4-0.6c0.3-0.8,0.9-1.2,1.6-1
		c0.7,0.2,1.1,0.8,1,1.5C52.4,30.6,51.8,31,50.9,30.8z"/>
	<path class="st1" d="M14.7,29.4c0,2.8-2.3,5.1-5.1,5.1s-5.1-2.3-5.2-5.1c0-2.9,2.3-5.2,5.2-5.2C12.4,24.3,14.7,26.5,14.7,29.4z
		 M13.4,29.3c0-2.1-1.7-3.8-3.8-3.8s-3.8,1.7-3.8,3.9c0,2.1,1.8,3.8,3.9,3.8S13.4,31.4,13.4,29.3z"/>
</g>
</svg>
