<?xml version="1.0" encoding="utf-8"?>
<!-- Generator: Adobe Illustrator 23.0.2, SVG Export Plug-In . SVG Version: 6.00 Build 0)  -->
<svg version="1.1" id="LiveBits_LOGO" xmlns="http://www.w3.org/2000/svg" xmlns:xlink="http://www.w3.org/1999/xlink" x="0px"
	 y="0px" viewBox="0 0 224.9 78" style="enable-background:new 0 0 224.9 78;" xml:space="preserve">
<style type="text/css">
	.st0{fill:#FEE000;}
	.st1{fill:#030202;}
	.st2{fill:#FFFFFF;}
</style>
<g>
	<path class="st0" d="M107.3,77.9L107.3,77.9L0,77.9V2.8h103.7v57.1h0v17c0,0.4,0.2,0.8,0.5,1H107.3z"/>
	<path d="M10.9,58.9v-1.7c5.1,0,6.3-1.5,6.3-4.3V16.8c0-3.1-1.3-4.1-6.3-4.1V11h17.5v1.7c-5.7,0-6.9,1-6.9,4.1V53
		c0,2.7,1.2,4.3,4.9,4.3h6.9c6.4,0,12-4.1,15.7-10.6l1.3,0.7l-4.9,11.6H10.9z"/>
	<path d="M48.2,58.9v-1.7c3.1,0,4.4-0.6,4.4-3.3V33.6c0-1.7-0.7-3-4.5-3l-0.2-1l8.7-3V54c0,2.7,1,3.3,4.5,3.3v1.7H48.2z"/>
	<path d="M58.8,27h13.4v1.7c-2.7,0-4.4,0.3-4.4,2c0,0.2,0.1,0.5,0.1,0.9l9.2,22.1l8.4-22.1c0.1-0.3,0.2-0.5,0.2-0.8
		c0-1.1-1.3-2.1-4.5-2.1V27h11.9v1.7c-3,0-4.5,0.9-5.5,2.9L76.5,60h-1.1L63.8,31.6c-1.1-2.5-2.1-2.9-4.9-2.9V27z"/>
	<path class="st1" d="M103.7,57.8L103.7,57.8l0,2.1h0c5.5,0,11.1-2.5,14-7.8l-0.9-0.8C113.3,55.6,108.3,57.9,103.7,57.8z"/>
	<path class="st1" d="M117.3,42.2c0.3-10.4-6.4-15.3-13.6-15.4h0v1.6h0c4.8,0.2,9.3,4,9.2,12h-9.2v1.9H117.3z"/>
	<path class="st1" d="M117.7,52.1l-0.9-0.8c-3.5,4.3-8.5,6.6-13.1,6.4h0v2.1h0C109.2,59.9,114.8,57.4,117.7,52.1z"/>
	<path class="st1" d="M117.3,42.2c0.3-10.4-6.4-15.3-13.6-15.4h0v1.6h0c4.8,0.2,9.3,4,9.2,12h-9.2v1.9H117.3z"/>
	<path class="st1" d="M103.7,28.3v-1.6c-8-0.1-16.4,5.7-15.9,16.5c-0.6,10.8,7.6,16.6,15.9,16.7v-2.1c-6.3-0.2-11.8-5-11.6-15.6
		h11.6v-1.9H92.1C92.4,32.4,98.3,28.1,103.7,28.3z"/>
	<path class="st2" d="M133.7,39.4v-0.2c10.1-3.1,10.2-12.3,10.2-18.3c0-8.2-7.2-17.7-19.8-18l0.4,0V2.8l-20.8,0v75.1h22.6
		c17.8-1.5,17.9-16.8,17.9-21.6C144.2,48.5,140,41.7,133.7,39.4z M121.6,18.3c0-0.4,0.3-0.6,0.7-0.6c1.2,0,2.9,0.8,2.9,2.6v8.6
		c0,2-1.5,2.9-2.9,2.9c-0.4,0-0.7-0.3-0.7-0.7V18.3z M125.3,60.1c0,1.7-1.4,2.9-3,2.9c-0.5,0-0.7-0.3-0.7-0.7V47.7
		c0-0.5,0.2-0.8,0.6-0.8c1.6,0,3.1,1,3.1,2.7V60.1z"/>
	<path class="st2" d="M163.9,77.2c0,0.4-0.3,0.8-0.7,0.8h-14.7c-0.4,0-0.8-0.5-0.8-0.9V19c0-0.7,0.4-1.2,1-1.2h14.2c0.6,0,1,0.5,1,1
		V77.2z M162.9,13.6c0,0.6-0.4,1.1-1,1.1h-12.2c-0.5,0-1-0.6-1-1.2V1.1c0-0.5,0.5-1.1,1-1.1H162c0.4,0,0.9,0.3,0.9,0.8V13.6z"/>
	<path class="st2" d="M169.3,34.5c0-0.4-0.2-0.7-0.6-0.7c-2.1,0-2.3,0-2.3-0.7V18.4c0-0.3,0.2-0.6,0.4-0.6c2.3,0,2.5,0,2.5-0.7V8.3
		c0-0.4,0.3-0.7,0.7-0.7h14.4c1,0,1,0.2,1,0.9v8.4c0,0.6,0.3,0.9,0.8,0.9c3.1,0,3.4,0,3.4,0.7v14.5c0,0.4-0.3,0.7-0.7,0.7
		c-3.1,0-3.5,0-3.5,0.8v26.4c0,0.4,0.3,0.8,0.6,0.8c3.5,0,3.9,0,3.9,0.6c0,5.7,0,15.6-10.2,15.6c-6,0-10.4-3.7-10.4-15.7V34.5z"/>
	<path class="st2" d="M212,38.7c-0.5,0.1-0.8-0.3-0.8-0.9c0-3.1-0.7-4.7-2.2-4.7c-0.8,0-1.5,0.7-1.5,1.8c0,2.1,3,5.1,8.5,10.1
		c5.9,5.2,8.4,9.5,8.4,15.9c0,8.6-4.3,17-16.5,17c-6.7,0-15.7-3.7-15.7-20.5c0-0.5,0.3-0.9,0.7-0.9l10.9-0.7c0.4,0,0.7,0.3,0.8,0.7
		c0.2,3.6,1.4,5.8,2.9,5.8c0.9,0,1.4-0.7,1.4-1.7c0-2.4-3.8-6.2-9.4-10.9c-4.1-3.3-7.7-8.7-7.7-16.2c0-8.9,7.1-15.6,16-15.6
		c12,0,17.1,9.3,17.1,19.2c0,0.5-0.5,0.9-1,0.9L212,38.7z"/>
	<polygon points="54.5,23.3 52.6,19.3 56.5,18.6 47.9,11 47.9,22.5 50.9,20 52.7,24.1 	"/>
	<path d="M117.7,52.1l-0.9-0.8c-3.5,4.3-8.5,6.6-13.1,6.4h0v2.1h0C109.2,59.9,114.8,57.4,117.7,52.1z"/>
	<path d="M117.3,42.2c0.3-10.4-6.4-15.3-13.6-15.4h0v1.6h0c4.8,0.2,9.3,4,9.2,12h-9.2v1.9H117.3z"/>
</g>
</svg>
